<svg xmlns="http://www.w3.org/2000/svg"><defs><font horiz-adv-x="1171"><font-face ascent="1618" bbox="-352 -557 2216 1858" cap-height="1366" descent="-430" font-weight="400" panose-1="2 0 5 6 3 0 0 2 0 4" underline-position="0" underline-thickness="0" unicode-range="U+000D-FB04" units-per-em="2048" x-height="989"/><glyph d="M930 0h-154v854h-164v135h164v76q0 152 78 236.5t209 84.5q94 0 149-34l-38-117q-39 25-102 25t-102.5-50.5-39.5-144.5v-76h200v-135h-200v-854zm462 1130q-42 0-73 30t-31 73 31 73.5 73 30.5 72.5-30.5 30.5-73.5-30.5-73-72.5-30zm-207-1531q-132 0-227 73l56 117q63-63 139-63t119 44 43 134v1085h153v-1085q0-145-75.5-225t-207.5-80zm-835 401h-153v854h-164v135h164v76q0 152 76.5 236.5t206.5 84.5 212-75l-63-101q-55 50-127 50t-112-50.5-40-144.5v-76h201v-135h-201v-854z" glyph-name="uniE004" horiz-adv-x="1622" unicode="ffj"/><glyph d="M350 0h-153v854h-164v135h164v76q0 152 77.5 236.5t208.5 84.5q94 0 150-34l-39-117q-40 25-102 25t-102-50.5-40-144.5v-76h201v-135h-201v-854zm460 1130q-42 0-72.5 30t-30.5 73 30.5 73.5 72.5 30.5 72.5-30.5 30.5-73.5-30.5-73-72.5-30zm-206-1531q-131 0-227 73l55 117q63-63 139-63t119 44 43 134v1085h154v-1085q0-145-76-225t-207-80z" glyph-name="uniE005" horiz-adv-x="1042" unicode="fj"/><glyph d="M350 0h-153v854h-164v135h164v76q0 152 76.5 236.5t206.5 84.5 212-75l-63-101q-55 50-127 50t-112-50.5-40-144.5v-76h201v-135h-201v-854zm580 0h-154v854h-164v135h164v76q0 152 77 236.5t207 84.5 212-75l-64-101q-55 50-127 50t-111.5-50.5-39.5-144.5v-76h200v-135h-200v-854z" glyph-name="uniFB00" horiz-adv-x="1161" unicode="ff"/><glyph d="M350 0h-153v854h-164v135h164v76q0 152 77.5 236.5t208.5 84.5q94 0 150-34l-39-117q-40 25-102 25t-102-50.5-40-144.5v-76h201v-135h-201v-854zm460 1130q-42 0-72.5 30t-30.5 73 30.5 73.5 72.5 30.5 72.5-30.5 30.5-73.5-30.5-73-72.5-30zm77-1130h-154v989h154v-989z" glyph-name="uniFB01" horiz-adv-x="1042" unicode="fi"/><glyph d="M350 0h-153v854h-164v135h164v76q0 152 77.5 236.5t208.5 84.5q94 0 150-34l-39-117q-40 25-102 25t-102-50.5-40-144.5v-76h201v-135h-201v-854zm537 0h-154v1366h154v-1366z" glyph-name="uniFB02" horiz-adv-x="1042" unicode="fl"/><glyph d="M930 0h-154v854h-164v135h164v76q0 152 78 236.5t209 84.5q94 0 149-34l-38-117q-39 25-102 25t-102.5-50.5-39.5-144.5v-76h200v-135h-200v-854zm462 1130q-42 0-73 30t-31 73 31 73.5 73 30.5 72.5-30.5 30.5-73.5-30.5-73-72.5-30zm76-1130h-153v989h153v-989zm-1118 0h-153v854h-164v135h164v76q0 152 76.5 236.5t206.5 84.5 212-75l-63-101q-55 50-127 50t-112-50.5-40-144.5v-76h201v-135h-201v-854z" glyph-name="uniFB03" horiz-adv-x="1622" unicode="ffi"/><glyph d="M930 0h-154v854h-164v135h164v76q0 152 78 236.5t209 84.5q94 0 149-34l-38-117q-39 25-102 25t-102.5-50.5-39.5-144.5v-76h200v-135h-200v-854zm538 0h-153v1366h153v-1366zm-1118 0h-153v854h-164v135h164v76q0 152 76.5 236.5t206.5 84.5 212-75l-63-101q-55 50-127 50t-112-50.5-40-144.5v-76h201v-135h-201v-854z" glyph-name="uniFB04" horiz-adv-x="1622" unicode="ffl"/><glyph d="M350 0h-153v854h-164v135h164v76q0 152 77.5 236.5t208.5 84.5q94 0 150-34l-39-117q-40 25-102 25t-102-50.5-40-144.5v-76h201v-135h-201v-854zm832 113q147 0 233 106.5t86 274.5-86 275.5-233 107.5q-88 0-171-46.5t-124-113.5v-449q41-66 124-110.5t171-44.5zm-295-113h-154v1366h154v-526q129 174 329 174t322.5-143 122.5-379-121.5-376.5-323.5-140.5-329 172v-147z" glyph-name="f_b.liga" horiz-adv-x="1757" unicode="fb"/><glyph d="M350 0h-153v854h-164v135h164v76q0 152 77.5 236.5t208.5 84.5q94 0 150-34l-39-117q-40 25-102 25t-102-50.5-40-144.5v-76h201v-135h-201v-854zm1206 0h-153v651q0 123-57.5 174.5t-153.5 51.5-177-45.5-128-108.5v-723h-154v1366h154v-520q57 68 153.5 118t200.5 50q315 0 315-316v-698z" glyph-name="f_h.liga" horiz-adv-x="1710" unicode="fh"/><glyph d="M350 0h-153v854h-164v135h164v76q0 152 77.5 236.5t208.5 84.5q94 0 150-34l-39-117q-40 25-102 25t-102-50.5-40-144.5v-76h201v-135h-201v-854zm537 0h-154v1366h154v-903l520 526h195l-439-448 441-541h-197l-356 444-164-161v-283z" glyph-name="f_k.liga" horiz-adv-x="1634" unicode="fk"/><glyph d="M879-184h-719v1724h719v-1724zm-66 61v1602h-590v-1602h590z" glyph-name=".notdef" horiz-adv-x="1038"/><glyph glyph-name="glyph1" horiz-adv-x="0"/><glyph glyph-name="glyph1" horiz-adv-x="0"/><glyph glyph-name="glyph2" horiz-adv-x="681"/><glyph glyph-name="space" horiz-adv-x="528"/><glyph d="M299 383h-127l-33 983h193zm-63.5-403q-45.5 0-79 33.5t-33.5 79.5 32.5 79 80 33 80-33 32.5-79-33.5-79.5-79-33.5z" glyph-name="exclam" horiz-adv-x="471" unicode="!"/><glyph d="M111 1298q0 34 26.5 61t65.5 27 66.5-27.5 27.5-66.5l-55-448h-76q-55 420-55 454zm297 0q0 34 27.5 61t66.5 27 65.5-27.5 26.5-66.5l-55-448h-76q-55 420-55 454z" glyph-name="quotedbl" horiz-adv-x="702" unicode="""/><glyph d="M614 0h-125l125 371h-227l-123-371h-127l125 371h-217l35 108h219l135 408h-221l33 106h225l123 373h127l-123-373h225l123 373h125l-125-373h219l-30-106h-224l-137-408h227l-32-108h-232zm35 479l135 408h-225l-135-408h225z" glyph-name="numbersign" horiz-adv-x="1208" unicode="#"/><glyph d="M555-205v182q-295 16-469 216l100 129q150-168 369-193v500q-249 64-337.5 152.5t-88.5 236.5 119 252 307 114v189h125v-191q248-25 403-186l-102-125q-121 129-301 156v-445q96-27 159.5-52t169-94.5 105.5-258.5q0-156-106.5-269.5t-327.5-130.5v-182h-125zm383 571q0 88-66.5 139.5t-191.5 88.5v-465q133 14 195.5 81.5t62.5 155.5zm-633 658q0-84 63.5-128t186.5-81v418q-111-8-180.5-66.5t-69.5-142.5z" glyph-name="dollar" horiz-adv-x="1214" unicode="$"/><glyph d="M391.5 713q-145.5 0-237 95.5t-91.5 239.5 92.5 241 236.5 97 237.5-97 93.5-241-93-239.5-238.5-95.5zm-18.5-713h-111l873 1366h112zm730.5-25q-145.5 0-236.5 95.5t-91 239.5 92.5 241.5 236.5 97.5 236.5-97.5 92.5-241.5-92.5-239.5-238-95.5zm-712.5 840q90 0 149.5 66.5t59.5 166.5-58.5 167-149.5 67-148.5-66.5-57.5-166.5 57.5-167 147.5-67zm713-737q90 0 149.5 66.5t59.5 166.5-58.5 167-150.5 67-149.5-66.5-57.5-166.5 58.5-167 148.5-67z" glyph-name="percent" horiz-adv-x="1497" unicode="%"/><glyph d="M500-25q-186 0-306 99.5t-120 281.5q0 145 79.5 237.5t221.5 168.5q-205 351-55.5 487.5t290.5 136.5 227.5-70.5 86.5-206.5-86-207-131-97.5-132-71.5q66-90 158-194 74-88 162-183 90 133 147 312l134-58q-100-233-187-352 102-106 266-258h-213q-61 53-149 143-168-168-393-168zm-260 379q0-110 80.5-181t193.5-71q152 0 287 136-228 238-361 424-96-59-148-128.5t-52-179.5zm190 708q0-91 82-231 133 66 201.5 127.5t68.5 144.5-45 123-121 40-131-56.5-55-147.5z" glyph-name="ampersand" horiz-adv-x="1312" unicode="&"/><glyph d="M111 1298q0 34 26.5 61t65.5 27 66.5-27.5 27.5-66.5l-55-448h-76q-55 420-55 454z" glyph-name="quotesingle" horiz-adv-x="407" unicode="'"/><glyph d="M90 496q0 510 289 907l92-70q-109-215-161-405.5t-52-430 52-431 161-402.5l-92-72q-289 394-289 904z" glyph-name="parenleft" horiz-adv-x="507" unicode="("/><glyph d="M250 499q0 241-53.5 431t-161.5 403l92 70q291-395 291-907t-291-904l-92 72q109 211 162 402.5t53 432.5z" glyph-name="parenright" horiz-adv-x="507" unicode=")"/><glyph d="M395 797h-94l10 235-196-129-45 82 209 107-209 106 45 80 196-127-10 235h94l-12-235 197 127 47-80-209-106 209-107-47-82-197 129z" glyph-name="asterisk" horiz-adv-x="696" unicode="*"/><glyph d="M963 637h-394v-436h-116v436h-394v106h394v424h116v-424h394v-106z" glyph-name="plus" horiz-adv-x="1021" unicode="+"/><glyph d="M360 40q0-81-47-164t-120-136l-76 63q51 33 89 87.5t44 103.5q-8-4-40-4t-59.5 29.5-27.5 74.5 31.5 78 80.5 33 87-42 38-123z" glyph-name="comma" horiz-adv-x="471" unicode=","/><glyph d="M553 428h-492v135h492v-135z" glyph-name="hyphen" horiz-adv-x="614" unicode="-"/><glyph d="M235.5-20q-47.5 0-80 32.5t-32.5 79.5 32.5 80 80 33 80-33 32.5-80-32.5-79.5-80-32.5z" glyph-name="period" horiz-adv-x="471" unicode="."/><glyph d="M121-41h-121l485 1448h121z" glyph-name="slash" horiz-adv-x="606" unicode="/"/><glyph d="M626-25q-134 0-237.5 62.5t-164 167-90.5 225.5-30 252 30 252 90.5 224.5 164 165.5 237.5 62 238.5-62 165-165.5 90-224.5 29.5-252-29.5-252-90-225.5-165-167-238.5-62.5zm1 152q123 0 204.5 85t112.5 204 31 266-31 266-112.5 203-204.5 84-205-84-112.5-203-30.5-266 30.5-266 112.5-204 205-85z" glyph-name="zero" horiz-adv-x="1253" unicode="0"/><glyph d="M535 0h-170v1141l-220-232-102 105 342 352h150v-1366z" glyph-name="one" horiz-adv-x="694" unicode="1"/><glyph d="M109 1171q164 215 495 215 166 0 302-104t136-296-163.5-381-499.5-453h670v-152h-938v135q213 168 330.5 267.5t227 211 154.5 198.5 45 173q0 123-84 186.5t-200 63.5q-236 0-371-172z" glyph-name="two" horiz-adv-x="1204" unicode="2"/><glyph d="M545-25q-164 0-291 63.5t-195 162.5l101 106q61-82 161.5-131t234.5-49 219 68.5 85 189.5-91 180.5-231 59.5-159-2v155q23-2 151-2t218 57 90 167-87 172.5-219 62.5q-207 0-360-166l-94 107q174 211 467 210 203 0 333-97t130-267q0-135-90.5-216t-204.5-101q113-10 214-98.5t101-250.5-131-271.5-352-109.5z" glyph-name="three" horiz-adv-x="1140" unicode="3"/><glyph d="M885 0h-170v346h-649v141l585 879h234v-870h192v-150h-192v-346zm-170 496v712l-479-712h479z" glyph-name="four" horiz-adv-x="1142" unicode="4"/><glyph d="M616-25q-315 0-481 220l105 112q141-180 376-180 139 0 227.5 84t88.5 213-87 210-227 81q-184 0-315-129l-125 43v737h836v-152h-666v-475q124 123 312 123t315-117.5 127-320.5-137.5-326-348.5-123z" glyph-name="five" horiz-adv-x="1208" unicode="5"/><glyph d="M631-25q-137 0-241.5 57.5t-195 206.5-90.5 441q0 413 185.5 559.5t369.5 146.5q236 0 379-163l-86-127q-119 139-293 139-127 0-256-116t-129-421q0-35 2-53 51 82 159 147.5t229 65.5q195 0 320.5-113t125.5-311-131-328.5-348-130.5zm-13 152q154 0 237 89t83 216-88 203-208 76-212-56.5-149-148.5q14-152 98.5-265.5t238.5-113.5z" glyph-name="six" horiz-adv-x="1210" unicode="6"/><glyph d="M63 1214v152h932v-117l-559-1249h-188l551 1214h-736z" glyph-name="seven" horiz-adv-x="1054" unicode="7"/><glyph d="M596-25q-209 0-349.5 100.5t-140.5 270.5q0 129 93.5 223.5t232.5 135.5q-131 37-217 119.5t-86 207.5q0 172 139.5 263t327.5 91 328.5-91 140.5-263q0-125-86-208t-219-119q139-41 232-135.5t93-223.5q0-168-140-269.5t-349-101.5zm297 1035q0 102-85 163.5t-213 61.5-212-61.5-84-163.5q0-57 50-127.5t247-108.5q75 11 153 48.5t111 83.5 33 104zm-298-883q132 0 225 65.5t93 159.5-86.5 177.5-230.5 99.5q-143-16-231.5-99.5t-88.5-177.5 93.5-159.5 225.5-65.5z" glyph-name="eight" horiz-adv-x="1189" unicode="8"/><glyph d="M551-23q-236 0-379 164l86 127q119-139 293-139 131 0 258 115.5t127 419.5q0 37-2 55-51-82-157.5-147.5t-227.5-65.5q-195 0-322 114t-127 310 131 327.5 347 131.5q139 0 243.5-57.5t194.5-207 90-442.5q0-411-185.5-558t-369.5-147zm17 676q120 0 213 55.5t147 147.5q-12 152-96 266.5t-238 114.5-238-90-84-216 88-202 208-76z" glyph-name="nine" horiz-adv-x="1210" unicode="9"/><glyph d="M235.5 778q-47.5 0-80 33t-32.5 80 32.5 80 80 33 80-33 32.5-80-32.5-80-80-33zm0-798q-47.5 0-80 32.5t-32.5 79.5 32.5 80 80 33 80-33 32.5-80-32.5-79.5-80-32.5z" glyph-name="colon" horiz-adv-x="471" unicode=":"/><glyph d="M235.5 778q-45.5 0-79 34t-33.5 80 32.5 79 80 33 80-33 32.5-79-33.5-80-79-34zm124.5-735q0-82-47-165t-120-134l-76 61q49 33 88 88.5t45 104.5q-12-6-42-6t-57.5 29.5-27.5 75.5 31.5 79 80.5 33 87-42 38-124z" glyph-name="semicolon" horiz-adv-x="471" unicode=";"/><glyph d="M963 184l-904 447v108l904 449v-129l-773-375 773-373v-127z" glyph-name="less" horiz-adv-x="1021" unicode="<"/><glyph d="M963 827h-904v109h904v-109zm0-395h-904v107h904v-107z" glyph-name="equal" horiz-adv-x="1021" unicode="="/><glyph d="M963 631l-904-447v127l770 373-770 375v129l904-449v-108z" glyph-name="greater" horiz-adv-x="1021" unicode=">"/><glyph d="M336 545q0 61 27.5 112.5t74.5 89 158 120 111 170.5q0 89-62.5 143.5t-179.5 54.5q-199 0-326-168l-102 111q162 209 444 208 182 0 292-91t110-226q0-104-62.5-185t-136.5-124-136.5-102.5-62.5-121.5 56-104l-125-53q-80 68-80 166zm123-565q-45 0-79 32.5t-34 79.5 34 80 79 33 78.5-33 33.5-80-33.5-79.5-78.5-32.5z" glyph-name="question" horiz-adv-x="946" unicode="?"/><glyph d="M721-143q-279 0-464 185t-185 458q0 328 244.5 567.5t568.5 239.5q285 0 465-187.5t180-462.5q0-227-106.5-355t-247.5-128q-82 0-132.5 48t-54.5 118l-2 12q-55-78-142-128t-181-50q-141 0-227.5 92t-86.5 242q0 209 147.5 361.5t333.5 152.5q94 0 163-45t100-115l26 127h140l-117-555q-4-26-4-60t27.5-61.5 68.5-27.5q78 0 149.5 92t71.5 280q0 254-160.5 417t-418.5 163q-295 0-515.5-222t-220.5-511q0-248 167-414t421-166q199 0 381 115l37-53q-201-129-426-129zm-16 432q178 0 305 184l59 283q-20 59-74.5 105t-136.5 46q-150 0-256-119.5t-106-271.5q0-100 56.5-163.5t152.5-63.5z" glyph-name="at" horiz-adv-x="1603" unicode="@"/><glyph d="M1329 0h-194l-121 303h-680l-121-303h-195l549 1366h211zm-366 455l-289 735-291-735h580z" glyph-name="A" horiz-adv-x="1347" unicode="A"/><glyph d="M782 0h-622v1366h608q176 0 279.5-96t103.5-236-69.5-224.5-170.5-104.5q109-16 188-114.5t79-221.5q0-166-106-267.5t-290-101.5zm-43 774q113 0 174.5 61.5t61.5 158-62.5 158.5-173.5 62h-409v-440h409zm9-622q119 0 186 63.5t67 167.5-66.5 172-186.5 68h-418v-471h418z" glyph-name="B" horiz-adv-x="1288" unicode="B"/><glyph d="M818-25q-310 0-512 198t-202 509 202 509 501 198q328 0 518-271l-143-80q-59 88-159.5 143.5t-215.5 55.5q-225 0-375.5-156.5t-150.5-398.5 150.5-398.5 375.5-156.5q115 0 215 54.5t160 144.5l145-80q-199-271-509-271z" glyph-name="C" horiz-adv-x="1384" unicode="C"/><glyph d="M627 0h-467v1366h467q313 0 506.5-194.5t193.5-490.5-193.5-488.5-506.5-192.5zm0 152q242 0 383 151.5t141 379.5-139.5 379.5-384.5 151.5h-297v-1062h297z" glyph-name="D" horiz-adv-x="1433" unicode="D"/><glyph d="M1055 0h-895v1366h895v-152h-725v-440h710v-151h-710v-471h725v-152z" glyph-name="E" horiz-adv-x="1165" unicode="E"/><glyph d="M330 0h-170v1366h895v-152h-725v-440h710v-151h-710v-623z" glyph-name="F" horiz-adv-x="1126" unicode="F"/><glyph d="M822-27q-312 0-515 198t-203 511 203 510 513 197 517-256l-135-84q-66 86-171 137t-224 51q-225 0-375.5-156.5t-150.5-398.5 150.5-399.5 375.5-157.5q113 0 210 44t157 103v279h-469v151h638v-493q-209-236-521-236z" glyph-name="G" horiz-adv-x="1460" unicode="G"/><glyph d="M1298 0h-170v627h-798v-627h-170v1366h170v-588h798v588h170v-1366z" glyph-name="H" horiz-adv-x="1458" unicode="H"/><glyph d="M330 0h-170v1366h170v-1366z" glyph-name="I" horiz-adv-x="489" unicode="I"/><glyph d="M365-25q-207 0-342 158l88 129q113-135 248-135t209.5 79 74.5 208v952h170v-954q0-213-120.5-325t-327.5-112z" glyph-name="J" horiz-adv-x="972" unicode="J"/><glyph d="M330 0h-170v1366h170v-707l604 707h213l-569-649 618-717h-211l-518 614-137-155v-459z" glyph-name="K" horiz-adv-x="1230" unicode="K"/><glyph d="M965 0h-805v1366h170v-1214h635v-152z" glyph-name="L" horiz-adv-x="1044" unicode="L"/><glyph d="M1497 0h-170v1124l-465-1124h-69l-463 1124v-1124h-170v1366h243l424-1028 426 1028h244v-1366z" glyph-name="M" horiz-adv-x="1656" unicode="M"/><glyph d="M1290 0h-164l-796 1090v-1090h-170v1366h174l786-1067v1067h170v-1366z" glyph-name="N" horiz-adv-x="1449" unicode="N"/><glyph d="M781-25q-300 0-488.5 201t-188.5 506 188.5 506 488.5 201 489.5-201 189.5-506-189.5-506-489.5-201zm0 152q226 0 364.5 156.5t138.5 399.5-138 398.5-364 155.5-363.5-155.5-137.5-398.5 137-399.5 363-156.5z" glyph-name="O" horiz-adv-x="1566" unicode="O"/><glyph d="M330 0h-170v1366h549q199 0 313.5-119t114.5-293-116-292.5-312-118.5h-379v-543zm358 694q121 0 197 73t76 187.5-76 187-197 72.5h-358v-520h358z" glyph-name="P" horiz-adv-x="1202" unicode="P"/><glyph d="M782-25q-301 0-489.5 201t-188.5 506 188.5 506 488.5 201 489.5-201 189.5-506-188-504l131-139-119-102-133 141q-160-103-369-103zm0 152q145 0 260 70l-194 211 119 100 192-209q125 155 125 391t-138 391.5-364 155.5-363.5-155.5-137.5-398.5 137-399.5 364-156.5z" glyph-name="Q" horiz-adv-x="1566" unicode="Q"/><glyph d="M330 543v-543h-170v1366h549q190 0 309-112t119-294-102.5-286.5-252.5-116.5l369-557h-201l-348 543h-272zm358 149q121 0 197 74t76 188.5-76 187-197 72.5h-358v-522h358z" glyph-name="R" horiz-adv-x="1245" unicode="R"/><glyph d="M602-25q-332 0-524 218l100 129q174-195 430-195 166 0 244 70.5t78 153.5-45 132-116 77-157 50.5-173 50-157.5 66.5-115.5 110.5-45 170.5q0 168 133 273t336 105q305 0 485-190l-102-125q-150 164-395 164-123 0-202-60.5t-79-144.5 60.5-131 149.5-69.5 194.5-56.5 194.5-71.5 149.5-121.5 60.5-203q0-168-124-285t-380-117z" glyph-name="S" horiz-adv-x="1200" unicode="S"/><glyph d="M668 0h-170v1214h-432v152h1036v-152h-434v-1214z" glyph-name="T" horiz-adv-x="1167" unicode="T"/><glyph d="M716.5-25q-272.5 0-414.5 148.5t-142 406.5v836h170v-831q0-190 100-299t286.5-109 287 108.5 100.5 299.5v831h170v-834q0-260-142.5-408.5t-415-148.5z" glyph-name="U" horiz-adv-x="1433" unicode="U"/><glyph d="M778 0h-211l-549 1366h195l461-1180 461 1180h194z" glyph-name="V" horiz-adv-x="1347" unicode="V"/><glyph d="M1389 0h-185l-301 1102-301-1102h-184l-389 1366h188l303-1139 314 1139h141l313-1139 301 1139h189z" glyph-name="W" horiz-adv-x="1808" unicode="W"/><glyph d="M1309 0h-205l-436 582-437-582h-206l532 700-502 666h207l406-547 403 547h207l-500-664z" glyph-name="X" horiz-adv-x="1335" unicode="X"/><glyph d="M727 0h-170v578l-539 788h199l424-635 424 635h199l-537-788v-578z" glyph-name="Y" horiz-adv-x="1282" unicode="Y"/><glyph d="M1098 0h-1000v141l768 1073h-768v152h985v-141l-768-1073h783v-152z" glyph-name="Z" horiz-adv-x="1198" unicode="Z"/><glyph d="M463-389h-381v1778h381v-113h-262v-1552h262v-113z" glyph-name="bracketleft" horiz-adv-x="497" unicode="["/><glyph d="M485-41l-485 1448h121l485-1448h-121z" glyph-name="backslash" horiz-adv-x="606" unicode="\"/><glyph d="M416-389h-381v113h262v1552h-262v113h381v-1778z" glyph-name="bracketright" horiz-adv-x="497" unicode="]"/><glyph d="M846 682h-127l-277 571-276-571h-127l346 684h117z" glyph-name="asciicircum" horiz-adv-x="884" unicode="^"/><glyph d="M1161-195h-1167v113h1167v-113z" glyph-name="underscore" horiz-adv-x="1155" unicode="_"/><glyph d="M463 1139h-117l-346 295h160z" glyph-name="grave" horiz-adv-x="462" unicode="`"/><glyph d="M926 0h-154v113q-125-137-328-138-137 0-241.5 88.5t-104.5 242.5 103.5 238.5 242.5 84.5q211 0 328-135v178q0 98-69.5 153.5t-180.5 55.5q-174 0-303-138l-72 107q158 164 396 164 170 0 276.5-82t106.5-252v-680zm-426 86q184 0 272 123v186q-88 123-272 123-106 0-175-60.5t-69-155.5 69-155.5 175-60.5z" glyph-name="a" horiz-adv-x="1079" unicode="a"/><glyph d="M602 113q147 0 233.5 106.5t86.5 274.5-86 275.5-234 107.5q-88 0-171-46.5t-124-113.5v-449q41-66 124-110.5t171-44.5zm-295-113h-153v1366h153v-526q129 174 329 174t322.5-143 122.5-379-121.5-376.5-323.5-140.5-329 172v-147z" glyph-name="b" horiz-adv-x="1177" unicode="b"/><glyph d="M595-25q-224 0-361.5 148.5t-137.5 372 137.5 371 361.5 147.5 357-172l-102-94q-94 129-251 129t-250-106.5-93-274.5 93-275.5 249-107.5 252 129l102-95q-133-172-357-172z" glyph-name="c" horiz-adv-x="1013" unicode="c"/><glyph d="M1024 0h-154v147q-126-172-328-172t-324 140.5-122 377.5 122 379 323 142 329-174v526h154v-1366zm-451 113q90 0 172 45t125 110v449q-43 68-125.5 114t-171.5 46q-145 0-231-107.5t-86-275.5 86-274.5 231-106.5z" glyph-name="d" horiz-adv-x="1177" unicode="d"/><glyph d="M610-25q-232 0-373 144.5t-141 368.5 139.5 375 353.5 151 342-150.5 128-380.5v-39h-801q10-145 107-243.5t265-98.5 290 125l73-100q-151-152-383-152zm-24 912q-151 0-236.5-100.5t-91.5-229.5h649q-2 127-86 228.5t-235 101.5z" glyph-name="e" horiz-adv-x="1153" unicode="e"/><glyph d="M350 0h-153v854h-164v135h164v76q0 152 76.5 236.5t206.5 84.5 212-75l-63-101q-55 50-127 50t-112-50.5-40-144.5v-76h201v-135h-201v-854z" glyph-name="f" horiz-adv-x="579" unicode="f"/><glyph d="M551-401q-131 0-223 31.5t-176 115.5l77 115q113-135 322-135 137 0 227 72.5t90 224.5v141q-55-78-143-127t-188-49q-197 0-319 138t-122 373.5 122 375 322 139.5 328-174v149h154v-960q0-227-133-328.5t-338-101.5zm22 524q88 0 171 47t124 115v432q-41 68-122.5 114t-172.5 46q-147 0-232-104.5t-85-271.5 86-272.5 231-105.5z" glyph-name="g" horiz-adv-x="1175" unicode="g"/><glyph d="M823 651q-1 226-211 226-96 0-177-45.5t-128-108.5v-723h-153v1366h153v-520q57 68 153.5 118t201.5 50q315 0 315-316v-698h-154v651z" glyph-name="h" horiz-adv-x="1130" unicode="h"/><glyph d="M230 1130q-42 0-72.5 30t-30.5 73 30.5 73.5 72.5 30.5 73-30.5 31-73.5-31-73-73-30zm77-1130h-153v989h153v-989z" glyph-name="i" horiz-adv-x="460" unicode="i"/><glyph d="M230 1130q-42 0-72.5 30t-30.5 73 30.5 73.5 72.5 30.5 73-30.5 31-73.5-31-73-73-30zm-206-1531q-131 0-227 73l56 117q63-63 139-63t119 44 43 134v1085h153v-1085q0-145-76-225t-207-80z" glyph-name="j" horiz-adv-x="460" unicode="j"/><glyph d="M307 0h-153v1366h153v-903l520 526h195l-438-448 440-541h-197l-356 444-164-161v-283z" glyph-name="k" horiz-adv-x="1052" unicode="k"/><glyph d="M307 0h-153v1366h153v-1366z" glyph-name="l" horiz-adv-x="460" unicode="l"/><glyph d="M1501 0h-153v672q0 205-183 205-74 0-147.5-45.5t-114.5-106.5v-725h-153v672q0 205-183 205-72 0-144.5-45.5t-115.5-108.5v-723h-153v989h153v-143q37 57 129 112.5t196 55.5 171-51.5 90-133.5q45 74 137 129.5t195 55.5q276 0 276-299v-715z" glyph-name="m" horiz-adv-x="1654" unicode="m"/><glyph d="M821 647q-1 230-211 230-96 0-177-45.5t-126-108.5v-723h-153v989h153v-143q57 68 153.5 118t198.5 50q315 0 316-320v-694h-154v647z" glyph-name="n" horiz-adv-x="1128" unicode="n"/><glyph d="M586-25q-221 0-355.5 149.5t-134.5 371 134.5 370 355.5 148.5 355-148.5 134-370-134-371-355-149.5zm-.5 138q151.5 0 239.5 111.5t88 271-88 270.5-239.5 111-240.5-112.5-89-270.5 89-269.5 240.5-111.5z" glyph-name="o" unicode="o"/><glyph d="M635-25q-203 0-328 175v-527h-153v1366h153v-147q55 78 143.5 125t190.5 47q197 0 318.5-140.5t121.5-378-121.5-379-324.5-141.5zm-33 138q145 0 231.5 107.5t86.5 275.5-86 274.5-232 106.5q-88 0-171-46.5t-124-111.5v-447q41-68 124-113.5t171-45.5z" glyph-name="p" unicode="p"/><glyph d="M567 113q90 0 173 46t122 113v447q-39 66-122 112t-173 46q-145 0-230-106.5t-85-274.5 85-275.5 230-107.5zm-32-138q-202 0-323.5 141.5t-121.5 379 122 378 318 140.5q102 0 190.5-47t141.5-125v147h154v-1366h-154v527q-125-175-327-175z" glyph-name="q" unicode="q"/><glyph d="M307 0h-153v989h153v-160q137 180 330 181v-158q-27 6-79 6t-134-49-117-109v-700z" glyph-name="r" horiz-adv-x="675" unicode="r"/><glyph d="M467-25q-252 0-399 156l79 111q51-59 140-100.5t193-41.5 165.5 48 61.5 118-63.5 108-153 57.5-179.5 45-153.5 87.5-63.5 174 99.5 194 269.5 82q223 0 366-144l-71-106q-104 125-295 125-100 0-159.5-43.5t-59.5-107.5 63.5-98 153.5-53.5 179-46 152.5-93 63.5-185.5-102.5-203-286.5-84z" glyph-name="s" horiz-adv-x="952" unicode="s"/><glyph d="M338 240q0-127 110-127 58 0 95 41l45-115q-68-64-185-64-219 0-219 232v647h-164v135h164v271h154v-271h201v-135h-201v-614z" glyph-name="t" horiz-adv-x="602" unicode="t"/><glyph d="M307 338q0-225 210-225 97 0 178 43t126 106v727h154v-989h-154v139q-61-70-154.5-117t-197.5-47q-315 0-315 316v698h153v-651z" glyph-name="u" horiz-adv-x="1128" unicode="u"/><glyph d="M586 0h-168l-412 989h166l330-811 327 811h168z" glyph-name="v" horiz-adv-x="1003" unicode="v"/><glyph d="M1163 0h-153l-258 795-258-795h-154l-315 989h159l242-788 260 788h131l260-788 242 788h160z" glyph-name="w" horiz-adv-x="1503" unicode="w"/><glyph d="M973 0h-178l-297 406-297-406h-176l378 508-358 481h178l275-377 274 377h178l-358-481z" glyph-name="x" horiz-adv-x="995" unicode="x"/><glyph d="M210-264q50 0 85 22.5t59 81.5l66 150-414 999h166l330-811 327 811h168l-495-1190q-82-197-291-200-64 0-113 14l25 139q37-16 87-16z" glyph-name="y" horiz-adv-x="1003" unicode="y"/><glyph d="M860 0h-754v119l545 735h-545v135h746v-117l-549-739h557v-133z" glyph-name="z" horiz-adv-x="966" unicode="z"/><glyph d="M498-389h-125q-102 0-179 76.5t-77 197.5v422q0 61-28 101.5t-79 40.5v102q51 0 79 40t28 101v420q0 123 76.5 200t179.5 77h125v-113h-125q-55 0-95-46t-40-118v-432q0-139-95-180 94-41 95-181v-432q0-70 39.5-116.5t95.5-46.5h125v-113z" glyph-name="braceleft" horiz-adv-x="532" unicode="{"/><glyph d="M272-41h-112v1448h112v-1448z" glyph-name="bar" horiz-adv-x="432" unicode="|"/><glyph d="M35-389v113h125q55 0 95 47t40 116v432q0 139 94 181-94 41-94 180v432q0 72-40 118t-95 46h-125v113h125q102 0 179-77t77-200v-420q0-61 27.5-101t78.5-40v-102q-51 0-78.5-40t-27.5-102v-422q0-121-77-197.5t-179-76.5h-125z" glyph-name="braceright" horiz-adv-x="532" unicode="}"/><glyph d="M691 866q-73 0-120 40t-70.5 97.5-56.5 154.5-106 97q-129 0-168-391l-115 15q35 355 123 420t160 65 120-40 71.5-98.5 55-155.5 105.5-97q133 0 168 393l115-14q-34-358-121.5-422t-160.5-64z" glyph-name="asciitilde" horiz-adv-x="1030" unicode="~"/><glyph glyph-name="uni00A0" horiz-adv-x="528"/><glyph d="M141-377l31 983h127l33-983h-191zm-18 1274q0 45 33.5 79t79 34 79-34 33.5-79-32.5-79-80-34-80 34-32.5 79z" glyph-name="exclamdown" horiz-adv-x="471" unicode="¡"/><glyph d="M516-205v187q-188 25-304 167t-116 345 116 345 304 169v149h121v-145q193-16 315-170l-102-94q-82 111-213 126v-759q129 12 213 127l102-95q-119-154-315-170v-182h-121zm-260 700q0-142 69.5-245t190.5-129v745q-121-27-190.5-128t-69.5-243z" glyph-name="cent" horiz-adv-x="1013" unicode="¢"/><glyph d="M39 549v110h217q-57 66-78.5 93.5t-50.5 94-29 136.5q0 168 135.5 285.5t323.5 117.5q139 0 247.5-60t166.5-169l-137-82q-29 70-99.5 119t-176.5 49-191.5-71.5-85.5-179.5 35.5-162 76.5-104 53-67h308v-110h-250q14-47 14-88 0-160-156-271 51 18 113 18t151-41.5 149-41.5 113.5 25.5 78.5 56.5l73-137q-100-96-276-97-96 0-194.5 47.5t-178.5 47.5-235-82l-62 127q131 59 202 140t71 157-31 139h-297z" glyph-name="sterling" horiz-adv-x="1060" unicode="£"/><glyph d="M611 190q-175 0-304 97l-153-156-97 92 158 158q-92 131-92 304t94 298l-162 162 97 94 159-162q127 94 302 94t298-94l160 160 94-94-159-160q96-129 96-300t-94-304l157-156-94-92-158 154q-127-95-302-95zm1.5 140q153.5 0 242.5 103.5t89 248.5-89 246.5-242.5 101.5-242.5-102.5-89-246.5 89-247.5 242.5-103.5z" glyph-name="currency" horiz-adv-x="1224" unicode="¤"/><glyph d="M727 0h-170v250h-512v108h512v220h-512v106h438l-465 682h199l424-635 424 635h199l-465-682h440v-106h-512v-220h512v-108h-512v-250z" glyph-name="yen" horiz-adv-x="1282" unicode="¥"/><glyph d="M272-41h-112v647h112v-647zm0 801h-112v647h112v-647z" glyph-name="brokenbar" horiz-adv-x="432" unicode="¦"/><glyph d="M856 645q0-178-188-262 188-72 188-248 0-141-106.5-221t-282.5-80q-233 0-397 160l77 100q123-147 320-147 109 0 174.5 47t65.5 124-63.5 116.5-153 61-179.5 47.5-153.5 88.5-63.5 163.5 66.5 167.5 169.5 93.5q-236 74-236 252 0 119 99.5 198.5t269.5 79.5q240 0 364-145l-69-92q-102 123-291 123-98 0-160.5-45t-62.5-113 63.5-104.5 153.5-55 179-45 152.5-92.5 63.5-172zm-383 168q-229-59-229-193 0-62 45-100.5t105-58 141-37.5q170 74 170 201 0 80-62.5 120.5t-169.5 67.5z" glyph-name="section" horiz-adv-x="958" unicode="§"/><glyph d="M586 1237q0-39-29-67.5t-67.5-28.5-67.5 28.5-29 67.5 29 66.5 67.5 27.5 67.5-27.5 29-66.5zm-424 0q0-39-28-67.5t-66.5-28.5-67.5 27.5-29 67.5 29 67.5 67.5 27.5 66.5-27.5 28-66.5z" glyph-name="dieresis" horiz-adv-x="557" unicode="¨"/><glyph d="M1503 684q0-293-206.5-500t-499.5-207-500 208-207 500 207 499 500 207 499.5-207 206.5-500zm-63 0q0 266-188.5 454.5t-455 188.5-454.5-188.5-188-454.5 188-454.5 454.5-188.5 455 188.5 188.5 454.5zm-636-436q-181 0-305 126t-124 312 124 311 305 125 296-135l-51-49q-39 53-108 85t-140 32q-143 0-246.5-103.5t-103.5-263.5 104-266.5 246-106.5q74 0 140.5 33t107.5 86l53-51q-117-135-298-135z" glyph-name="copyright" horiz-adv-x="1593" unicode="©"/><glyph d="M649 668h-117v71q-82-88-219-88-90 0-159.5 57.5t-69.5 156.5 68.5 154.5 160.5 55.5q137 0 219-86v113q0 61-47 97t-114 36q-121 0-203-94l-51 76q109 111 268 110 117 0 190.5-55t73.5-172v-432zm-291 61q117 0 174 78v115q-57 78-174 77-68 0-111.5-37.5t-43.5-97.5 43.5-97.5 111.5-37.5z" glyph-name="ordfeminine" horiz-adv-x="774" unicode="ª"/><glyph d="M838 129h-154l-328 369 328 362h154l-328-362zm-295 0h-154l-328 369 328 362h154l-328-362z" glyph-name="guillemotleft" horiz-adv-x="899" unicode="«"/><glyph d="M963 936v-504h-113v395h-791v109h904z" glyph-name="logicalnot" horiz-adv-x="1032" unicode="¬"/><glyph d="M553 428h-492v135h492v-135z" glyph-name="uni00AD" horiz-adv-x="614" unicode="­"/><glyph d="M940 953q0-181-127-308t-307-127-307 127-127 307.5 127 307 308 126.5 307-126 126-307zm-59-.5q0 155.5-109.5 265t-266.5 109.5-266.5-109.5-109.5-265 110.5-266.5 266.5-111 265.5 111 109.5 266.5zm-475-53.5v-197h-66v498h203q66 0 111.5-42t45.5-112-46-107.5-81-37.5l134-199h-82l-129 197h-90zm227 151q0 38-27.5 65.5t-62.5 27.5h-137v-185h137q33 0 61.5 27t28.5 65z" glyph-name="registered" horiz-adv-x="1011" unicode="®"/><glyph d="M743 1171h-743v99h743v-99z" glyph-name="macron" horiz-adv-x="743" unicode="¯"/><glyph d="M547 1136q0-103-74-176t-177-73-176 72.5-73 176.5 73 177 176 73 177-73.5 74-176.5zm-98 0q0 62-45.5 107t-107.5 45-105.5-45-43.5-107 43.5-106.5 105.5-44.5 107.5 44.5 45.5 106.5z" glyph-name="degree" horiz-adv-x="593" unicode="°"/><glyph d="M963 664h-394v-439h-116v439h-394v106h394v424h116v-424h394v-106zm0-664h-904v106h904v-106z" glyph-name="plusminus" horiz-adv-x="1021" unicode="±"/><glyph d="M698 862h-596v92q254 180 361.5 288t107.5 192-51 121.5-123 37.5q-150 0-229-106l-68 78q102 129 301 129 123 0 208-62.5t85-178.5-102.5-229.5-308.5-260.5h415v-101z" glyph-name="uni00B2" horiz-adv-x="794" unicode="²"/><glyph d="M702 1077q0-98-83.5-163.5t-225.5-65.5q-211 0-307 133l66 78q90-111 237-111 88 0 139.5 39t51.5 105q0 141-213 141-70 0-82-2v102q14-2 80-2 201 0 200 131 0 61-52 96t-130 35q-131 0-223-100l-64 74q113 127 297 127 131 0 213-59.5t82-150.5-55-139.5-127-60.5q70-6 133-57.5t63-149.5z" glyph-name="uni00B3" horiz-adv-x="794" unicode="³"/><glyph d="M463 1434l-346-295h-117l303 295h160z" glyph-name="acute" horiz-adv-x="462" unicode="´"/><glyph d="M307-377h-153v1366h153v-651q0-229 225-229 84 0 164 45t125 108v727h154v-758q0-119 96-118 23 0 39 4l12-133q-45-8-82-9-180 0-213 177-55-76-139-126.5t-174-50.5q-154 1-207 99v-451z" glyph-name="uni00B5" horiz-adv-x="1157" unicode="µ"/><glyph d="M774-205h-92v1479h-182v-1479h-92v867q-145 0-249 103t-104 248.5 103.5 249 249.5 103.5h366v-1571z" glyph-name="paragraph" horiz-adv-x="919" unicode="¶"/><glyph d="M348 500q0-45-33.5-78t-79-33-79 33-33.5 78 32.5 78.5 80 33.5 80-33.5 32.5-78.5z" glyph-name="periodcentered" horiz-adv-x="471" unicode="·"/><glyph d="M188-391q-110 0-188 61l39 78q72-59 164-59 51 0 88 23.5t37 62.5q0 72-76 71-47 0-78-34l-68 38 64 173h92l-53-136q33 23 84 23t89-38 38-106-61-112.5-171-44.5z" glyph-name="cedilla" horiz-adv-x="419" unicode="¸"/><glyph d="M358 862h-122v660l-136-142-71 76 221 225h108v-819z" glyph-name="uni00B9" horiz-adv-x="481" unicode="¹"/><glyph d="M415 651q-151 0-242 97.5t-91 241 91 240.5 242 97 242-97 91-240.5-91-241-242-97.5zm0 99q97 0 154.5 67.5t57.5 170.5-57.5 170-154.5 67-153.5-66.5-56.5-170.5 56.5-171 153.5-67z" glyph-name="ordmasculine" horiz-adv-x="829" unicode="º"/><glyph d="M543 498l-328-369h-154l328 369-328 362h154zm295 0l-328-369h-154l328 369-328 362h154z" glyph-name="guillemotright" horiz-adv-x="899" unicode="»"/><glyph d="M358 547h-122v659l-136-141-71 76 221 225h108v-819zm1143-342h-119v-205h-120v205h-402v90l352 524h170v-514h119v-100zm-239 100v406l-279-406h279zm-54 1061l-874-1366h-113l873 1366h114z" glyph-name="onequarter" horiz-adv-x="1576" unicode="¼"/><glyph d="M358 547h-122v659l-136-141-71 76 221 225h108v-819zm1196-547h-596v92q254 180 361.5 288t107.5 192-51 121.5-123 37.5q-150 0-229-106l-68 77q100 129 301 129 123 0 208-62t85-178-102-229.5-309-261.5h415v-100zm-346 1366l-874-1366h-113l873 1366h114z" glyph-name="onehalf" horiz-adv-x="1652" unicode="½"/><glyph d="M1724 205h-118v-205h-121v205h-402v90l353 524h170v-514h118v-100zm-239 100v406l-279-406h279zm-55 1061l-875-1366h-113l873 1366h115zm-728-604q0-98-83.5-164t-225.5-66q-211 0-307 134l66 77q90-111 237-110 88 0 139.5 39t51.5 104q0 141-213 142-70 0-82-3v103q14-2 80-2 201 0 200 131 0 61-52 96t-130 35q-131 0-223-100l-64 73q113 127 297 127 131 0 213-59t82-151-55-139.5-127-59.5q70-6 133-57.5t63-149.5z" glyph-name="threequarters" horiz-adv-x="1798" unicode="¾"/><glyph d="M608 450q0-84-38-141t-92-97-146-102.5-92-170.5q0-80 62.5-134.5t176.5-54.5q203 0 328 166l100-109q-160-209-442-208-182 0-292 91t-110 226q0 86 41 154.5t99.5 111.5 157 110 98.5 161q0 59-53 98l122 55q80-72 80-156zm-121 560q45 0 79-34t34-80-34-79-79-33-78.5 33-33.5 79 33.5 80 78.5 34z" glyph-name="questiondown" horiz-adv-x="806" unicode="¿"/><glyph d="M1329 0h-194l-121 303h-680l-121-303h-195l549 1366h211zm-366 455l-289 735-291-735h580zm-172 1026h-117l-346 295h159z" glyph-name="Agrave" horiz-adv-x="1347" unicode="À"/><glyph d="M1329 0h-194l-121 303h-680l-121-303h-195l549 1366h211zm-366 455l-289 735-291-735h580zm57 1321l-346-295h-117l303 295h160z" glyph-name="Aacute" horiz-adv-x="1347" unicode="Á"/><glyph d="M948 1481h-104l-170 217-164-217h-104l194 295h148zm381-1481h-194l-121 303h-680l-121-303h-195l549 1366h211zm-366 455l-289 735-291-735h580z" glyph-name="Acircumflex" horiz-adv-x="1347" unicode="Â"/><glyph d="M1329 0h-194l-121 303h-680l-121-303h-195l549 1366h211zm-366 455l-289 735-291-735h580zm-166 1022q-51 0-89 29.5t-72 94-84 64.5q-106 0-106-176h-92q0 123 52.5 198.5t146.5 75.5q49 0 87-29.5t74-94 85-64.5q104 0 104 176h92q0-123-52-198.5t-146-75.5z" glyph-name="Atilde" horiz-adv-x="1347" unicode="Ã"/><glyph d="M983 1579q0-39-28.5-67.5t-67.5-28.5-67.5 28.5-28.5 67.5 28.5 66.5 67.5 27.5 67.5-27.5 28.5-66.5zm-424 0q0-39-27.5-67.5t-66.5-28.5-67.5 28.5-28.5 67.5 28.5 66.5 67.5 27.5 66.5-27.5 27.5-66.5zm770-1579h-194l-121 303h-680l-121-303h-195l549 1366h211zm-366 455l-289 735-291-735h580z" glyph-name="Adieresis" horiz-adv-x="1347" unicode="Ä"/><glyph d="M1329 0h-194l-121 303h-680l-121-303h-195l549 1366h211zm-366 455l-289 735-291-735h580zm-289 958q-84 0-142.5 59.5t-58.5 142.5 59.5 142.5 141.5 59.5 141-59.5 59-142.5-58-142.5-142-59.5zm0 80q49 0 84 36t35 86-34 85-84 35-85-35-35-85 35-86 84-36z" glyph-name="Aring" horiz-adv-x="1347" unicode="Å"/><glyph d="M1829 0h-895v303h-539l-186-303h-195l852 1366h963v-152h-725v-440h711v-151h-711v-471h725v-152zm-895 455v735l-455-735h455z" glyph-name="AE" horiz-adv-x="1939" unicode="Æ"/><glyph d="M774-383q-110 0-186 61l39 78q72-59 164-59 51 0 87.5 23.5t36.5 62.5q0 72-75 72-47 0-78-35l-68 39 43 121q-274 23-453.5 216t-179.5 495 202 500 501 198q328 0 518-271l-143-80q-59 88-159.5 143.5t-215.5 55.5q-225 0-375.5-156.5t-150.5-398.5 150.5-398.5 375.5-156.5q115 0 215 54.5t160 144.5l145-80q-195-262-500-271l-30-79q33 22 83 22t89-38 39-106-62-112.5-172-44.5z" glyph-name="Ccedilla" horiz-adv-x="1384" unicode="Ç"/><glyph d="M1055 0h-895v1366h895v-152h-725v-440h710v-151h-710v-471h725v-152zm-332 1481h-117l-346 295h160z" glyph-name="Egrave" horiz-adv-x="1165" unicode="È"/><glyph d="M952 1776l-346-295h-117l304 295h159zm103-1776h-895v1366h895v-152h-725v-440h710v-151h-710v-471h725v-152z" glyph-name="Eacute" horiz-adv-x="1165" unicode="É"/><glyph d="M877 1481h-105l-170 217-164-217h-104l194 295h148zm178-1481h-895v1366h895v-152h-725v-440h710v-151h-710v-471h725v-152z" glyph-name="Ecircumflex" horiz-adv-x="1165" unicode="Ê"/><glyph d="M913 1579q0-39-28.5-67.5t-67.5-28.5-67.5 28.5-28.5 67.5 28.5 66.5 67.5 27.5 67.5-27.5 28.5-66.5zm-424 0q0-39-27.5-67.5t-66.5-28.5-67.5 28.5-28.5 67.5 28.5 66.5 67.5 27.5 66.5-27.5 27.5-66.5zm566-1579h-895v1366h895v-152h-725v-440h710v-151h-710v-471h725v-152z" glyph-name="Edieresis" horiz-adv-x="1165" unicode="Ë"/><glyph d="M330 0h-170v1366h170v-1366zm30 1481h-116l-346 295h159z" glyph-name="Igrave" horiz-adv-x="489" unicode="Ì"/><glyph d="M330 0h-170v1366h170v-1366zm262 1776l-346-295h-117l303 295h160z" glyph-name="Iacute" horiz-adv-x="489" unicode="Í"/><glyph d="M518 1481h-104l-170 217-164-217h-105l195 295h147zm-188-1481h-170v1366h170v-1366z" glyph-name="Icircumflex" horiz-adv-x="489" unicode="Î"/><glyph d="M553 1579q0-39-28.5-67.5t-67.5-28.5-68 28.5-29 67.5 29 66.5 68 27.5 67.5-27.5 28.5-66.5zm-424 0q0-39-27.5-67.5t-66.5-28.5-67.5 28.5-28.5 67.5 28.5 66.5 67.5 27.5 66.5-27.5 27.5-66.5zm201-1579h-170v1366h170v-1366z" glyph-name="Idieresis" horiz-adv-x="489" unicode="Ï"/><glyph d="M684 0h-467v612h-197v125h197v629h467q313 0 506.5-194.5t193.5-490.5-193.5-488.5-506.5-192.5zm0 152q242 0 383 151.5t141 379.5-139 379.5-385 151.5h-297v-477h346v-125h-346v-460h297z" glyph-name="Eth" horiz-adv-x="1490" unicode="Ð"/><glyph d="M844 1477q-51 0-89 29.5t-72 94-84 64.5q-105 0-105-176h-93q0 123 52.5 198.5t146.5 75.5q49 0 87-29.5t74-94 85-64.5q104 0 104 176h92q0-123-52-198.5t-146-75.5zm446-1477h-164l-796 1090v-1090h-170v1366h174l786-1067v1067h170v-1366z" glyph-name="Ntilde" horiz-adv-x="1449" unicode="Ñ"/><glyph d="M901 1481h-117l-346 295h160zm-120-1506q-300 0-488.5 201t-188.5 506 188.5 506 488.5 201 489.5-201 189.5-506-189.5-506-489.5-201zm0 152q226 0 364.5 156.5t138.5 399.5-138 398.5-364 155.5-363.5-155.5-137.5-398.5 137-399.5 363-156.5z" glyph-name="Ograve" horiz-adv-x="1566" unicode="Ò"/><glyph d="M1130 1776l-346-295h-116l303 295h159zm-349-1801q-300 0-488.5 201t-188.5 506 188.5 506 488.5 201 489.5-201 189.5-506-189.5-506-489.5-201zm0 152q226 0 364.5 156.5t138.5 399.5-138 398.5-364 155.5-363.5-155.5-137.5-398.5 137-399.5 363-156.5z" glyph-name="Oacute" horiz-adv-x="1566" unicode="Ó"/><glyph d="M1059 1481h-105l-170 217-163-217h-105l195 295h147zm-278-1506q-300 0-488.5 201t-188.5 506 188.5 506 488.5 201 489.5-201 189.5-506-189.5-506-489.5-201zm0 152q226 0 364.5 156.5t138.5 399.5-138 398.5-364 155.5-363.5-155.5-137.5-398.5 137-399.5 363-156.5z" glyph-name="Ocircumflex" horiz-adv-x="1566" unicode="Ô"/><glyph d="M781-25q-300 0-488.5 201t-188.5 506 188.5 506 488.5 201 489.5-201 189.5-506-189.5-506-489.5-201zm0 152q226 0 364.5 156.5t138.5 399.5-138 398.5-364 155.5-363.5-155.5-137.5-398.5 137-399.5 363-156.5zm124 1350q-51 0-89 29.5t-72 94-84 64.5q-105 0-105-176h-92q0 123 52 198.5t147 75.5q49 0 86.5-29.5t73.5-94 85-64.5 77 44 28 132h92q0-123-52.5-198.5t-146.5-75.5z" glyph-name="Otilde" horiz-adv-x="1566" unicode="Õ"/><glyph d="M1090 1579q0-39-29-67.5t-68-28.5-67.5 28.5-28.5 67.5 28.5 66.5 67.5 27.5 68-27.5 29-66.5zm-424 0q0-39-28-67.5t-67-28.5-67.5 28.5-28.5 67.5 28.5 66.5 67.5 27.5 67-27.5 28-66.5zm115-1604q-300 0-488.5 201t-188.5 506 188.5 506 488.5 201 489.5-201 189.5-506-189.5-506-489.5-201zm0 152q226 0 364.5 156.5t138.5 399.5-138 398.5-364 155.5-363.5-155.5-137.5-398.5 137-399.5 363-156.5z" glyph-name="Odieresis" horiz-adv-x="1566" unicode="Ö"/><glyph d="M815 303l-305 305-303-305-76 76 303 305-303 303 76 78 303-305 305 305 76-78-303-303 303-305z" glyph-name="multiply" horiz-adv-x="1021" unicode="×"/><glyph d="M782-25q-199 0-354 93l-45-68h-135l90 133q-233 201-234 549 0 305 188.5 506t489.5 201q188 0 342-86l43 63h136l-86-127q117-96 180-240.5t63-316.5q0-305-189.5-506t-488.5-201zm0 152q225 0 363.5 156.5t138.5 410.5-160 408l-608-903q112-72 266-72zm-501 548q0-251 149-405l606 901q-115 66-254 66-227 0-364-155.5t-137-406.5z" glyph-name="Oslash" horiz-adv-x="1566" unicode="Ø"/><glyph d="M716.5-25q-272.5 0-414.5 148.5t-142 406.5v836h170v-831q0-190 100-299t286.5-109 287 108.5 100.5 299.5v831h170v-834q0-260-142.5-408.5t-415-148.5zm117.5 1506h-117l-346 295h159z" glyph-name="Ugrave" horiz-adv-x="1433" unicode="Ù"/><glyph d="M1063 1776l-346-295h-117l303 295h160zm-346.5-1801q-272.5 0-414.5 148.5t-142 406.5v836h170v-831q0-190 100-299t286.5-109 287 108.5 100.5 299.5v831h170v-834q0-260-142.5-408.5t-415-148.5z" glyph-name="Uacute" horiz-adv-x="1433" unicode="Ú"/><glyph d="M993 1481h-104l-170 217-164-217h-104l194 295h148zm-276.5-1506q-272.5 0-414.5 148.5t-142 406.5v836h170v-831q0-190 100-299t286.5-109 287 108.5 100.5 299.5v831h170v-834q0-260-142.5-408.5t-415-148.5z" glyph-name="Ucircumflex" horiz-adv-x="1433" unicode="Û"/><glyph d="M1026 1579q0-39-28.5-67.5t-67.5-28.5-67.5 28.5-28.5 67.5 28.5 66.5 67.5 27.5 67.5-27.5 28.5-66.5zm-424 0q0-39-27.5-67.5t-67.5-28.5-67.5 28.5-27.5 67.5 28.5 66.5 67.5 27.5 66.5-27.5 27.5-66.5zm114.5-1604q-272.5 0-414.5 148.5t-142 406.5v836h170v-831q0-190 100-299t286.5-109 287 108.5 100.5 299.5v831h170v-834q0-260-142.5-408.5t-415-148.5z" glyph-name="Udieresis" horiz-adv-x="1433" unicode="Ü"/><glyph d="M727 0h-170v578l-539 788h199l424-635 424 635h199l-537-788v-578zm260 1776l-346-295h-117l303 295h160z" glyph-name="Yacute" horiz-adv-x="1282" unicode="Ý"/><glyph d="M330 0h-170v1366h170v-244h379q199 0 313.5-118.5t114.5-293.5-116-293-312-118h-379v-299zm358 451q121 0 197 71.5t76 186-76 188.5-197 74h-358v-520h358z" glyph-name="Thorn" horiz-adv-x="1202" unicode="Þ"/><glyph d="M1184 266q0-116-99.5-203.5t-281.5-87.5q-135 0-220 41t-161 119l78 107q47-61 126.5-101.5t183.5-40.5 164 51 60 119-60.5 106-146.5 58.5-173 46-147.5 88-60.5 149.5 47.5 146.5 149.5 116 102 126.5q0 69-61 105.5t-151 36.5-158-62.5-68-164.5v-1022h-153v1022q0 154 107 259t269 105 267.5-70.5 105.5-187.5q0-76-48-133t-105.5-86.5-105.5-76-48-102.5 60.5-90 147.5-52.5 173-45 146.5-93.5 60.5-183z" glyph-name="germandbls" horiz-adv-x="1222" unicode="ß"/><glyph d="M926 0h-154v113q-125-137-328-138-137 0-241.5 88.5t-104.5 242.5 103.5 238.5 242.5 84.5q211 0 328-135v178q0 98-69.5 153.5t-180.5 55.5q-174 0-303-138l-72 107q158 164 396 164 170 0 276.5-82t106.5-252v-680zm-426 86q184 0 272 123v186q-88 123-272 123-106 0-175-60.5t-69-155.5 69-155.5 175-60.5zm159 1053h-116l-346 295h159z" glyph-name="agrave" horiz-adv-x="1079" unicode="à"/><glyph d="M926 0h-154v113q-125-137-328-138-137 0-241.5 88.5t-104.5 242.5 103.5 238.5 242.5 84.5q211 0 328-135v178q0 98-69.5 153.5t-180.5 55.5q-174 0-303-138l-72 107q158 164 396 164 170 0 276.5-82t106.5-252v-680zm-426 86q184 0 272 123v186q-88 123-272 123-106 0-175-60.5t-69-155.5 69-155.5 175-60.5zm389 1348l-346-295h-117l303 295h160z" glyph-name="aacute" horiz-adv-x="1079" unicode="á"/><glyph d="M926 0h-154v113q-125-137-328-138-137 0-241.5 88.5t-104.5 242.5 103.5 238.5 242.5 84.5q211 0 328-135v178q0 98-69.5 153.5t-180.5 55.5q-174 0-303-138l-72 107q158 164 396 164 170 0 276.5-82t106.5-252v-680zm-426 86q184 0 272 123v186q-88 123-272 123-106 0-175-60.5t-69-155.5 69-155.5 175-60.5zm315 1053h-104l-170 217-164-217h-105l195 295h147z" glyph-name="acircumflex" horiz-adv-x="1079" unicode="â"/><glyph d="M926 0h-154v113q-125-137-328-138-137 0-241.5 88.5t-104.5 242.5 103.5 238.5 242.5 84.5q211 0 328-135v178q0 98-69.5 153.5t-180.5 55.5q-174 0-303-138l-72 107q158 164 396 164 170 0 276.5-82t106.5-252v-680zm-426 86q184 0 272 123v186q-88 123-272 123-106 0-175-60.5t-69-155.5 69-155.5 175-60.5zm166 1049q-51 0-89 29.5t-72 94-84 64.5q-106 0-106-176h-92q0 123 52.5 198.5t146.5 75.5q49 0 87-29.5t74-94 85-64.5q104 0 104 176h92q0-123-52-198.5t-146-75.5z" glyph-name="atilde" horiz-adv-x="1079" unicode="ã"/><glyph d="M926 0h-154v113q-125-137-328-138-137 0-241.5 88.5t-104.5 242.5 103.5 238.5 242.5 84.5q211 0 328-135v178q0 98-69.5 153.5t-180.5 55.5q-174 0-303-138l-72 107q158 164 396 164 170 0 276.5-82t106.5-252v-680zm-426 86q184 0 272 123v186q-88 123-272 123-106 0-175-60.5t-69-155.5 69-155.5 175-60.5zm350 1151q0-39-28.5-67.5t-67.5-28.5-68 28.5-29 67.5 29 66.5 68 27.5 67.5-27.5 28.5-66.5zm-424 0q0-39-27.5-67.5t-67.5-28.5-67.5 27.5-27.5 67.5 28.5 67.5 67.5 27.5 66.5-27.5 27.5-66.5z" glyph-name="adieresis" horiz-adv-x="1079" unicode="ä"/><glyph d="M926 0h-154v113q-125-137-328-138-137 0-241.5 88.5t-104.5 242.5 103.5 238.5 242.5 84.5q211 0 328-135v178q0 98-69.5 153.5t-180.5 55.5q-174 0-303-138l-72 107q158 164 396 164 170 0 276.5-82t106.5-252v-680zm-426 86q184 0 272 123v186q-88 123-272 123-106 0-175-60.5t-69-155.5 69-155.5 175-60.5zm43 1026q-84 0-142.5 58.5t-58.5 142.5 59.5 143.5 141.5 59.5 141-59.5 59-143.5-58-142.5-142-58.5zm0 80q49 0 84 36t35 86-34 85-84 35-85-35-35-85 35-86 84-36z" glyph-name="aring" horiz-adv-x="1079" unicode="å"/><glyph d="M1726 444h-751q10-145 98-241.5t246-96.5 270 125l74-104q-147-152-365-152-279 0-395 238-53-106-162-172t-261-66-267 87.5-115 241 105.5 239.5 259.5 86q229 0 358-131v176q0 96-74.5 151.5t-197.5 55.5q-193 0-330-138l-72 107q162 164 420 164 131 0 227.5-53.5t123.5-161.5q123 215 366 215 207 0 324.5-149.5t117.5-381.5v-39zm-446 443q-141 0-220-101.5t-85-228.5h600q-2 129-78 229.5t-217 100.5zm-459-518v24q-106 125-297 125-121 0-194.5-56t-73.5-150 73.5-150 197.5-56 209 80.5 85 182.5z" glyph-name="ae" horiz-adv-x="1820" unicode="æ"/><glyph d="M572-387q-110 0-187 61l39 78q72-59 164-59 51 0 88 23.5t37 62.5q0 72-76 71-47 0-78-34l-67 39 45 125q-197 18-319 161.5t-122 360.5 137.5 364.5 361.5 147.5 357-172l-102-94q-94 129-251 129t-250-106.5-93-274.5 93-275.5 249-107.5 252 129l102-95q-123-158-325-170l-33-86q33 23 84 23t89-38 38-106-61.5-112.5-171.5-44.5z" glyph-name="ccedilla" horiz-adv-x="1013" unicode="ç"/><glyph d="M610-25q-232 0-373 144.5t-141 368.5 139.5 375 353.5 151 342-150.5 128-380.5v-39h-801q10-145 107-243.5t265-98.5 290 125l73-100q-151-152-383-152zm-24 912q-151 0-236.5-100.5t-91.5-229.5h649q-2 127-86 228.5t-235 101.5zm114 252h-116l-346 295h159z" glyph-name="egrave" horiz-adv-x="1153" unicode="è"/><glyph d="M930 1434l-346-295h-117l303 295h160zm-320-1459q-232 0-373 144.5t-141 368.5 139.5 375 353.5 151 342-150.5 128-380.5v-39h-801q10-145 107-243.5t265-98.5 290 125l73-100q-151-152-383-152zm-24 912q-151 0-236.5-100.5t-91.5-229.5h649q-2 127-86 228.5t-235 101.5z" glyph-name="eacute" horiz-adv-x="1153" unicode="é"/><glyph d="M858 1139h-104l-170 217-164-217h-105l195 295h147zm-248-1164q-232 0-373 144.5t-141 368.5 139.5 375 353.5 151 342-150.5 128-380.5v-39h-801q10-145 107-243.5t265-98.5 290 125l73-100q-151-152-383-152zm-24 912q-151 0-236.5-100.5t-91.5-229.5h649q-2 127-86 228.5t-235 101.5z" glyph-name="ecircumflex" horiz-adv-x="1153" unicode="ê"/><glyph d="M893 1237q0-39-28.5-67.5t-67.5-28.5-68 28.5-29 67.5 29 66.5 68 27.5 67.5-27.5 28.5-66.5zm-424 0q0-39-27.5-67.5t-66.5-28.5-67.5 27.5-28.5 67.5 28.5 67.5 67.5 27.5 66.5-27.5 27.5-66.5zm141-1262q-232 0-373 144.5t-141 368.5 139.5 375 353.5 151 342-150.5 128-380.5v-39h-801q10-145 107-243.5t265-98.5 290 125l73-100q-151-152-383-152zm-24 912q-151 0-236.5-100.5t-91.5-229.5h649q-2 127-86 228.5t-235 101.5z" glyph-name="edieresis" horiz-adv-x="1153" unicode="ë"/><glyph d="M307 0h-153v989h153v-989zm39 1139h-117l-346 295h160z" glyph-name="igrave" horiz-adv-x="460" unicode="ì"/><glyph d="M578 1434l-347-295h-116l303 295h160zm-271-1434h-153v989h153v-989z" glyph-name="iacute" horiz-adv-x="460" unicode="í"/><glyph d="M502 1139h-105l-170 217-164-217h-104l195 295h147zm-195-1139h-153v989h153v-989z" glyph-name="icircumflex" horiz-adv-x="460" unicode="î"/><glyph d="M539 1237q0-39-29-67.5t-68-28.5-67.5 28.5-28.5 67.5 28.5 66.5 67.5 27.5 68-27.5 29-66.5zm-424 0q0-39-28-67.5t-68-28.5-67.5 27.5-27.5 67.5 29 67.5 67.5 27.5 66.5-27.5 28-66.5zm192-1237h-153v989h153v-989z" glyph-name="idieresis" horiz-adv-x="460" unicode="ï"/><glyph d="M1075 506q0-233-133-382t-354-149-356.5 143.5-135.5 360.5 127 359.5 323.5 142.5 323.5-182q-100 180-327 348l-293-129-37 86 242 106-154 99 84 127q137-84 229-156l222 98 34-84-176-77q381-324 381-711zm-489.5-393q151.5 0 239.5 106.5t88 258.5-88 259-239.5 107-240.5-106.5-89-259.5 89-259 240.5-106z" glyph-name="eth" unicode="ð"/><glyph d="M821 647q-1 230-211 230-96 0-177-45.5t-126-108.5v-723h-153v989h153v-143q57 68 153.5 118t198.5 50q315 0 316-320v-694h-154v647zm-133 488q-51 0-89 29.5t-72 94-84 64.5q-105 0-105-176h-92q0 123 52 198.5t146 75.5q49 0 87-29.5t74-94 85-64.5 77 44 28 132h92q0-123-52.5-198.5t-146.5-75.5z" glyph-name="ntilde" horiz-adv-x="1128" unicode="ñ"/><glyph d="M586-25q-221 0-355.5 149.5t-134.5 371 134.5 370 355.5 148.5 355-148.5 134-370-134-371-355-149.5zm-.5 138q151.5 0 239.5 111.5t88 271-88 270.5-239.5 111-240.5-112.5-89-270.5 89-269.5 240.5-111.5zm116.5 1026h-116l-346 295h159z" glyph-name="ograve" unicode="ò"/><glyph d="M932 1434l-346-295h-117l303 295h160zm-346-1459q-221 0-355.5 149.5t-134.5 371 134.5 370 355.5 148.5 355-148.5 134-370-134-371-355-149.5zm-.5 138q151.5 0 239.5 111.5t88 271-88 270.5-239.5 111-240.5-112.5-89-270.5 89-269.5 240.5-111.5z" glyph-name="oacute" unicode="ó"/><glyph d="M858 1139h-104l-170 217-164-217h-105l195 295h147zm-272-1164q-221 0-355.5 149.5t-134.5 371 134.5 370 355.5 148.5 355-148.5 134-370-134-371-355-149.5zm-.5 138q151.5 0 239.5 111.5t88 271-88 270.5-239.5 111-240.5-112.5-89-270.5 89-269.5 240.5-111.5z" glyph-name="ocircumflex" unicode="ô"/><glyph d="M586-25q-221 0-355.5 149.5t-134.5 371 134.5 370 355.5 148.5 355-148.5 134-370-134-371-355-149.5zm-.5 138q151.5 0 239.5 111.5t88 271-88 270.5-239.5 111-240.5-112.5-89-270.5 89-269.5 240.5-111.5zm123.5 1022q-51 0-89 29.5t-72 94-84 64.5q-106 0-106-176h-92q0 123 52.5 198.5t146.5 75.5q49 0 87-29.5t74-94 85-64.5q104 0 104 176h92q0-123-52-198.5t-146-75.5z" glyph-name="otilde" unicode="õ"/><glyph d="M893 1237q0-39-28.5-67.5t-67.5-28.5-68 28.5-29 67.5 29 66.5 68 27.5 67.5-27.5 28.5-66.5zm-424 0q0-39-27.5-67.5t-66.5-28.5-67.5 27.5-28.5 67.5 28.5 67.5 67.5 27.5 66.5-27.5 27.5-66.5zm117-1262q-221 0-355.5 149.5t-134.5 371 134.5 370 355.5 148.5 355-148.5 134-370-134-371-355-149.5zm-.5 138q151.5 0 239.5 111.5t88 271-88 270.5-239.5 111-240.5-112.5-89-270.5 89-269.5 240.5-111.5z" glyph-name="odieresis" unicode="ö"/><glyph d="M618 1077q0-39-28.5-66.5t-67.5-27.5-65.5 27.5-26.5 66.5 26.5 66.5 66.5 27.5 67.5-27.5 27.5-66.5zm369-440h-928v106h928v-106zm-369-342q0-39-28.5-66.5t-67.5-27.5-65.5 27.5-26.5 66.5 26.5 66.5 65.5 27.5 67.5-27.5 28.5-66.5z" glyph-name="divide" horiz-adv-x="1046" unicode="÷"/><glyph d="M96 494q0 224 134.5 372t355.5 148q162 0 280-84l47 59h111l-92-117q143-147 143-372t-134-375-355-150q-170 0-291 93l-53-68h-111l98 125q-133 145-133 369zm490-381q152 0 239.5 111.5t87.5 266.5-77 261l-451-570q86-69 201-69zm-330 391q0-150 70-256l448 567q-78 61-188 62-152 0-241-111.5t-89-261.5z" glyph-name="oslash" unicode="ø"/><glyph d="M307 338q0-225 210-225 97 0 178 43t126 106v727h154v-989h-154v139q-61-70-154.5-117t-197.5-47q-315 0-315 316v698h153v-651zm373 801h-117l-346 295h160z" glyph-name="ugrave" horiz-adv-x="1128" unicode="ù"/><glyph d="M909 1434l-346-295h-117l304 295h159zm-602-1096q0-225 210-225 97 0 178 43t126 106v727h154v-989h-154v139q-61-70-154.5-117t-197.5-47q-315 0-315 316v698h153v-651z" glyph-name="uacute" horiz-adv-x="1128" unicode="ú"/><glyph d="M836 1139h-105l-170 217-164-217h-104l194 295h148zm-529-801q0-225 210-225 97 0 178 43t126 106v727h154v-989h-154v139q-61-70-154.5-117t-197.5-47q-315 0-315 316v698h153v-651z" glyph-name="ucircumflex" horiz-adv-x="1128" unicode="û"/><glyph d="M874 1237q0-39-28.5-67.5t-67.5-28.5-67.5 28.5-28.5 67.5 28.5 66.5 67.5 27.5 67.5-27.5 28.5-66.5zm-423 0q0-39-28-67.5t-68-28.5-67.5 27.5-27.5 67.5 28.5 67.5 67.5 27.5 67-27.5 28-66.5zm-144-899q0-225 210-225 97 0 178 43t126 106v727h154v-989h-154v139q-61-70-154.5-117t-197.5-47q-315 0-315 316v698h153v-651z" glyph-name="udieresis" horiz-adv-x="1128" unicode="ü"/><glyph d="M210-264q50 0 85 22.5t59 81.5l66 150-414 999h166l330-811 327 811h168l-495-1190q-82-197-291-200-64 0-113 14l25 139q37-16 87-16zm638 1698l-346-295h-117l303 295h160z" glyph-name="yacute" horiz-adv-x="1003" unicode="ý"/><glyph d="M635-25q-203 0-328 175v-527h-153v1743h153v-524q55 78 143.5 125t190.5 47q197 0 318.5-140.5t121.5-378-121.5-379-324.5-141.5zm-33 138q145 0 231.5 107.5t86.5 275.5-86 274.5-232 106.5q-88 0-171-46.5t-124-111.5v-447q41-68 124-113.5t171-45.5z" glyph-name="thorn" unicode="þ"/><glyph d="M210-264q50 0 85 22.5t59 81.5l66 150-414 999h166l330-811 327 811h168l-495-1190q-82-197-291-200-64 0-113 14l25 139q37-16 87-16zm599 1501q0-39-28.5-67.5t-67.5-28.5-68 28.5-29 67.5 29 66.5 68 27.5 67.5-27.5 28.5-66.5zm-424 0q0-39-27.5-67.5t-67.5-28.5-67.5 27.5-27.5 67.5 28.5 67.5 67.5 27.5 66.5-27.5 27.5-66.5z" glyph-name="ydieresis" horiz-adv-x="1003" unicode="ÿ"/><glyph d="M1329 0h-194l-121 303h-680l-121-303h-195l549 1366h211zm-366 455l-289 735-291-735h580zm81 1058h-743v99h743v-99z" glyph-name="Amacron" horiz-adv-x="1347" unicode="Ā"/><glyph d="M926 0h-154v113q-125-137-328-138-137 0-241.5 88.5t-104.5 242.5 103.5 238.5 242.5 84.5q211 0 328-135v178q0 98-69.5 153.5t-180.5 55.5q-174 0-303-138l-72 107q158 164 396 164 170 0 276.5-82t106.5-252v-680zm-426 86q184 0 272 123v186q-88 123-272 123-106 0-175-60.5t-69-155.5 69-155.5 175-60.5zm411 1085h-743v99h743v-99z" glyph-name="amacron" horiz-adv-x="1079" unicode="ā"/><glyph d="M1329 0h-194l-121 303h-680l-121-303h-195l549 1366h211zm-366 455l-289 735-291-735h580zm-288 989q-224 0-362 180l76 66q105-148 285-148t282 148l76-66q-133-180-357-180z" glyph-name="Abreve" horiz-adv-x="1347" unicode="Ă"/><glyph d="M926 0h-154v113q-125-137-328-138-137 0-241.5 88.5t-104.5 242.5 103.5 238.5 242.5 84.5q211 0 328-135v178q0 98-69.5 153.5t-180.5 55.5q-174 0-303-138l-72 107q158 164 396 164 170 0 276.5-82t106.5-252v-680zm-426 86q184 0 272 123v186q-88 123-272 123-106 0-175-60.5t-69-155.5 69-155.5 175-60.5zm42 1016q-224 0-362 180l76 66q106-148 286-148t281 148l76-66q-133-180-357-180z" glyph-name="abreve" horiz-adv-x="1079" unicode="ă"/><glyph d="M1264-381q-78 0-130.5 45t-52.5 133q0 117 109 203h-55l-121 303h-680l-121-303h-195l549 1366h211l551-1366q-156-78-155-199 0-102 90-102 77 0 106 86l76-43q-53-123-182-123zm-301 836l-289 735-291-735h580z" glyph-name="Aogonek" horiz-adv-x="1347" unicode="Ą"/><glyph d="M860-381q-78 0-130 45t-52 133q0 117 108 203h-14v113q-125-137-328-138-137 0-241.5 88.5t-104.5 242.5 103.5 238.5 242.5 84.5q211 0 328-135v178q0 98-69.5 153.5t-180.5 55.5q-174 0-303-138l-72 107q158 164 396 164 170 0 276.5-82t106.5-252v-680q-156-78-156-199 0-102 90-102 78 0 107 86l75-43q-53-123-182-123zm-360 467q184 0 272 123v186q-88 123-272 123-106 0-175-60.5t-69-155.5 69-155.5 175-60.5z" glyph-name="aogonek" horiz-adv-x="1079" unicode="ą"/><glyph d="M1153 1776l-346-295h-117l303 295h160zm-335-1801q-310 0-512 198t-202 509 202 509 501 198q328 0 518-271l-143-80q-59 88-159.5 143.5t-215.5 55.5q-225 0-375.5-156.5t-150.5-398.5 150.5-398.5 375.5-156.5q115 0 215 54.5t160 144.5l145-80q-199-271-509-271z" glyph-name="Cacute" horiz-adv-x="1384" unicode="Ć"/><glyph d="M934 1434l-346-295h-117l303 295h160zm-339-1459q-224 0-361.5 148.5t-137.5 372 137.5 371 361.5 147.5 357-172l-102-94q-94 129-251 129t-250-106.5-93-274.5 93-275.5 249-107.5 252 129l102-95q-133-172-357-172z" glyph-name="cacute" horiz-adv-x="1013" unicode="ć"/><glyph d="M1077 1481h-104l-170 217-164-217h-104l194 295h148zm-259-1506q-310 0-512 198t-202 509 202 509 501 198q328 0 518-271l-143-80q-59 88-159.5 143.5t-215.5 55.5q-225 0-375.5-156.5t-150.5-398.5 150.5-398.5 375.5-156.5q115 0 215 54.5t160 144.5l145-80q-199-271-509-271z" glyph-name="Ccircumflex" horiz-adv-x="1384" unicode="Ĉ"/><glyph d="M862 1139h-104l-170 217-164-217h-105l195 295h148zm-267-1164q-224 0-361.5 148.5t-137.5 372 137.5 371 361.5 147.5 357-172l-102-94q-94 129-251 129t-250-106.5-93-274.5 93-275.5 249-107.5 252 129l102-95q-133-172-357-172z" glyph-name="ccircumflex" horiz-adv-x="1013" unicode="ĉ"/><glyph d="M818-25q-310 0-512 198t-202 509 202 509 501 198q328 0 518-271l-143-80q-59 88-159.5 143.5t-215.5 55.5q-225 0-375.5-156.5t-150.5-398.5 150.5-398.5 375.5-156.5q115 0 215 54.5t160 144.5l145-80q-199-271-509-271zm-7 1504q-39 0-67.5 28.5t-28.5 67.5 28.5 67.5 67.5 28.5 66.5-27.5 27.5-68.5-27.5-68.5-66.5-27.5z" glyph-name="Cdotaccent" horiz-adv-x="1384" unicode="Ċ"/><glyph d="M595-25q-224 0-361.5 148.5t-137.5 372 137.5 371 361.5 147.5 357-172l-102-94q-94 129-251 129t-250-106.5-93-274.5 93-275.5 249-107.5 252 129l102-95q-133-172-357-172zm-1 1162q-39 0-67.5 28.5t-28.5 67.5 28.5 67.5 67.5 28.5 66.5-27.5 27.5-68.5-27.5-68.5-66.5-27.5z" glyph-name="cdotaccent" horiz-adv-x="1013" unicode="ċ"/><glyph d="M883 1481h-148l-200 295h104l170-217 164 217h104zm-65-1506q-310 0-512 198t-202 509 202 509 501 198q328 0 518-271l-143-80q-59 88-159.5 143.5t-215.5 55.5q-225 0-375.5-156.5t-150.5-398.5 150.5-398.5 375.5-156.5q115 0 215 54.5t160 144.5l145-80q-199-271-509-271z" glyph-name="Ccaron" horiz-adv-x="1384" unicode="Č"/><glyph d="M668 1139h-148l-201 295h105l170-217 164 217h104zm-73-1164q-224 0-361.5 148.5t-137.5 372 137.5 371 361.5 147.5 357-172l-102-94q-94 129-251 129t-250-106.5-93-274.5 93-275.5 249-107.5 252 129l102-95q-133-172-357-172z" glyph-name="ccaron" horiz-adv-x="1013" unicode="č"/><glyph d="M797 1481h-148l-200 295h104l170-217 164 217h104zm-170-1481h-467v1366h467q313 0 506.5-194.5t193.5-490.5-193.5-488.5-506.5-192.5zm0 152q242 0 383 151.5t141 379.5-139.5 379.5-384.5 151.5h-297v-1062h297z" glyph-name="Dcaron" horiz-adv-x="1433" unicode="Ď"/><glyph d="M1327 1246q0-72-41-145t-104-120l-68 53q47 31 81 81t38 95q-4-4-32-4t-52.5 25.5-24.5 65.5 28 68 70 28 73.5-37.5 31.5-109.5zm-303-1246h-154v147q-126-172-328-172t-324 140.5-122 377.5 122 379 323 142 329-174v526h154v-1366zm-451 113q90 0 172 45t125 110v449q-43 68-125.5 114t-171.5 46q-145 0-231-107.5t-86-275.5 86-274.5 231-106.5z" glyph-name="dcaron" horiz-adv-x="1318" unicode="ď"/><glyph d="M684 0h-467v612h-197v125h197v629h467q313 0 506.5-194.5t193.5-490.5-193.5-488.5-506.5-192.5zm0 152q242 0 383 151.5t141 379.5-139 379.5-385 151.5h-297v-477h346v-125h-346v-460h297z" glyph-name="Dcroat" horiz-adv-x="1490" unicode="Đ"/><glyph d="M1024 0h-154v147q-126-172-328-172t-324 140.5-122 377.5 122 379 323 142 329-174v256h-321v98h321v172h154v-172h139v-98h-139v-1096zm-451 113q90 0 172 45t125 110v449q-43 68-125.5 114t-171.5 46q-145 0-231-107.5t-86-275.5 86-274.5 231-106.5z" glyph-name="dcroat" horiz-adv-x="1181" unicode="đ"/><glyph d="M1055 0h-895v1366h895v-152h-725v-440h710v-151h-710v-471h725v-152zm-78 1513h-744v99h744v-99z" glyph-name="Emacron" horiz-adv-x="1165" unicode="Ē"/><glyph d="M610-25q-232 0-373 144.5t-141 368.5 139.5 375 353.5 151 342-150.5 128-380.5v-39h-801q10-145 107-243.5t265-98.5 290 125l73-100q-151-152-383-152zm-24 912q-151 0-236.5-100.5t-91.5-229.5h649q-2 127-86 228.5t-235 101.5zm368 284h-743v99h743v-99z" glyph-name="emacron" horiz-adv-x="1153" unicode="ē"/><glyph d="M1055 0h-895v1366h895v-152h-725v-440h710v-151h-710v-471h725v-152zm-443 1444q-224 0-362 180l76 66q106-148 285-148t282 148l76-66q-133-180-357-180z" glyph-name="Ebreve" horiz-adv-x="1165" unicode="Ĕ"/><glyph d="M610-25q-232 0-373 144.5t-141 368.5 139.5 375 353.5 151 342-150.5 128-380.5v-39h-801q10-145 107-243.5t265-98.5 290 125l73-100q-151-152-383-152zm-24 912q-151 0-236.5-100.5t-91.5-229.5h649q-2 127-86 228.5t-235 101.5zm3 215q-224 0-362 180l76 66q105-148 285-148t282 148l76-66q-133-180-357-180z" glyph-name="ebreve" horiz-adv-x="1153" unicode="ĕ"/><glyph d="M1055 0h-895v1366h895v-152h-725v-440h710v-151h-710v-471h725v-152zm-441 1479q-39 0-67.5 28.5t-28.5 67.5 28.5 67.5 67.5 28.5 67-27.5 28-68.5-28-68.5-67-27.5z" glyph-name="Edotaccent" horiz-adv-x="1165" unicode="Ė"/><glyph d="M610-25q-232 0-373 144.5t-141 368.5 139.5 375 353.5 151 342-150.5 128-380.5v-39h-801q10-145 107-243.5t265-98.5 290 125l73-100q-151-152-383-152zm-24 912q-151 0-236.5-100.5t-91.5-229.5h649q-2 127-86 228.5t-235 101.5zm0 250q-39 0-68 28.5t-29 67.5 29 67.5 68 28.5 66.5-27.5 27.5-68.5-27.5-68.5-66.5-27.5z" glyph-name="edotaccent" horiz-adv-x="1153" unicode="ė"/><glyph d="M899-199q0-102 90-102 78 0 107 86l75-43q-53-123-182-123-78 0-130 45t-52 133q0 117 108 203h-755v1366h895v-152h-725v-440h710v-151h-710v-471h725v-152q-156-78-156-199z" glyph-name="Eogonek" horiz-adv-x="1165" unicode="Ę"/><glyph d="M600-25q-221 0-362.5 144.5t-141.5 368.5 139.5 375 353.5 151 342-150.5 128-380.5v-39h-801q10-145 107-243.5t265-98.5 290 125l73-100q-94-94-217-127-154-78-153-199 0-102 90-102 78 0 106 86l76-43q-53-123-182-123-78 0-130.5 45t-52.5 138 80 173h-10zm-14 912q-151 0-236.5-100.5t-91.5-229.5h649q-2 127-86 228.5t-235 101.5z" glyph-name="eogonek" horiz-adv-x="1153" unicode="ę"/><glyph d="M686 1481h-147l-201 295h104l170-217 164 217h105zm369-1481h-895v1366h895v-152h-725v-440h710v-151h-710v-471h725v-152z" glyph-name="Ecaron" horiz-adv-x="1165" unicode="Ě"/><glyph d="M662 1139h-148l-201 295h105l170-217 164 217h104zm-52-1164q-232 0-373 144.5t-141 368.5 139.5 375 353.5 151 342-150.5 128-380.5v-39h-801q10-145 107-243.5t265-98.5 290 125l73-100q-151-152-383-152zm-24 912q-151 0-236.5-100.5t-91.5-229.5h649q-2 127-86 228.5t-235 101.5z" glyph-name="ecaron" horiz-adv-x="1153" unicode="ě"/><glyph d="M1087 1481h-104l-170 217-164-217h-104l194 295h148zm-265-1508q-312 0-515 198t-203 511 203 510 513 197 517-256l-135-84q-66 86-171 137t-224 51q-225 0-375.5-156.5t-150.5-398.5 150.5-399.5 375.5-157.5q113 0 210 44t157 103v279h-469v151h638v-493q-209-236-521-236z" glyph-name="Gcircumflex" horiz-adv-x="1460" unicode="Ĝ"/><glyph d="M866 1139h-104l-170 217-164-217h-104l194 295h148zm-315-1540q-131 0-223 31.5t-176 115.5l77 115q113-135 322-135 137 0 227 72.5t90 224.5v141q-55-78-143-127t-188-49q-197 0-319 138t-122 373.5 122 375 322 139.5 328-174v149h154v-960q0-227-133-328.5t-338-101.5zm22 524q88 0 171 47t124 115v432q-41 68-122.5 114t-172.5 46q-147 0-232-104.5t-85-271.5 86-272.5 231-105.5z" glyph-name="gcircumflex" horiz-adv-x="1175" unicode="ĝ"/><glyph d="M822-27q-312 0-515 198t-203 511 203 510 513 197 517-256l-135-84q-66 86-171 137t-224 51q-225 0-375.5-156.5t-150.5-398.5 150.5-399.5 375.5-157.5q113 0 210 44t157 103v279h-469v151h638v-493q-209-236-521-236zm-8 1471q-224 0-361 180l75 66q106-148 286-148t282 148l75-66q-133-180-357-180z" glyph-name="Gbreve" horiz-adv-x="1460" unicode="Ğ"/><glyph d="M551-401q-131 0-223 31.5t-176 115.5l77 115q113-135 322-135 137 0 227 72.5t90 224.5v141q-55-78-143-127t-188-49q-197 0-319 138t-122 373.5 122 375 322 139.5 328-174v149h154v-960q0-227-133-328.5t-338-101.5zm22 524q88 0 171 47t124 115v432q-41 68-122.5 114t-172.5 46q-147 0-232-104.5t-85-271.5 86-272.5 231-105.5zm22 979q-224 0-362 180l76 66q105-148 285-148t283 148l75-66q-133-180-357-180z" glyph-name="gbreve" horiz-adv-x="1175" unicode="ğ"/><glyph d="M822-27q-312 0-515 198t-203 511 203 510 513 197 517-256l-135-84q-66 86-171 137t-224 51q-225 0-375.5-156.5t-150.5-398.5 150.5-399.5 375.5-157.5q113 0 210 44t157 103v279h-469v151h638v-493q-209-236-521-236zm-11 1506q-39 0-67.5 28.5t-28.5 67.5 28.5 67.5 67.5 28.5 66.5-27.5 27.5-68.5-27.5-68.5-66.5-27.5z" glyph-name="Gdotaccent" horiz-adv-x="1460" unicode="Ġ"/><glyph d="M551-401q-131 0-223 31.5t-176 115.5l77 115q113-135 322-135 137 0 227 72.5t90 224.5v141q-55-78-143-127t-188-49q-197 0-319 138t-122 373.5 122 375 322 139.5 328-174v149h154v-960q0-227-133-328.5t-338-101.5zm22 524q88 0 171 47t124 115v432q-41 68-122.5 114t-172.5 46q-147 0-232-104.5t-85-271.5 86-272.5 231-105.5zm19 1014q-39 0-67.5 28.5t-28.5 67.5 28.5 67.5 67.5 28.5 66.5-27.5 27.5-68.5-27.5-68.5-66.5-27.5z" glyph-name="gdotaccent" horiz-adv-x="1175" unicode="ġ"/><glyph d="M918-292q0-72-41-145t-105-120l-67 53q47 31 80.5 81t37.5 95q-3-4-31-4t-52.5 25.5-24.5 65.5 27.5 68 69.5 28 74-37.5 32-109.5zm-96 265q-312 0-515 198t-203 511 203 510 513 197 517-256l-135-84q-66 86-171 137t-224 51q-225 0-375.5-156.5t-150.5-398.5 150.5-399.5 375.5-157.5q113 0 210 44t157 103v279h-469v151h638v-493q-209-236-521-236z" glyph-name="Gcommaaccent" horiz-adv-x="1460" unicode="Ģ"/><glyph d="M487 1266q0 74 40 152.5t102 121.5l67-55q-45-31-79.5-79t-36.5-93q4 2 10 2 35 0 64.5-27.5t29.5-64.5-28.5-66-68.5-29-70 32-30 106zm64-1667q-131 0-223 31.5t-176 115.5l77 115q113-135 322-135 137 0 227 72.5t90 224.5v141q-55-78-143-127t-188-49q-197 0-319 138t-122 373.5 122 375 322 139.5 328-174v149h154v-960q0-227-133-328.5t-338-101.5zm22 524q88 0 171 47t124 115v432q-41 68-122.5 114t-172.5 46q-147 0-232-104.5t-85-271.5 86-272.5 231-105.5z" glyph-name="gcommaaccent" horiz-adv-x="1175" unicode="ģ"/><glyph d="M995 1481h-104l-170 217-164-217h-104l194 295h148zm303-1481h-170v627h-798v-627h-170v1366h170v-588h798v588h170v-1366z" glyph-name="Hcircumflex" horiz-adv-x="1458" unicode="Ĥ"/><glyph d="M840 1481h-105l-170 217-164-217h-104l195 295h147zm-17-830q-1 226-211 226-96 0-177-45.5t-128-108.5v-723h-153v1366h153v-520q57 68 153.5 118t201.5 50q315 0 315-316v-698h-154v651z" glyph-name="hcircumflex" horiz-adv-x="1130" unicode="ĥ"/><glyph d="M1319 0h-170v627h-799v-627h-170v1020h-160v98h160v248h170v-248h799v248h170v-248h158v-98h-158v-1020zm-969 778h799v242h-799v-242z" glyph-name="Hbar" horiz-adv-x="1497" unicode="Ħ"/><glyph d="M827 651q-1 226-211 226-96 0-177-45.5t-128-108.5v-723h-153v1096h-140v98h140v172h153v-172h320v-98h-320v-250q57 68 153.5 118t201.5 50q315 0 315-316v-698h-154v651z" glyph-name="hbar" horiz-adv-x="1134" unicode="ħ"/><glyph d="M330 0h-170v1366h170v-1366zm37 1477q-51 0-89 29.5t-72 94-84 64.5q-106 0-106-176h-92q0 123 52.5 198.5t146.5 75.5q49 0 87-29.5t74-94 85-64.5q104 0 104 176h92q0-123-52-198.5t-146-75.5z" glyph-name="Itilde" horiz-adv-x="489" unicode="Ĩ"/><glyph d="M307 0h-153v989h153v-989zm45 1135q-51 0-89 29.5t-72 94-84 64.5q-105 0-105-176h-92q0 123 52 198.5t147 75.5q49 0 86.5-29.5t73.5-94 85-64.5 77 44 28 132h92q0-123-52.5-198.5t-146.5-75.5z" glyph-name="itilde" horiz-adv-x="460" unicode="ĩ"/><glyph d="M330 0h-170v1366h170v-1366zm288 1513h-743v99h743v-99z" glyph-name="Imacron" horiz-adv-x="489" unicode="Ī"/><glyph d="M307 0h-153v989h153v-989zm295 1171h-743v99h743v-99z" glyph-name="imacron" horiz-adv-x="460" unicode="ī"/><glyph d="M330 0h-170v1366h170v-1366zm-81 1444q-224 0-362 180l76 66q105-148 285-148t282 148l76-66q-133-180-357-180z" glyph-name="Ibreve" horiz-adv-x="489" unicode="Ĭ"/><glyph d="M307 0h-153v989h153v-989zm-75 1102q-224 0-361 180l76 66q106-148 285-148t282 148l76-66q-134-180-358-180z" glyph-name="ibreve" horiz-adv-x="460" unicode="ĭ"/><glyph d="M330 0h-170v1366h170v-1366zm-66-381q-78 0-130 45t-52 127 49 147.5 131 108.5l68-47q-156-78-156-199 0-102 90-102 78 0 107 86l75-43q-53-123-182-123z" glyph-name="Iogonek" horiz-adv-x="489" unicode="Į"/><glyph d="M242-381q-78 0-130.5 45t-52.5 133q0 117 109 203h-14v989h153v-989q-156-78-155-199 0-102 90-102 77 0 106 86l76-43q-53-123-182-123zm-12 1511q-42 0-72.5 30t-30.5 73 30.5 73.5 72.5 30.5 73-30.5 31-73.5-31-73-73-30z" glyph-name="iogonek" horiz-adv-x="460" unicode="į"/><glyph d="M330 0h-170v1366h170v-1366zm-84 1479q-39 0-67.5 28.5t-28.5 67.5 28.5 67.5 67.5 28.5 66.5-27.5 27.5-68.5-27.5-68.5-66.5-27.5z" glyph-name="Idotaccent" horiz-adv-x="489" unicode="İ"/><glyph d="M307 0h-153v989h153v-989z" glyph-name="dotlessi" horiz-adv-x="460" unicode="ı"/><glyph d="M330 0h-170v1366h170v-1366zm524-25q-207 0-342 158l88 129q113-135 248-135t210 79 75 208v952h170v-954q0-213-121-325t-328-112z" glyph-name="IJ" horiz-adv-x="1460" unicode="Ĳ"/><glyph d="M230 1130q-42 0-72.5 30t-30.5 73 30.5 73.5 72.5 30.5 73-30.5 31-73.5-31-73-73-30zm77-1130h-153v989h153v-989zm384 1130q-42 0-72.5 30t-30.5 73 30.5 73.5 72.5 30.5 73-30.5 31-73.5-31-73-73-30zm-207-1531q-132 0-226 73l55 117q63-63 139-63t119 44 43 134v1085h154v-1085q0-145-76-225t-208-80z" glyph-name="ij" horiz-adv-x="923" unicode="ĳ"/><glyph d="M999 1481h-104l-170 217-164-217h-104l194 295h148zm-634-1506q-207 0-342 158l88 129q113-135 248-135t209.5 79 74.5 208v952h170v-954q0-213-120.5-325t-327.5-112z" glyph-name="Jcircumflex" horiz-adv-x="972" unicode="Ĵ"/><glyph d="M506 1139h-105l-170 217-163-217h-105l195 295h147zm-482-1540q-131 0-227 73l56 117q63-63 139-63t119 44 43 134v1085h153v-1085q0-145-76-225t-207-80z" glyph-name="jcircumflex" horiz-adv-x="460" unicode="ĵ"/><glyph d="M737-292q0-72-41-145t-104-120l-68 53q47 31 81 81t38 95q-3-4-31-4t-52.5 25.5-24.5 65.5 27.5 68 69.5 28 73.5-37.5 31.5-109.5zm-407 292h-170v1366h170v-707l604 707h213l-569-649 618-717h-211l-518 614-137-155v-459z" glyph-name="Kcommaaccent" horiz-adv-x="1241" unicode="Ķ"/><glyph d="M643-292q0-72-41-145t-104-120l-68 53q47 31 81 81t38 95q-4-4-32-4t-52.5 25.5-24.5 65.5 28 68 70 28 73.5-37.5 31.5-109.5zm-336 292h-153v1366h153v-903l520 526h195l-438-448 440-541h-197l-356 444-164-161v-283z" glyph-name="kcommaaccent" horiz-adv-x="1052" unicode="ķ"/><glyph d="M307 0h-153v989h153v-526l520 526h195l-438-448 440-541h-197l-356 444-164-161v-283z" glyph-name="kgreenlandic" horiz-adv-x="1052" unicode="ĸ"/><glyph d="M907 1776l-346-295h-117l304 295h159zm58-1776h-805v1366h170v-1214h635v-152z" glyph-name="Lacute" horiz-adv-x="1044" unicode="Ĺ"/><glyph d="M578 1776l-347-295h-116l303 295h160zm-271-1776h-153v1366h153v-1366z" glyph-name="lacute" horiz-adv-x="460" unicode="ĺ"/><glyph d="M653-292q0-72-41-145t-104-120l-68 53q47 31 81 81t38 95q-3-4-31-4t-52.5 25.5-24.5 65.5 27.5 68 69.5 28 73.5-37.5 31.5-109.5zm312 292h-805v1366h170v-1214h635v-152z" glyph-name="Lcommaaccent" horiz-adv-x="1044" unicode="Ļ"/><glyph d="M348-292q0-72-41-145t-104-120l-68 53q47 31 81 81t38 95q-4-4-32-4t-52.5 25.5-24.5 65.5 28 68 70 28 73.5-37.5 31.5-109.5zm-41 292h-153v1366h153v-1366z" glyph-name="lcommaaccent" horiz-adv-x="460" unicode="ļ"/><glyph d="M725 1246q0-72-41-145t-104-120l-68 53q47 31 81 81t38 95q-4-4-32-4t-52.5 25.5-24.5 65.5 28 68 70 28 73.5-37.5 31.5-109.5zm240-1246h-805v1366h170v-1214h635v-152z" glyph-name="Lcaron" horiz-adv-x="1044" unicode="Ľ"/><glyph d="M637 1246q0-72-41-145t-104-120l-68 53q47 31 81 81t38 95q-4-4-32-4t-52.5 25.5-24.5 65.5 27.5 68 69.5 28 74-37.5 32-109.5zm-330-1246h-153v1366h153v-1366z" glyph-name="lcaron" horiz-adv-x="595" unicode="ľ"/><glyph d="M965 0h-805v1366h170v-1214h635v-152zm-97 699q0-46-33.5-78.5t-78.5-32.5-79 32.5-34 78.5 33 79 80 33 79.5-33 32.5-79z" glyph-name="Ldot" horiz-adv-x="1044" unicode="Ŀ"/><glyph d="M307 0h-153v1366h153v-1366zm350 500q0-45-33.5-78t-78.5-33-79 33-34 78 34 78.5 79 33.5 78.5-33.5 33.5-78.5z" glyph-name="ldot" horiz-adv-x="628" unicode="ŀ"/><glyph d="M199 1366h170v-565l198 114v-147l-198-115v-501h635v-152h-805v555l-179-102v147l179 102v664z" glyph-name="Lslash" horiz-adv-x="1083" unicode="Ł"/><glyph d="M217 1366h154v-575l194 110v-123l-194-110v-668h-154v580l-197-113v123l197 112v664z" glyph-name="lslash" horiz-adv-x="587" unicode="ł"/><glyph d="M1087 1776l-346-295h-116l303 295h159zm203-1776h-164l-796 1090v-1090h-170v1366h174l786-1067v1067h170v-1366z" glyph-name="Nacute" horiz-adv-x="1449" unicode="Ń"/><glyph d="M909 1434l-346-295h-117l304 295h159zm-88-787q-1 230-211 230-96 0-177-45.5t-126-108.5v-723h-153v989h153v-143q57 68 153.5 118t198.5 50q315 0 316-320v-694h-154v647z" glyph-name="nacute" horiz-adv-x="1128" unicode="ń"/><glyph d="M842-292q0-72-41-145t-105-120l-67 53q47 31 80.5 81t38.5 95q-4-4-32-4t-52.5 25.5-24.5 65.5 27.5 68 69.5 28 74-37.5 32-109.5zm448 292h-164l-796 1090v-1090h-170v1366h174l786-1067v1067h170v-1366z" glyph-name="Ncommaaccent" horiz-adv-x="1449" unicode="Ņ"/><glyph d="M676-292q0-72-41-145t-105-120l-67 53q47 31 81 81t38 95q-4-4-32-4t-52.5 25.5-24.5 65.5 27.5 68 69.5 28 74-37.5 32-109.5zm145 939q-1 230-211 230-96 0-177-45.5t-126-108.5v-723h-153v989h153v-143q57 68 153.5 118t198.5 50q315 0 316-320v-694h-154v647z" glyph-name="ncommaaccent" horiz-adv-x="1128" unicode="ņ"/><glyph d="M799 1481h-148l-200 295h104l170-217 164 217h104zm491-1481h-164l-796 1090v-1090h-170v1366h174l786-1067v1067h170v-1366z" glyph-name="Ncaron" horiz-adv-x="1449" unicode="Ň"/><glyph d="M643 1139h-147l-201 295h104l170-217 164 217h105zm178-492q-1 230-211 230-96 0-177-45.5t-126-108.5v-723h-153v989h153v-143q57 68 153.5 118t198.5 50q315 0 316-320v-694h-154v647z" glyph-name="ncaron" horiz-adv-x="1128" unicode="ň"/><glyph d="M330 1376q0-72-41-145.5t-105-120.5l-67 53q47 31 80.5 81t38.5 95q-4-4-32-4t-52.5 25.5-24.5 65.5 27.5 68 69.5 28 74-37 32-109zm491-729q-1 230-211 230-96 0-177-45.5t-126-108.5v-723h-153v989h153v-143q57 68 153.5 118t198.5 50q315 0 316-320v-694h-154v647z" glyph-name="napostrophe" horiz-adv-x="1128" unicode="ŉ"/><glyph d="M842-401q-207 0-342 157l90 129q109-135 256-135 119 0 192.5 70.5t79.5 187.5l-788 1082v-1090h-170v1366h174l786-1067v1067h170v-1335q0-213-120.5-322.5t-327.5-109.5z" glyph-name="Eng" horiz-adv-x="1449" unicode="Ŋ"/><glyph d="M821 647q-1 230-211 230-96 0-177-45.5t-126-108.5v-723h-153v989h153v-143q57 68 153.5 118t198.5 50q316-1 316-320v-790q0-147-76-226t-207-79-225 73l53 125q60-61 138-61t120.5 42 42.5 126v743z" glyph-name="eng" horiz-adv-x="1128" unicode="ŋ"/><glyph d="M1153 1513h-743v99h743v-99zm-372-1538q-300 0-488.5 201t-188.5 506 188.5 506 488.5 201 489.5-201 189.5-506-189.5-506-489.5-201zm0 152q226 0 364.5 156.5t138.5 399.5-138 398.5-364 155.5-363.5-155.5-137.5-398.5 137-399.5 363-156.5z" glyph-name="Omacron" horiz-adv-x="1566" unicode="Ō"/><glyph d="M956 1171h-743v99h743v-99zm-370-1196q-221 0-355.5 149.5t-134.5 371 134.5 370 355.5 148.5 355-148.5 134-370-134-371-355-149.5zm-.5 138q151.5 0 239.5 111.5t88 271-88 270.5-239.5 111-240.5-112.5-89-270.5 89-269.5 240.5-111.5z" glyph-name="omacron" unicode="ō"/><glyph d="M781-25q-300 0-488.5 201t-188.5 506 188.5 506 488.5 201 489.5-201 189.5-506-189.5-506-489.5-201zm0 152q226 0 364.5 156.5t138.5 399.5-138 398.5-364 155.5-363.5-155.5-137.5-398.5 137-399.5 363-156.5zm3 1317q-224 0-362 180l76 66q106-148 285-148t282 148l76-66q-133-180-357-180z" glyph-name="Obreve" horiz-adv-x="1566" unicode="Ŏ"/><glyph d="M586-25q-221 0-355.5 149.5t-134.5 371 134.5 370 355.5 148.5 355-148.5 134-370-134-371-355-149.5zm-.5 138q151.5 0 239.5 111.5t88 271-88 270.5-239.5 111-240.5-112.5-89-270.5 89-269.5 240.5-111.5zm3.5 989q-224 0-362 180l76 66q105-148 285-148t282 148l76-66q-133-180-357-180z" glyph-name="obreve" unicode="ŏ"/><glyph d="M891 1776l-236-295h-98l193 295h141zm291 0l-236-295h-98l192 295h142zm-401-1801q-300 0-488.5 201t-188.5 506 188.5 506 488.5 201 489.5-201 189.5-506-189.5-506-489.5-201zm0 152q226 0 364.5 156.5t138.5 399.5-138 398.5-364 155.5-363.5-155.5-137.5-398.5 137-399.5 363-156.5z" glyph-name="Ohungarumlaut" horiz-adv-x="1566" unicode="Ő"/><glyph d="M694 1434l-235-295h-99l193 295h141zm291 0l-235-295h-99l193 295h141zm-399-1459q-221 0-355.5 149.5t-134.5 371 134.5 370 355.5 148.5 355-148.5 134-370-134-371-355-149.5zm-.5 138q151.5 0 239.5 111.5t88 271-88 270.5-239.5 111-240.5-112.5-89-270.5 89-269.5 240.5-111.5z" glyph-name="ohungarumlaut" unicode="ő"/><glyph d="M2152 0h-897v246q-74-129-205.5-200t-281.5-71q-295 0-479.5 201t-184.5 506 184.5 504.5 479.5 199.5q150 0 282-69.5t205-198.5v248h897v-152h-727v-440h713v-151h-713v-471h727v-152zm-1366 1235q-229 0-367-154.5t-138-398.5 138-399.5 367-155.5q162 0 286 85t183 245v450q-59 160-183 244t-286 84z" glyph-name="OE" horiz-adv-x="2263" unicode="Œ"/><glyph d="M1876 444h-799q10-145 105.5-243.5t263.5-98.5 293 125l73-100q-156-152-393-152-170 0-272.5 85t-153.5 198q-127-283-407-283-221 0-355.5 149.5t-134.5 371 134.5 370 357.5 148.5 305-118 102-165q45 106 146.5 194.5t259.5 88.5q219 0 347-150.5t128-380.5v-39zm-473 443q-151 0-236.5-100.5t-91.5-229.5h651q-4 127-88 228.5t-235 101.5zm-490-392q0 163-89 272.5t-238.5 109.5-239.5-110-90-271.5 90-273 239.5-111.5 238.5 110.5 89 273.5z" glyph-name="oe" horiz-adv-x="1970" unicode="œ"/><glyph d="M983 1776l-346-295h-117l303 295h160zm-653-1233v-543h-170v1366h549q190 0 309-112t119-294-102.5-286.5-252.5-116.5l369-557h-201l-348 543h-272zm358 149q121 0 197 74t76 188.5-76 187-197 72.5h-358v-522h358z" glyph-name="Racute" horiz-adv-x="1245" unicode="Ŕ"/><glyph d="M741 1434l-346-295h-116l303 295h159zm-434-1434h-153v989h153v-160q137 180 330 181v-158q-27 6-79 6t-134-49-117-109v-700z" glyph-name="racute" horiz-adv-x="675" unicode="ŕ"/><glyph d="M741-292q0-72-41-145t-104-120l-68 53q47 31 81 81t38 95q-3-4-31-4t-52.5 25.5-24.5 65.5 27.5 68 69.5 28 73.5-37.5 31.5-109.5zm-411 835v-543h-170v1366h549q190 0 309-112t119-294-102.5-286.5-252.5-116.5l369-557h-201l-348 543h-272zm358 149q121 0 197 74t76 188.5-76 187-197 72.5h-358v-522h358z" glyph-name="Rcommaaccent" horiz-adv-x="1245" unicode="Ŗ"/><glyph d="M453-292q0-72-41-145t-105-120l-67 53q47 31 80.5 81t37.5 95q-4-4-32-4t-52 25.5-24 65.5 27.5 68 69.5 28 74-37.5 32-109.5zm-146 292h-153v989h153v-160q137 180 330 181v-158q-27 6-79 6t-134-49-117-109v-700z" glyph-name="rcommaaccent" horiz-adv-x="675" unicode="ŗ"/><glyph d="M702 1481h-147l-201 295h105l170-217 164 217h104zm-372-938v-543h-170v1366h549q190 0 309-112t119-294-102.5-286.5-252.5-116.5l369-557h-201l-348 543h-272zm358 149q121 0 197 74t76 188.5-76 187-197 72.5h-358v-522h358z" glyph-name="Rcaron" horiz-adv-x="1245" unicode="Ř"/><glyph d="M469 1139h-147l-201 295h104l170-217 164 217h105zm-162-1139h-153v989h153v-160q137 180 330 181v-158q-27 6-79 6t-134-49-117-109v-700z" glyph-name="rcaron" horiz-adv-x="675" unicode="ř"/><glyph d="M942 1776l-346-295h-117l303 295h160zm-340-1801q-332 0-524 218l100 129q174-195 430-195 166 0 244 70.5t78 153.5-45 132-116 77-157 50.5-173 50-157.5 66.5-115.5 110.5-45 170.5q0 168 133 273t336 105q305 0 485-190l-102-125q-150 164-395 164-123 0-202-60.5t-79-144.5 60.5-131 149.5-69.5 194.5-56.5 194.5-71.5 149.5-121.5 60.5-203q0-168-124-285t-380-117z" glyph-name="Sacute" horiz-adv-x="1200" unicode="Ś"/><glyph d="M813 1434l-346-295h-117l303 295h160zm-346-1459q-252 0-399 156l79 111q51-59 140-100.5t193-41.5 165.5 48 61.5 118-63.5 108-153 57.5-179.5 45-153.5 87.5-63.5 174 99.5 194 269.5 82q223 0 366-144l-71-106q-104 125-295 125-100 0-159.5-43.5t-59.5-107.5 63.5-98 153.5-53.5 179-46 152.5-93 63.5-185.5-102.5-203-286.5-84z" glyph-name="sacute" horiz-adv-x="952" unicode="ś"/><glyph d="M856 1481h-104l-170 217-164-217h-105l195 295h147zm-254-1506q-332 0-524 218l100 129q174-195 430-195 166 0 244 70.5t78 153.5-45 132-116 77-157 50.5-173 50-157.5 66.5-115.5 110.5-45 170.5q0 168 133 273t336 105q305 0 485-190l-102-125q-150 164-395 164-123 0-202-60.5t-79-144.5 60.5-131 149.5-69.5 194.5-56.5 194.5-71.5 149.5-121.5 60.5-203q0-168-124-285t-380-117z" glyph-name="Scircumflex" horiz-adv-x="1200" unicode="Ŝ"/><glyph d="M739 1139h-104l-170 217-164-217h-104l194 295h148zm-272-1164q-252 0-399 156l79 111q51-59 140-100.5t193-41.5 165.5 48 61.5 118-63.5 108-153 57.5-179.5 45-153.5 87.5-63.5 174 99.5 194 269.5 82q223 0 366-144l-71-106q-104 125-295 125-100 0-159.5-43.5t-59.5-107.5 63.5-98 153.5-53.5 179-46 152.5-93 63.5-185.5-102.5-203-286.5-84z" glyph-name="scircumflex" horiz-adv-x="952" unicode="ŝ"/><glyph d="M570-391q-110 0-187 61l39 78q72-59 164-59 51 0 88 23.5t37 62.5q0 72-76 71-47 0-78-34l-68 38 48 127q-287 23-459 216l100 129q174-195 430-195 166 0 244 70.5t78 153.5-45 132-116 77-157 50.5-173 50-157.5 66.5-115.5 110.5-45 170.5q0 168 133 273t336 105q305 0 485-190l-102-125q-150 164-395 164-123 0-202-60.5t-79-144.5 60.5-131 149.5-69.5 194.5-56.5 194.5-71.5 149.5-121.5 60.5-203q0-164-118-279.5t-361-122.5l-35-88q33 23 84 23t89-38 38-106-61.5-112.5-171.5-44.5z" glyph-name="Scedilla" horiz-adv-x="1200" unicode="Ş"/><glyph d="M446-391q-110 0-188 61l39 78q72-59 164-59 51 0 88 23.5t37 62.5q0 72-76 71-47 0-78-34l-67 38 47 127q-215 16-344 154l79 111q51-59 140-100.5t193-41.5 165.5 48 61.5 118-63.5 108-153 57.5-179.5 45-153.5 87.5-63.5 174 99.5 194 269.5 82q223 0 366-144l-71-106q-104 125-295 125-100 0-159.5-43.5t-59.5-107.5 63.5-98 153.5-53.5 179-46 152.5-93 63.5-182.5-92-197.5-262-90.5l-35-90q33 23 84 23t89-38 38-106-61-112.5-171-44.5z" glyph-name="scedilla" horiz-adv-x="952" unicode="ş"/><glyph d="M662 1481h-148l-201 295h105l170-217 164 217h104zm-60-1506q-332 0-524 218l100 129q174-195 430-195 166 0 244 70.5t78 153.5-45 132-116 77-157 50.5-173 50-157.5 66.5-115.5 110.5-45 170.5q0 168 133 273t336 105q305 0 485-190l-102-125q-150 164-395 164-123 0-202-60.5t-79-144.5 60.5-131 149.5-69.5 194.5-56.5 194.5-71.5 149.5-121.5 60.5-203q0-168-124-285t-380-117z" glyph-name="Scaron" horiz-adv-x="1200" unicode="Š"/><glyph d="M545 1139h-148l-200 295h104l170-217 164 217h104zm-78-1164q-252 0-399 156l79 111q51-59 140-100.5t193-41.5 165.5 48 61.5 118-63.5 108-153 57.5-179.5 45-153.5 87.5-63.5 174 99.5 194 269.5 82q223 0 366-144l-71-106q-104 125-295 125-100 0-159.5-43.5t-59.5-107.5 63.5-98 153.5-53.5 179-46 152.5-93 63.5-185.5-102.5-203-286.5-84z" glyph-name="scaron" horiz-adv-x="952" unicode="š"/><glyph d="M698-292q0-72-41-145t-104-120l-68 53q47 31 81 81t38 95q-4-4-32-4t-52 25.5-24 65.5 27.5 68 69.5 28 73.5-37.5 31.5-109.5zm-30 292h-170v1214h-432v152h1036v-152h-434v-1214z" glyph-name="Tcommaaccent" horiz-adv-x="1167" unicode="Ţ"/><glyph d="M416-292q0-72-41-145t-105-120l-67 53q47 31 80.5 81t38.5 95q-4-4-32-4t-52.5 25.5-24.5 65.5 27.5 68 69.5 28 74-37.5 32-109.5zm-78 532q0-127 110-127 58 0 95 41l45-115q-68-64-185-64-219 0-219 232v647h-164v135h164v271h154v-271h201v-135h-201v-614z" glyph-name="tcommaaccent" horiz-adv-x="602" unicode="ţ"/><glyph d="M659 1481h-147l-201 295h105l170-217 164 217h104zm9-1481h-170v1214h-432v152h1036v-152h-434v-1214z" glyph-name="Tcaron" horiz-adv-x="1167" unicode="Ť"/><glyph d="M666 1376q0-72-41-145.5t-105-120.5l-67 53q47 31 80.5 81t37.5 95q-3-4-31-4t-52.5 25.5-24.5 65.5 27.5 68 69.5 28 74-37 32-109zm-328-1136q0-127 110-127 58 0 95 41l45-115q-68-64-185-64-219 0-219 232v647h-164v135h164v271h154v-271h201v-135h-201v-614z" glyph-name="tcaron" horiz-adv-x="641" unicode="ť"/><glyph d="M668 0h-170v602h-308v98h308v514h-432v152h1036v-152h-434v-514h311v-98h-311v-602z" glyph-name="Tbar" horiz-adv-x="1167" unicode="Ŧ"/><glyph d="M338 240q0-127 110-127 58 0 95 41l45-115q-68-64-185-64-219 0-219 232v256h-164v98h164v293h-164v135h164v271h154v-271h201v-135h-201v-293h143v-98h-143v-223z" glyph-name="tbar" horiz-adv-x="602" unicode="ŧ"/><glyph d="M716.5-25q-272.5 0-414.5 148.5t-142 406.5v836h170v-831q0-190 100-299t286.5-109 287 108.5 100.5 299.5v831h170v-834q0-260-142.5-408.5t-415-148.5zm127.5 1502q-51 0-89 29.5t-72 94-84 64.5q-105 0-105-176h-93q0 123 52.5 198.5t146.5 75.5q49 0 87-29.5t74-94 85-64.5q104 0 104 176h92q0-123-52-198.5t-146-75.5z" glyph-name="Utilde" horiz-adv-x="1433" unicode="Ũ"/><glyph d="M307 338q0-225 210-225 97 0 178 43t126 106v727h154v-989h-154v139q-61-70-154.5-117t-197.5-47q-315 0-315 316v698h153v-651zm379 797q-51 0-89 29.5t-72 94-84 64.5q-105 0-105-176h-92q0 123 52 198.5t146 75.5q49 0 87-29.5t74-94 85-64.5 77 44 28 132h92q0-123-52.5-198.5t-146.5-75.5z" glyph-name="utilde" horiz-adv-x="1128" unicode="ũ"/><glyph d="M716.5-25q-272.5 0-414.5 148.5t-142 406.5v836h170v-831q0-190 100-299t286.5-109 287 108.5 100.5 299.5v831h170v-834q0-260-142.5-408.5t-415-148.5zm373.5 1538h-744v99h744v-99z" glyph-name="Umacron" horiz-adv-x="1433" unicode="Ū"/><glyph d="M307 338q0-225 210-225 97 0 178 43t126 106v727h154v-989h-154v139q-61-70-154.5-117t-197.5-47q-315 0-315 316v698h153v-651zm627 833h-744v99h744v-99z" glyph-name="umacron" horiz-adv-x="1128" unicode="ū"/><glyph d="M716.5-25q-272.5 0-414.5 148.5t-142 406.5v836h170v-831q0-190 100-299t286.5-109 287 108.5 100.5 299.5v831h170v-834q0-260-142.5-408.5t-415-148.5zm7.5 1469q-224 0-362 180l76 66q106-148 286-148t282 148l75-66q-133-180-357-180z" glyph-name="Ubreve" horiz-adv-x="1433" unicode="Ŭ"/><glyph d="M307 338q0-225 210-225 97 0 178 43t126 106v727h154v-989h-154v139q-61-70-154.5-117t-197.5-47q-315 0-315 316v698h153v-651zm261 764q-224 0-361 180l76 66q106-148 285-148t282 148l76-66q-134-180-358-180z" glyph-name="ubreve" horiz-adv-x="1128" unicode="ŭ"/><glyph d="M719 1454q-84 0-142.5 59.5t-58.5 142.5 59.5 142.5 141.5 59.5 141.5-59.5 59.5-142.5-58.5-142.5-142.5-59.5zm0 80q49 0 84 36t35 86-34 85-84 35-85-35-35-85 35-86 84-36zm-2.5-1559q-272.5 0-414.5 148.5t-142 406.5v836h170v-831q0-190 100-299t286.5-109 287 108.5 100.5 299.5v831h170v-834q0-260-142.5-408.5t-415-148.5z" glyph-name="Uring" horiz-adv-x="1433" unicode="Ů"/><glyph d="M565 1112q-82 0-141 58.5t-59 142.5 59 143.5 141 59.5 141.5-59.5 59.5-143.5-59.5-142.5-141.5-58.5zm0 80q49 0 84 36t35 86-34 85-84 35-85-35-35-85 35-86 84-36zm-258-854q0-225 210-225 97 0 178 43t126 106v727h154v-989h-154v139q-61-70-154.5-117t-197.5-47q-315 0-315 316v698h153v-651z" glyph-name="uring" horiz-adv-x="1128" unicode="ů"/><glyph d="M716.5-25q-272.5 0-414.5 148.5t-142 406.5v836h170v-831q0-190 100-299t286.5-109 287 108.5 100.5 299.5v831h170v-834q0-260-142.5-408.5t-415-148.5zm110.5 1801l-235-295h-98l192 295h141zm291 0l-235-295h-99l193 295h141z" glyph-name="Uhungarumlaut" horiz-adv-x="1433" unicode="Ű"/><glyph d="M307 338q0-225 210-225 97 0 178 43t126 106v727h154v-989h-154v139q-61-70-154.5-117t-197.5-47q-315 0-315 316v698h153v-651zm367 1096l-236-295h-98l192 295h142zm291 0l-236-295h-98l192 295h142z" glyph-name="uhungarumlaut" horiz-adv-x="1128" unicode="ű"/><glyph d="M717-25q-272 0-414.5 148.5t-142.5 406.5v836h170v-831q0-190 100-299t286.5-109 287 108.5 100.5 299.5v831h170v-834q0-207-91-345t-268-187q-156-78-155-199 0-102 90-102 78 0 106 86l76-43q-53-123-182-123-78 0-130 45t-52 138 80 173h-31z" glyph-name="Uogonek" horiz-adv-x="1433" unicode="Ų"/><glyph d="M307 338q0-225 210-225 97 0 178 43t126 106v727h154v-989q-156-78-156-199 0-102 90-102 78 0 107 86l76-43q-53-123-183-123-78 0-130 45t-52 133q0 117 109 203h-15v139q-61-70-154.5-117t-197.5-47q-315 0-315 316v698h153v-651z" glyph-name="uogonek" horiz-adv-x="1128" unicode="ų"/><glyph d="M1176 1481h-105l-170 217-164-217h-104l194 295h148zm213-1481h-185l-301 1102-301-1102h-184l-389 1366h188l303-1139 314 1139h141l313-1139 301 1139h189z" glyph-name="Wcircumflex" horiz-adv-x="1808" unicode="Ŵ"/><glyph d="M1024 1139h-104l-170 217-164-217h-105l195 295h147zm139-1139h-153l-258 795-258-795h-154l-315 989h159l242-788 260 788h131l260-788 242 788h160z" glyph-name="wcircumflex" horiz-adv-x="1503" unicode="ŵ"/><glyph d="M915 1481h-104l-170 217-164-217h-104l194 295h148zm-188-1481h-170v578l-539 788h199l424-635 424 635h199l-537-788v-578z" glyph-name="Ycircumflex" horiz-adv-x="1282" unicode="Ŷ"/><glyph d="M210-264q50 0 85 22.5t59 81.5l66 150-414 999h166l330-811 327 811h168l-495-1190q-82-197-291-200-64 0-113 14l25 139q37-16 87-16zm564 1403h-104l-170 217-164-217h-105l195 295h147z" glyph-name="ycircumflex" horiz-adv-x="1003" unicode="ŷ"/><glyph d="M952 1579q0-39-28.5-67.5t-67.5-28.5-67.5 28.5-28.5 67.5 28.5 66.5 67.5 27.5 67.5-27.5 28.5-66.5zm-424 0q0-39-27.5-67.5t-67.5-28.5-67.5 28.5-27.5 67.5 28.5 66.5 67.5 27.5 66.5-27.5 27.5-66.5zm199-1579h-170v578l-539 788h199l424-635 424 635h199l-537-788v-578z" glyph-name="Ydieresis" horiz-adv-x="1282" unicode="Ÿ"/><glyph d="M944 1776l-346-295h-117l303 295h160zm154-1776h-1000v141l768 1073h-768v152h985v-141l-768-1073h783v-152z" glyph-name="Zacute" horiz-adv-x="1198" unicode="Ź"/><glyph d="M827 1434l-346-295h-116l303 295h159zm33-1434h-754v119l545 735h-545v135h746v-117l-549-739h557v-133z" glyph-name="zacute" horiz-adv-x="966" unicode="ź"/><glyph d="M1098 0h-1000v141l768 1073h-768v152h985v-141l-768-1073h783v-152zm-504 1479q-39 0-67.5 28.5t-28.5 67.5 28.5 67.5 67.5 28.5 66.5-27.5 27.5-68.5-27.5-68.5-66.5-27.5z" glyph-name="Zdotaccent" horiz-adv-x="1198" unicode="Ż"/><glyph d="M860 0h-754v119l545 735h-545v135h746v-117l-549-739h557v-133zm-379 1137q-39 0-67.5 28.5t-28.5 67.5 28.5 67.5 67.5 28.5 66.5-27.5 27.5-68.5-27.5-68.5-66.5-27.5z" glyph-name="zdotaccent" horiz-adv-x="966" unicode="ż"/><glyph d="M670 1481h-148l-200 295h104l170-217 164 217h104zm428-1481h-1000v141l768 1073h-768v152h985v-141l-768-1073h783v-152z" glyph-name="Zcaron" horiz-adv-x="1198" unicode="Ž"/><glyph d="M549 1139h-148l-200 295h104l170-217 164 217h104zm311-1139h-754v119l545 735h-545v135h746v-117l-549-739h557v-133z" glyph-name="zcaron" horiz-adv-x="966" unicode="ž"/><glyph d="M350 0h-153v854h-164v135h164v76q0 152 76.5 236.5t206.5 84.5 212-75l-63-109q-53 47-125 47t-113-49-41-135v-1065z" glyph-name="longs" horiz-adv-x="579" unicode="ſ"/><glyph d="M100 520v139h168l94 418q31 143 127.5 226t223.5 83 198-73l-75-125q-37 47-107 47t-125-50-76-138l-86-388h285v-139h-315l-189-850h-172l189 850h-140z" glyph-name="florin" horiz-adv-x="882" unicode="ƒ"/><glyph d="M781-25q-300 0-488.5 201t-188.5 506 188.5 506 496.5 201 503-226q84 70 94 156-4-4-30-4t-49 24.5-23 60.5 24.5 62.5 64.5 26.5 70-34.5 30-102.5-38-137.5-96-112.5q121-186 121-420 0-305-189.5-506t-489.5-201zm0 152q226 0 364.5 156.5t138.5 399.5-138 398.5-364 155.5-363.5-155.5-137.5-398.5 137-399.5 363-156.5z" glyph-name="Ohorn" horiz-adv-x="1566" unicode="Ơ"/><glyph d="M889 1126q0 36 25.5 62t65.5 26 69.5-35 29.5-94q0-145-118-245 115-139 115-352t-134.5-363-355.5-150-355.5 149.5-134.5 371 135 370 339 148.5 337-117q76 66 86 147l-22-2q-35 0-58.5 24t-23.5 60zm-303.5-1013q151.5 0 239.5 111.5t88 271-88 270.5-239.5 111-240.5-112.5-89-270.5 89-269.5 240.5-111.5z" glyph-name="ohorn" unicode="ơ"/><glyph d="M1511 1491q0-98-63.5-184t-173.5-131v-644q0-260-142.5-408.5t-415-148.5-414.5 148.5-142 406.5v836h170v-831q0-190 100-299t286.5-109 287 108.5 100.5 299.5v831h170v-111q59 31 102 85.5t47 109.5h-10q-8-2-12-2-35 0-57.5 23.5t-22.5 60.5 25.5 62.5 65.5 25.5 69.5-35 29.5-94z" glyph-name="Uhorn" horiz-adv-x="1433" unicode="Ư"/><glyph d="M307 338q0-225 210-225 97 0 178 43t126 106v727h154v-98q98 74 104 166h-10q-8-2-12-2-35 0-58.5 23.5t-23.5 59.5 25.5 62.5 65.5 26.5 70.5-34.5 30.5-108.5-52-154-140-127v-803h-154v139q-61-70-154.5-117t-197.5-47q-315 0-315 316v698h153v-651z" glyph-name="uhorn" horiz-adv-x="1128" unicode="ư"/><glyph d="M1368 1776l-346-295h-117l303 295h160zm461-1776h-895v303h-539l-186-303h-195l852 1366h963v-152h-725v-440h711v-151h-711v-471h725v-152zm-895 455v735l-455-735h455z" glyph-name="AEacute" horiz-adv-x="1939" unicode="Ǽ"/><glyph d="M1200 1434l-346-295h-117l303 295h160zm526-990h-751q10-145 98-241.5t246-96.5 270 125l74-104q-147-152-365-152-279 0-395 238-53-106-162-172t-261-66-267 87.5-115 241 105.5 239.5 259.5 86q229 0 358-131v176q0 96-74.5 151.5t-197.5 55.5q-193 0-330-138l-72 107q162 164 420 164 131 0 227.5-53.5t123.5-161.5q123 215 366 215 207 0 324.5-149.5t117.5-381.5v-39zm-446 443q-141 0-220-101.5t-85-228.5h600q-2 129-78 229.5t-217 100.5zm-459-518v24q-106 125-297 125-121 0-194.5-56t-73.5-150 73.5-150 197.5-56 209 80.5 85 182.5z" glyph-name="aeacute" horiz-adv-x="1820" unicode="ǽ"/><glyph d="M1130 1776l-346-295h-116l303 295h159zm-348-1801q-199 0-354 93l-45-68h-135l90 133q-233 201-234 549 0 305 188.5 506t489.5 201q188 0 342-86l43 63h136l-86-127q117-96 180-240.5t63-316.5q0-305-189.5-506t-488.5-201zm0 152q225 0 363.5 156.5t138.5 410.5-160 408l-608-903q112-72 266-72zm-501 548q0-251 149-405l606 901q-115 66-254 66-227 0-364-155.5t-137-406.5z" glyph-name="Oslashacute" horiz-adv-x="1566" unicode="Ǿ"/><glyph d="M932 1434l-346-295h-117l303 295h160zm-836-940q0 224 134.5 372t355.5 148q162 0 280-84l47 59h111l-92-117q143-147 143-372t-134-375-355-150q-170 0-291 93l-53-68h-111l98 125q-133 145-133 369zm490-381q152 0 239.5 111.5t87.5 266.5-77 261l-451-570q86-69 201-69zm-330 391q0-150 70-256l448 567q-78 61-188 62-152 0-241-111.5t-89-261.5z" glyph-name="oslashacute" unicode="ǿ"/><glyph d="M707-292q0-72-41-145t-105-120l-67 53q47 31 80.5 81t37.5 95q-4-4-32-4t-52 25.5-24 65.5 27.5 68 69.5 28 74-37.5 32-109.5zm-105 267q-332 0-524 218l100 129q174-195 430-195 166 0 244 70.5t78 153.5-45 132-116 77-157 50.5-173 50-157.5 66.5-115.5 110.5-45 170.5q0 168 133 273t336 105q305 0 485-190l-102-125q-150 164-395 164-123 0-202-60.5t-79-144.5 60.5-131 149.5-69.5 194.5-56.5 194.5-71.5 149.5-121.5 60.5-203q0-168-124-285t-380-117z" glyph-name="Scommaaccent" horiz-adv-x="1200" unicode="Ș"/><glyph d="M596-292q0-72-41-145t-104-120l-68 53q47 31 81 81t38 95q-4-4-32-4t-52.5 25.5-24.5 65.5 27.5 68 69.5 28 74-37.5 32-109.5zm-129 267q-252 0-399 156l79 111q51-59 140-100.5t193-41.5 165.5 48 61.5 118-63.5 108-153 57.5-179.5 45-153.5 87.5-63.5 174 99.5 194 269.5 82q223 0 366-144l-71-106q-104 125-295 125-100 0-159.5-43.5t-59.5-107.5 63.5-98 153.5-53.5 179-46 152.5-93 63.5-185.5-102.5-203-286.5-84z" glyph-name="scommaaccent" horiz-adv-x="952" unicode="ș"/><glyph d="M698-292q0-72-41-145t-104-120l-68 53q47 31 81 81t38 95q-4-4-32-4t-52 25.5-24 65.5 27.5 68 69.5 28 73.5-37.5 31.5-109.5zm-30 292h-170v1214h-432v152h1036v-152h-434v-1214z" glyph-name="uni021A" horiz-adv-x="1167" unicode="Ț"/><glyph d="M416-292q0-72-41-145t-105-120l-67 53q47 31 80.5 81t38.5 95q-4-4-32-4t-52.5 25.5-24.5 65.5 27.5 68 69.5 28 74-37.5 32-109.5zm-78 532q0-127 110-127 58 0 95 41l45-115q-68-64-185-64-219 0-219 232v647h-164v135h164v271h154v-271h201v-135h-201v-614z" glyph-name="uni021B" horiz-adv-x="602" unicode="ț"/><glyph d="M24-401q-131 0-227 73l56 117q63-63 139-63t119 44 43 134v1085h153v-1085q0-145-76-225t-207-80z" glyph-name="uni0237" horiz-adv-x="460" unicode="ȷ"/><glyph d="M692 668h-119v413q0 147-145 148-111 0-188-94v-467h-117v888h117v-337q96 109 237 108 215 0 215-219v-440z" glyph-name="uni02B0" horiz-adv-x="815" unicode="ʰ"/><glyph d="M360 1222q0-81-47-164t-120-136l-76 63q49 33 88 87t45 104q-8-4-40-4t-59.5 29.5-27.5 74.5 31.5 77.5 80.5 32.5 87-41.5 38-122.5z" glyph-name="afii57929" horiz-adv-x="471" unicode="ʼ"/><glyph d="M543 1139h-105l-170 217-164-217h-104l195 295h147z" glyph-name="circumflex" horiz-adv-x="542" unicode="ˆ"/><glyph d="M348 1139h-147l-201 295h104l170-217 164 217h105z" glyph-name="caron" horiz-adv-x="542" unicode="ˇ"/><glyph d="M743 1210h-743v99h743v-99z" glyph-name="uni02C9" horiz-adv-x="743" unicode="ˉ"/><glyph d="M463 1139h-117l-346 295h160z" glyph-name="uni02CB" horiz-adv-x="462" unicode="ˋ"/><glyph d="M362 1102q-224 0-362 180l76 66q106-148 285-148t282 148l76-66q-133-180-357-180z" glyph-name="breve" horiz-adv-x="718" unicode="˘"/><glyph d="M115 1137q-39 0-68 28.5t-29 67.5 29 67.5 68 28.5 66.5-27.5 27.5-68.5-27.5-68.5-66.5-27.5z" glyph-name="dotaccent" horiz-adv-x="227" unicode="˙"/><glyph d="M201 1112q-82 0-141.5 58.5t-59.5 142.5 59.5 143.5 141.5 59.5 141-59.5 59-143.5-59-142.5-141-58.5zm0 80q49 0 83.5 36t34.5 86-33.5 85-83.5 35-85-35-35-85 35-86 84-36z" glyph-name="ring" horiz-adv-x="401" unicode="˚"/><glyph d="M182-381q-78 0-130 45t-52 127 49 147.5 131 108.5l68-47q-156-78-156-199 0-102 90-102 78 0 107 86l76-43q-53-123-183-123z" glyph-name="ogonek" horiz-adv-x="364" unicode="˛"/><glyph d="M442 1135q-51 0-89 29.5t-71 94-92 64.5q-43 0-70.5-44t-27.5-132h-92q0 123 52 198.5t147 75.5q49 0 87-29.5t73-94 85-64.5q105 0 105 176h92q0-123-52.5-198.5t-146.5-75.5z" glyph-name="tilde" horiz-adv-x="641" unicode="˜"/><glyph d="M334 1434l-236-295h-98l193 295h141zm291 0l-236-295h-98l192 295h142z" glyph-name="hungarumlaut" horiz-adv-x="624" unicode="˝"/><glyph d="M180 1618q63 0 105.5-36t42.5-99-39-117h-82q47 47 47 107 0 80-74 79-59 1-82-65l-67 18q37 113 149 113z" glyph-name="hookabovecomb" horiz-adv-x="364" unicode="̉"/><glyph d="M235.5 778q-45.5 0-79 34t-33.5 80 32.5 79 80 33 80-33 32.5-79-33.5-80-79-34zm124.5-735q0-82-47-165t-120-134l-76 61q49 33 88 88.5t45 104.5q-12-6-42-6t-57.5 29.5-27.5 75.5 31.5 79 80.5 33 87-42 38-124z" glyph-name="uni037E" horiz-adv-x="471" unicode=";"/><glyph d="M281 1157h-76l39 410h155z" glyph-name="tonos" horiz-adv-x="407" unicode="΄"/><glyph d="M575 1157h-77l39 410h155zm359 80q0-39-27.5-67.5t-66.5-28.5-67 27.5-28 67.5 28 67.5 67 27.5 66.5-27.5 27.5-66.5zm-551 0q0-39-27.5-67.5t-66.5-28.5-66.5 27.5-27.5 67.5 27.5 67.5 66.5 27.5 66.5-27.5 27.5-66.5z" glyph-name="dieresistonos" horiz-adv-x="1128" unicode="΅"/><glyph d="M373 1157h-76l39 410h156zm956-1157h-194l-121 303h-680l-121-303h-195l549 1366h211zm-366 455l-289 735-291-735h580z" glyph-name="Alphatonos" horiz-adv-x="1347" unicode="Ά"/><glyph d="M49 1157h-76l39 410h156zm1041-1157h-895v1366h895v-152h-725v-440h710v-151h-710v-471h725v-152z" glyph-name="Epsilontonos" horiz-adv-x="1200" unicode="Έ"/><glyph d="M49 1157h-76l39 410h156zm1284-1157h-170v627h-798v-627h-170v1366h170v-588h798v588h170v-1366z" glyph-name="Etatonos" horiz-adv-x="1492" unicode="Ή"/><glyph d="M49 1157h-76l39 410h156zm316-1157h-170v1366h170v-1366z" glyph-name="Iotatonos" horiz-adv-x="522" unicode="Ί"/><glyph d="M121 1157h-76l39 410h156zm660-1182q-300 0-488.5 201t-188.5 506 188.5 506 488.5 201 489.5-201 189.5-506-189.5-506-489.5-201zm0 152q226 0 364.5 156.5t138.5 399.5-138 398.5-364 155.5-363.5-155.5-137.5-398.5 137-399.5 363-156.5z" glyph-name="Omicrontonos" horiz-adv-x="1566" unicode="Ό"/><glyph d="M49 1157h-76l39 410h156zm797-1157h-170v578l-539 788h199l424-635 424 635h198l-536-788v-578z" glyph-name="Upsilontonos" horiz-adv-x="1400" unicode="Ύ"/><glyph d="M121 1157h-76l39 410h156zm29-1005h276q-313 188-313 561 0 297 188.5 486.5t490.5 189.5 489-189.5 187-486.5q0-373-309-561h275v-152h-492v152q145 37 247.5 178.5t102.5 365.5-133 381.5-368.5 157.5-368.5-157.5-133-381.5 103.5-366 248.5-178v-152h-491v152z" glyph-name="Omegatonos" horiz-adv-x="1574" unicode="Ώ"/><glyph d="M256 1157h-78l39 410h156zm358 80q0-39-27.5-67.5t-66.5-28.5-66.5 27.5-27.5 67.5 27.5 67.5 66.5 27.5 66.5-27.5 27.5-66.5zm-551 0q0-39-27.5-67.5t-66.5-28.5-66.5 27.5-27.5 67.5 27.5 67.5 66.5 27.5 66.5-27.5 27.5-66.5zm310-1262q-219 0-219 232v782h153v-758q0-119 96-118 23 0 39 4l13-133q-45-9-82-9z" glyph-name="iotadieresistonos" horiz-adv-x="489" unicode="ΐ"/><glyph d="M1329 0h-194l-121 303h-680l-121-303h-195l549 1366h211zm-366 455l-289 735-291-735h580z" glyph-name="Alpha" horiz-adv-x="1347" unicode="Α"/><glyph d="M782 0h-622v1366h608q176 0 279.5-96t103.5-236-69.5-224.5-170.5-104.5q109-16 188-114.5t79-221.5q0-166-106-267.5t-290-101.5zm-43 774q113 0 174.5 61.5t61.5 158-62.5 158.5-173.5 62h-409v-440h409zm9-622q119 0 186 63.5t67 167.5-66.5 172-186.5 68h-418v-471h418z" glyph-name="Beta" horiz-adv-x="1288" unicode="Β"/><glyph d="M330 0h-170v1366h895v-152h-725v-1214z" glyph-name="Gamma" horiz-adv-x="1126" unicode="Γ"/><glyph d="M1329 0h-1311l549 1366h211zm-244 152l-411 1038-412-1038h823z" glyph-name="Delta" horiz-adv-x="1347" unicode="Δ"/><glyph d="M1055 0h-895v1366h895v-152h-725v-440h710v-151h-710v-471h725v-152z" glyph-name="Epsilon" horiz-adv-x="1165" unicode="Ε"/><glyph d="M1098 0h-1000v141l768 1073h-768v152h985v-141l-768-1073h783v-152z" glyph-name="Zeta" horiz-adv-x="1198" unicode="Ζ"/><glyph d="M1298 0h-170v627h-798v-627h-170v1366h170v-588h798v588h170v-1366z" glyph-name="Eta" horiz-adv-x="1458" unicode="Η"/><glyph d="M1165 623h-764v151h764v-151zm-384-648q-300 0-488.5 201t-188.5 506 188.5 506 488.5 201 489.5-201 189.5-506-189.5-506-489.5-201zm0 152q226 0 364.5 156.5t138.5 399.5-138 398.5-364 155.5-363.5-155.5-137.5-398.5 137-399.5 363-156.5z" glyph-name="Theta" horiz-adv-x="1566" unicode="Θ"/><glyph d="M330 0h-170v1366h170v-1366z" glyph-name="Iota" horiz-adv-x="489" unicode="Ι"/><glyph d="M330 0h-170v1366h170v-707l604 707h213l-569-649 618-717h-211l-518 614-137-155v-459z" glyph-name="Kappa" horiz-adv-x="1230" unicode="Κ"/><glyph d="M1329 0h-194l-461 1190-461-1190h-195l549 1366h211z" glyph-name="Lambda" horiz-adv-x="1347" unicode="Λ"/><glyph d="M1497 0h-170v1124l-465-1124h-69l-463 1124v-1124h-170v1366h243l424-1028 426 1028h244v-1366z" glyph-name="Mu" horiz-adv-x="1656" unicode="Μ"/><glyph d="M1290 0h-164l-796 1090v-1090h-170v1366h174l786-1067v1067h170v-1366z" glyph-name="Nu" horiz-adv-x="1449" unicode="Ν"/><glyph d="M1147 1214h-1034v152h1034v-152zm0-1214h-1036v152h1036v-152zm-12 623h-1008v151h1008v-151z" glyph-name="Xi" horiz-adv-x="1259" unicode="Ξ"/><glyph d="M781-25q-300 0-488.5 201t-188.5 506 188.5 506 488.5 201 489.5-201 189.5-506-189.5-506-489.5-201zm0 152q226 0 364.5 156.5t138.5 399.5-138 398.5-364 155.5-363.5-155.5-137.5-398.5 137-399.5 363-156.5z" glyph-name="Omicron" horiz-adv-x="1566" unicode="Ο"/><glyph d="M1298 0h-170v1214h-798v-1214h-170v1366h1138v-1366z" glyph-name="Pi" horiz-adv-x="1458" unicode="Π"/><glyph d="M330 0h-170v1366h549q199 0 313.5-119t114.5-293-116-292.5-312-118.5h-379v-543zm358 694q121 0 197 73t76 187.5-76 187-197 72.5h-358v-520h358z" glyph-name="Rho" horiz-adv-x="1202" unicode="Ρ"/><glyph d="M1067 152v-152h-956v152l473 548-471 514v152h954v-152h-745l469-512-476-550h752z" glyph-name="Sigma" horiz-adv-x="1177" unicode="Σ"/><glyph d="M668 0h-170v1214h-432v152h1036v-152h-434v-1214z" glyph-name="Tau" horiz-adv-x="1167" unicode="Τ"/><glyph d="M727 0h-170v578l-539 788h199l424-635 424 635h199l-537-788v-578z" glyph-name="Upsilon" horiz-adv-x="1282" unicode="Υ"/><glyph d="M909 0h-170v133q-295 20-465 168t-170 380 170 379.5 465 168.5v137h170v-137q293-20 465-169t172-380-171-378.5-466-168.5v-133zm461 682q0 164-123 270.5t-338 124.5v-790q215 18 338 124.5t123 270.5zm-1089 0q0-164 121.5-270.5t336.5-124.5v790q-215-18-336.5-124.5t-121.5-270.5z" glyph-name="Phi" horiz-adv-x="1650" unicode="Φ"/><glyph d="M1309 0h-205l-436 582-437-582h-206l532 700-502 666h207l406-547 403 547h207l-500-664z" glyph-name="Chi" horiz-adv-x="1335" unicode="Χ"/><glyph d="M901 0h-170v256q-281 20-426 166.5t-145 386.5v557h170v-553q0-176 102.5-280.5t298.5-124.5v958h170v-956q193 18 295 123.5t102 279.5v553h172v-555q0-242-145-388.5t-424-166.5v-256z" glyph-name="Psi" horiz-adv-x="1630" unicode="Ψ"/><glyph d="M141 152h277q-313 188-314 561 0 297 188.5 486.5t490.5 189.5 489.5-189.5 187.5-486.5q0-373-309-561h274v-152h-491v152q145 37 247.5 178.5t102.5 365.5-133 381.5-368.5 157.5-368.5-157.5-133-381.5 103-366 249-178v-152h-492v152z" glyph-name="Omega" horiz-adv-x="1566" unicode="Ω"/><glyph d="M330 0h-170v1366h170v-1366zm221 1614q0-39-28.5-67.5t-67.5-28.5-68 28.5-29 67.5 29 66.5 68 27.5 67.5-27.5 28.5-66.5zm-424 0q0-39-27.5-67.5t-67.5-28.5-67.5 27.5-27.5 67.5 28.5 67.5 67.5 27.5 66.5-27.5 27.5-66.5z" glyph-name="Iotadieresis" horiz-adv-x="489" unicode="Ϊ"/><glyph d="M727 0h-170v578l-539 788h199l424-635 424 635h199l-537-788v-578zm221 1614q0-39-28.5-67.5t-67.5-28.5-67.5 28.5-28.5 67.5 28.5 66.5 67.5 27.5 67.5-27.5 28.5-66.5zm-424 0q0-39-27.5-67.5t-67.5-28.5-67.5 27.5-27.5 67.5 28.5 67.5 67.5 27.5 66.5-27.5 27.5-66.5z" glyph-name="Upsilondieresis" horiz-adv-x="1282" unicode="Ϋ"/><glyph d="M621 1157h-76l39 410h155zm-84-1182q-197 0-319 140.5t-122 377.5 122 379 324 142 326-174v149h156v-758q0-55 24.5-86.5t57.5-31.5 53 4l10-133q-41-8-79-9-186 0-213 183-53-80-144.5-131.5t-195.5-51.5zm36 138q90 0 172 45t125 110v449q-43 68-125.5 114t-171.5 46q-145 0-231-107.5t-86-275.5 86-274.5 231-106.5z" glyph-name="alphatonos" horiz-adv-x="1206" unicode="ά"/><glyph d="M543 1157h-76l39 410h156zm6-1182q-209 0-331 81t-122 200 91.5 180.5 195.5 69.5q-100 12-183 75.5t-83 177.5 126 184.5 328 68.5q252 0 406-158l-80-94q-125 127-332 127-125 0-207-44t-82-120 82-118 211-42h222v-125h-222q-311 0-311-164 0-78 79-125t212-47q231 0 371 134l75-99q-161-162-446-162z" glyph-name="epsilontonos" horiz-adv-x="1052" unicode="έ"/><glyph d="M582 1157h-76l39 410h155zm239-510q-1 230-211 230-96 0-177-45.5t-126-108.5v-723h-153v989h153v-143q57 68 153.5 118t198.5 50q315 0 316-320v-1071h-154v1024z" glyph-name="etatonos" horiz-adv-x="1128" unicode="ή"/><glyph d="M264 1157h-76l39 410h156zm109-1182q-219 0-219 232v782h153v-758q0-119 96-118 23 0 39 4l13-133q-45-9-82-9z" glyph-name="iotatonos" horiz-adv-x="489" unicode="ί"/><glyph d="M586 1157h-78l39 410h155zm358 80q0-39-27.5-67.5t-66.5-28.5-66.5 27.5-27.5 67.5 27.5 67.5 66.5 27.5 66.5-27.5 27.5-66.5zm-551 0q0-39-27.5-67.5t-66.5-28.5-66.5 27.5-27.5 67.5 27.5 67.5 66.5 27.5 66.5-27.5 27.5-66.5zm181-1262q-212 0-316 123t-104 336v555h153v-553q0-152 67.5-237.5t188.5-85.5q154 0 242 113.5t88 285.5q0 258-150 432l138 70q174-219 174-502 0-233-134.5-385t-346.5-152z" glyph-name="upsilondieresistonos" horiz-adv-x="1150" unicode="ΰ"/><glyph d="M537-25q-197 0-319 140.5t-122 377.5 122 379 324 142 326-174v149h156v-758q0-55 24.5-86.5t57.5-31.5 53 4l10-133q-41-8-79-9-186 0-213 183-53-80-144.5-131.5t-195.5-51.5zm36 138q90 0 172 45t125 110v449q-43 68-125.5 114t-171.5 46q-145 0-231-107.5t-86-275.5 86-274.5 231-106.5z" glyph-name="alpha" horiz-adv-x="1206" unicode="α"/><glyph d="M307 932v-664q45-68 128-111.5t177-43.5q147 0 228.5 71.5t81.5 194.5-90.5 187.5-231.5 64.5h-72v137h68q129 0 211 61.5t82 175.5-76.5 179-200.5 65-214.5-82.5-90.5-234.5zm0-1309h-153v1309q0 223 137 338.5t327 115.5 311.5-97 121.5-267q0-135-87-216t-198-101q113-10 214-100.5t101-254.5-120.5-269.5-303.5-105.5q-223 0-350 172v-524z" glyph-name="beta" horiz-adv-x="1177" unicode="β"/><glyph d="M580-377h-154v277q0 309-124 604t-316 485h180q135-135 239.5-366.5t126.5-432.5q113 158 187 377t74 422h153q0-238-100.5-502t-265.5-477v-387z" glyph-name="gamma" horiz-adv-x="1003" unicode="γ"/><glyph d="M590-25q-219 0-356.5 143.5t-137.5 338.5q0 152 79 262t210 166q-168 74-168 221 0 121 98.5 203t268.5 82q227 0 366-144l-71-106q-104 125-295 125-100 0-159.5-44t-59.5-100 38.5-88.5 101-52.5 139.5-43 152.5-58.5 138-86 101.5-138.5 39-204q0-190-133-333t-352-143zm336 476q0 174-92.5 237.5t-142.5 85-138 49.5q-145-43-221-139t-76-228 91-237.5 242-105.5 244 104.5 93 233.5z" glyph-name="delta" unicode="δ"/><glyph d="M549-25q-209 0-331 81t-122 200 91.5 180.5 195.5 69.5q-100 12-183 75.5t-83 177.5 126 184.5 328 68.5q252 0 406-158l-80-94q-125 127-332 127-125 0-207-44t-82-120 82-118 211-42h222v-125h-222q-311 0-311-164 0-78 79-125t212-47q231 0 371 134l75-99q-161-162-446-162z" glyph-name="epsilon" horiz-adv-x="1052" unicode="ε"/><glyph d="M760-98q0 41-26.5 57t-90.5 16q-246 0-396.5 123t-150.5 334q0 465 615 799h-582v135h782v-117q-655-377-655-807 0-158 109.5-243.5t296.5-85.5q137 0 198.5-42.5t61.5-138.5-91-254h-165q94 146 94 224z" glyph-name="zeta" horiz-adv-x="1001" unicode="ζ"/><glyph d="M821 647q-1 230-211 230-96 0-177-45.5t-126-108.5v-723h-153v989h153v-143q57 68 153.5 118t198.5 50q315 0 316-320v-1071h-154v1024z" glyph-name="eta" horiz-adv-x="1128" unicode="η"/><glyph d="M585.5-25q-237.5 0-363.5 200t-126 509 126 508 363.5 199 363.5-199 126-508-126-509-363.5-200zm.5 138q307 0 325 505h-653q10-233 89-369t239-136zm-.5 1140q-157.5 0-237.5-136t-90-363h653q-10 229-89 364t-236.5 135z" glyph-name="theta" unicode="θ"/><glyph d="M373-25q-219 0-219 232v782h153v-758q0-119 96-118 23 0 39 4l13-133q-45-9-82-9z" glyph-name="iota" horiz-adv-x="489" unicode="ι"/><glyph d="M307 0h-153v989h153v-526l520 526h195l-438-448 440-541h-197l-356 444-164-161v-283z" glyph-name="kappa" horiz-adv-x="1052" unicode="κ"/><glyph d="M210 1253q-50 0-87-16l-25 137q45 16 113 17 209-4 291-201l495-1190h-168l-327 811-330-811h-166l414 997-66 150q-25 59-59.5 82.5t-84.5 23.5z" glyph-name="lambda" horiz-adv-x="1003" unicode="λ"/><glyph d="M307-377h-153v1366h153v-651q0-229 225-229 84 0 164 45t125 108v727h154v-758q0-119 96-118 23 0 39 4l12-133q-45-8-82-9-180 0-213 177-55-76-139-126.5t-174-50.5q-154 1-207 99v-451z" glyph-name="mu" horiz-adv-x="1157" unicode="μ"/><glyph d="M793 989h153q0-240-102.5-508t-272.5-481h-153l-412 989h166l336-833q131 182 208 403t77 430z" glyph-name="nu" horiz-adv-x="1003" unicode="ν"/><glyph d="M643-25q-262 0-404.5 99.5t-142.5 277.5q0 141 87 225.5t194 104.5q-98 16-179 84t-81 170 63.5 181 157.5 114h-205v135h760v-135h-383q-100-23-165.5-93.5t-65.5-163.5 89-149.5 222-56.5h293v-133h-293q-150 0-242-64.5t-92-192.5 106.5-196.5 271.5-68.5 226.5-42.5 61.5-138.5-91-254h-165q94 145 94 224 0 41-27 57t-90 16z" glyph-name="xi" horiz-adv-x="1001" unicode="ξ"/><glyph d="M586-25q-221 0-355.5 149.5t-134.5 371 134.5 370 355.5 148.5 355-148.5 134-370-134-371-355-149.5zm-.5 138q151.5 0 239.5 111.5t88 271-88 270.5-239.5 111-240.5-112.5-89-270.5 89-269.5 240.5-111.5z" glyph-name="omicron" unicode="ο"/><glyph d="M1008 0h-154v854h-516v-854h-154v854h-164v135h1151v-135h-163v-854z" glyph-name="pi" horiz-adv-x="1191" unicode="π"/><glyph d="M635-25q-203 0-328 175v-527h-153v873q0 221 126 369.5t336 148.5 337.5-148 127.5-378-121.5-371.5-324.5-141.5zm-33 138q145 0 231.5 107.5t86.5 271.5-82 274.5-224 110.5-224.5-111-82.5-270v-224q41-68 124-113.5t171-45.5z" glyph-name="rho" unicode="ρ"/><glyph d="M647-25q-250 0-400.5 139.5t-150.5 371.5 137.5 380 361.5 148 357-172l-102-94q-94 129-251 129t-250-106.5-93-283.5 108.5-275.5 290.5-98.5q137 0 202-43.5t65-137.5-88-254h-160q94 145 94 224 0 73-121 73z" glyph-name="sigma1" horiz-adv-x="989" unicode="ς"/><glyph d="M1065 461q0-205-130-345.5t-350-140.5-354.5 149.5-134.5 365.5 139.5 357.5 376.5 141.5h508v-137h-235q180-141 180-391zm-152 9q0 140-56 237.5t-148 144.5h-97q-168 0-262-106t-94-258 89-263.5 240.5-111.5 239.5 108.5 88 248.5z" glyph-name="sigma" unicode="σ"/><glyph d="M555 240q-1-127 109-127 58 0 96 41l45-115q-67-64-184-64-220 0-220 232v647h-348v135h852v-135h-350v-614z" glyph-name="tau" horiz-adv-x="958" unicode="τ"/><glyph d="M574-25q-212 0-316 123t-104 336v555h153v-553q0-152 67.5-237.5t188.5-85.5q154 0 242 113.5t88 285.5q0 258-150 432l138 70q174-219 174-502 0-233-134.5-385t-346.5-152z" glyph-name="upsilon" horiz-adv-x="1150" unicode="υ"/><glyph d="M1425 504q0-230-149.5-370t-437.5-157v-354h-154v357q-291 16-439.5 158.5t-148.5 381.5q0 170 102.5 295t264.5 199l65-119q-272-133-272-375 0-172 103.5-279.5t324.5-125.5v899h78q328 0 495.5-140t167.5-370zm-159-6q0 160-108.5 263t-319.5 113v-759q219 16 323.5 119.5t104.5 263.5z" glyph-name="phi" horiz-adv-x="1523" unicode="φ"/><glyph d="M973-377h-172l-303 559-303-559h-170l378 703-358 663h172l281-520 280 520h172l-358-663z" glyph-name="chi" horiz-adv-x="995" unicode="χ"/><glyph d="M838-377h-154v354q-260 16-395 142.5t-135 335.5v534h153v-534q0-147 98.5-234.5t278.5-103.5v1249h154v-1251q178 16 278.5 104t100.5 236v534h153v-534q0-211-136-336t-396-142v-354z" glyph-name="psi" horiz-adv-x="1523" unicode="ψ"/><glyph d="M1556 496q0-221-106.5-371t-280.5-150q-135 0-221 88.5t-121 212.5q-37-127-123-214t-219-87q-176 0-282.5 149.5t-106.5 371.5q0 352 201 518l111-94q-152-141-152-424 0-160 66.5-271.5t181-111.5 180.5 111.5 66 271.5v252h153v-252q0-160 65.5-271.5t180.5-111.5 181.5 111.5 66.5 271.5q0 285-152 424l113 94q198-164 198-518z" glyph-name="omega" horiz-adv-x="1654" unicode="ω"/><glyph d="M553 1237q0-39-28.5-67.5t-67.5-28.5-68 28.5-29 67.5 29 66.5 68 27.5 67.5-27.5 28.5-66.5zm-424 0q0-39-27.5-67.5t-66.5-28.5-67.5 27.5-28.5 67.5 28.5 67.5 67.5 27.5 66.5-27.5 27.5-66.5zm244-1262q-219 0-219 232v782h153v-758q0-119 96-118 23 0 39 4l13-133q-45-9-82-9z" glyph-name="iotadieresis" horiz-adv-x="489" unicode="ϊ"/><glyph d="M881 1237q0-39-29-67.5t-68-28.5-67.5 28.5-28.5 67.5 28.5 66.5 67.5 27.5 68-27.5 29-66.5zm-424 0q0-39-28-67.5t-66.5-28.5-67.5 27.5-29 67.5 29 67.5 67.5 27.5 66.5-27.5 28-66.5zm117-1262q-212 0-316 123t-104 336v555h153v-553q0-152 67.5-237.5t188.5-85.5q154 0 242 113.5t88 285.5q0 258-150 432l138 70q174-219 174-502 0-233-134.5-385t-346.5-152z" glyph-name="upsilondieresis" horiz-adv-x="1150" unicode="ϋ"/><glyph d="M602 1157h-76l39 410h156zm-16-1182q-221 0-355.5 149.5t-134.5 371 134.5 370 355.5 148.5 355-148.5 134-370-134-371-355-149.5zm-.5 138q151.5 0 239.5 111.5t88 271-88 270.5-239.5 111-240.5-112.5-89-270.5 89-269.5 240.5-111.5z" glyph-name="omicrontonos" unicode="ό"/><glyph d="M594 1157h-76l39 410h156zm-20-1182q-212 0-316 123t-104 336v555h153v-553q0-152 67.5-237.5t188.5-85.5q154 0 242 113.5t88 285.5q0 258-150 432l138 70q174-219 174-502 0-233-134.5-385t-346.5-152z" glyph-name="upsilontonos" horiz-adv-x="1150" unicode="ύ"/><glyph d="M844 1157h-76l39 410h156zm712-661q0-221-106.5-371t-280.5-150q-135 0-221 88.5t-121 212.5q-37-127-123-214t-219-87q-176 0-282.5 149.5t-106.5 371.5q0 352 201 518l111-94q-152-141-152-424 0-160 66.5-271.5t181-111.5 180.5 111.5 66 271.5v252h153v-252q0-160 65.5-271.5t180.5-111.5 181.5 111.5 66.5 271.5q0 285-152 424l113 94q198-164 198-518z" glyph-name="omegatonos" horiz-adv-x="1654" unicode="ώ"/><glyph d="M913 1579q0-39-28.5-67.5t-67.5-28.5-67.5 28.5-28.5 67.5 28.5 66.5 67.5 27.5 67.5-27.5 28.5-66.5zm-424 0q0-39-27.5-67.5t-66.5-28.5-67.5 28.5-28.5 67.5 28.5 66.5 67.5 27.5 66.5-27.5 27.5-66.5zm566-1579h-895v1366h895v-152h-725v-440h710v-151h-710v-471h725v-152z" glyph-name="afii10023" horiz-adv-x="1165" unicode="Ё"/><glyph d="M1300 426q0 301-324 301-163 0-308-47v-680h-170v1214h-432v152h1036v-152h-434v-383q172 47 329 48 231 0 352-125t121-328v-16q0-213-124.5-324t-319.5-111v152q127 0 200.5 76t73.5 207v16z" glyph-name="afii10051" horiz-adv-x="1574" unicode="Ђ"/><glyph d="M930 1776l-346-295h-117l303 295h160zm-600-1776h-170v1366h895v-152h-725v-1214z" glyph-name="afii10052" horiz-adv-x="1126" unicode="Ѓ"/><glyph d="M818-25q-310 0-512 198t-202 509 202 509 501 198q328 0 518-271l-143-80q-59 88-159.5 143.5t-215.5 55.5q-203 0-347.5-128t-172.5-335h747v-151h-751q20-219 166.5-357.5t357.5-138.5q115 0 215 54.5t160 144.5l145-80q-199-271-509-271z" glyph-name="afii10053" horiz-adv-x="1384" unicode="Є"/><glyph d="M602-25q-332 0-524 218l100 129q174-195 430-195 166 0 244 70.5t78 153.5-45 132-116 77-157 50.5-173 50-157.5 66.5-115.5 110.5-45 170.5q0 168 133 273t336 105q305 0 485-190l-102-125q-150 164-395 164-123 0-202-60.5t-79-144.5 60.5-131 149.5-69.5 194.5-56.5 194.5-71.5 149.5-121.5 60.5-203q0-168-124-285t-380-117z" glyph-name="afii10054" horiz-adv-x="1200" unicode="Ѕ"/><glyph d="M330 0h-170v1366h170v-1366z" glyph-name="afii10055" horiz-adv-x="489" unicode="І"/><glyph d="M330 0h-170v1366h170v-1366zm221 1579q0-39-28.5-67.5t-67.5-28.5-68 28.5-29 67.5 29 66.5 68 27.5 67.5-27.5 28.5-66.5zm-424 0q0-39-27.5-67.5t-67.5-28.5-67.5 28.5-27.5 67.5 28.5 66.5 67.5 27.5 66.5-27.5 27.5-66.5z" glyph-name="afii10056" horiz-adv-x="489" unicode="Ї"/><glyph d="M365-25q-207 0-342 158l88 129q113-135 248-135t209.5 79 74.5 208v952h170v-954q0-213-120.5-325t-327.5-112z" glyph-name="afii10057" horiz-adv-x="972" unicode="Ј"/><glyph d="M66-25v152q88 0 173.5 63.5t139.5 489.5l84 686h835v-543h379q197 0 312.5-118.5t115.5-292.5-114.5-293-313.5-119h-549v1214h-514l-67-546q-54-435-149-539t-163.5-129-168.5-25zm1591 697h-359v-520h359q121 0 196.5 72.5t75.5 187-75.5 187.5-196.5 73z" glyph-name="afii10058" horiz-adv-x="2170" unicode="Љ"/><glyph d="M160 0v1366h170v-588h798v588h170v-588h404q186 0 294.5-112.5t108.5-277.5-108.5-276.5-294.5-111.5h-574v627h-798v-627h-170zm1138 152h383q111 0 179.5 65.5t68.5 170.5-68.5 172-179.5 67h-383v-475z" glyph-name="afii10059" horiz-adv-x="2170" unicode="Њ"/><glyph d="M1300 0v412q0 315-317 315-170 0-315-47v-680h-170v1214h-432v152h1036v-152h-434v-383q172 47 329 48 233 0 353-126t120-343v-410h-170z" glyph-name="afii10060" horiz-adv-x="1607" unicode="Ћ"/><glyph d="M969 1776l-346-295h-117l303 295h160zm-639-1776h-170v1366h170v-707l604 707h213l-569-649 618-717h-211l-518 614-137-155v-459z" glyph-name="afii10061" horiz-adv-x="1230" unicode="Ќ"/><glyph d="M297-25q-84 0-155.5 31t-110.5 78l71 135q88-92 176-92t134.5 41 105.5 154l25 47-525 997h195l428-846 428 846h195l-596-1124q-72-135-154-201t-217-66zm347 1469q-224 0-361 180l75 66q106-148 286-148t282 148l75-66q-133-180-357-180z" glyph-name="afii10062" horiz-adv-x="1282" unicode="Ў"/><glyph d="M160 0v1366h170v-1214h798v1214h170v-1366h-483v-260h-170v260h-485z" glyph-name="afii10145" horiz-adv-x="1458" unicode="Џ"/><glyph d="M1329 0h-194l-121 303h-680l-121-303h-195l549 1366h211zm-366 455l-289 735-291-735h580z" glyph-name="afii10017" horiz-adv-x="1347" unicode="А"/><glyph d="M160 1366h887v-152h-717v-391h379q197 0 312.5-118.5t115.5-292.5-115-293-313-119h-549v1366zm528-694h-358v-520h358q121 0 197 72.5t76 187-76 187.5-197 73z" glyph-name="afii10018" horiz-adv-x="1202" unicode="Б"/><glyph d="M782 0h-622v1366h608q176 0 279.5-96t103.5-236-69.5-224.5-170.5-104.5q109-16 188-114.5t79-221.5q0-166-106-267.5t-290-101.5zm-43 774q113 0 174.5 61.5t61.5 158-62.5 158.5-173.5 62h-409v-440h409zm9-622q119 0 186 63.5t67 167.5-66.5 172-186.5 68h-418v-471h418z" glyph-name="afii10019" horiz-adv-x="1288" unicode="В"/><glyph d="M330 0h-170v1366h895v-152h-725v-1214z" glyph-name="afii10020" horiz-adv-x="1126" unicode="Г"/><glyph d="M66-252v389q90 6 174.5 65t138.5 478l84 686h835v-1214h125v-404h-170v252h-1017v-252h-170zm1062 404v1062h-514l-67-546q-47-395-209-516h790z" glyph-name="afii10021" horiz-adv-x="1480" unicode="Д"/><glyph d="M1055 0h-895v1366h895v-152h-725v-440h710v-151h-710v-471h725v-152z" glyph-name="afii10022" horiz-adv-x="1165" unicode="Е"/><glyph d="M846 1366h170v-643l551 643h213l-572-649 621-717h-213l-518 614-82-94v-520h-170v520l-82 94-518-614h-211l618 717-569 649h213l549-643v643z" glyph-name="afii10024" horiz-adv-x="1861" unicode="Ж"/><glyph d="M573-25q-172 0-309 63.5t-205 162.5l101 108q61-82 172.5-132t253.5-50 234.5 68.5 92.5 189.5-95 180.5-259 59.5h-278v151h278q145 0 238.5 56t93.5 168-93 173.5-235 61.5q-231 0-387-166l-94 107q82 94 210 152t283 58q209 0 349.5-98t140.5-266q0-135-91-216t-204-101q113-10 214-98.5t101-248.5-141.5-271.5-370.5-111.5z" glyph-name="afii10025" horiz-adv-x="1196" unicode="З"/><glyph d="M160 0v1366h170v-1067l786 1067h174v-1366h-170v1090l-796-1090h-164z" glyph-name="afii10026" horiz-adv-x="1449" unicode="И"/><glyph d="M160 0v1366h170v-1067l786 1067h174v-1366h-170v1090l-796-1090h-164zm566 1444q-224 0-361 180l75 66q106-148 286-148t282 148l75-66q-133-180-357-180z" glyph-name="afii10027" horiz-adv-x="1449" unicode="Й"/><glyph d="M330 0h-170v1366h170v-707l604 707h213l-569-649 618-717h-211l-518 614-137-155v-459z" glyph-name="afii10028" horiz-adv-x="1230" unicode="К"/><glyph d="M66-25v152q88 0 173.5 63.5t139.5 489.5l84 686h835v-1366h-170v1214h-514l-67-546q-54-435-149-539t-163.5-129-168.5-25z" glyph-name="afii10029" horiz-adv-x="1458" unicode="Л"/><glyph d="M1497 0h-170v1124l-465-1124h-69l-463 1124v-1124h-170v1366h243l424-1028 426 1028h244v-1366z" glyph-name="afii10030" horiz-adv-x="1656" unicode="М"/><glyph d="M1298 0h-170v627h-798v-627h-170v1366h170v-588h798v588h170v-1366z" glyph-name="afii10031" horiz-adv-x="1458" unicode="Н"/><glyph d="M781-25q-300 0-488.5 201t-188.5 506 188.5 506 488.5 201 489.5-201 189.5-506-189.5-506-489.5-201zm0 152q226 0 364.5 156.5t138.5 399.5-138 398.5-364 155.5-363.5-155.5-137.5-398.5 137-399.5 363-156.5z" glyph-name="afii10032" horiz-adv-x="1566" unicode="О"/><glyph d="M1298 0h-170v1214h-798v-1214h-170v1366h1138v-1366z" glyph-name="afii10033" horiz-adv-x="1458" unicode="П"/><glyph d="M330 0h-170v1366h549q199 0 313.5-119t114.5-293-116-292.5-312-118.5h-379v-543zm358 694q121 0 197 73t76 187.5-76 187-197 72.5h-358v-520h358z" glyph-name="afii10034" horiz-adv-x="1202" unicode="Р"/><glyph d="M818-25q-310 0-512 198t-202 509 202 509 501 198q328 0 518-271l-143-80q-59 88-159.5 143.5t-215.5 55.5q-225 0-375.5-156.5t-150.5-398.5 150.5-398.5 375.5-156.5q115 0 215 54.5t160 144.5l145-80q-199-271-509-271z" glyph-name="afii10035" horiz-adv-x="1384" unicode="С"/><glyph d="M668 0h-170v1214h-432v152h1036v-152h-434v-1214z" glyph-name="afii10036" horiz-adv-x="1167" unicode="Т"/><glyph d="M297-25q-84 0-155.5 31t-110.5 78l71 135q88-92 176-92t134.5 41 105.5 154l25 47-525 997h195l428-846 428 846h195l-596-1124q-72-135-154-201t-217-66z" glyph-name="afii10037" horiz-adv-x="1282" unicode="У"/><glyph d="M909 0h-170v133q-295 20-465 168t-170 380 170 379.5 465 168.5v137h170v-137q293-20 465-169t172-380-171-378.5-466-168.5v-133zm461 682q0 164-123 270.5t-338 124.5v-790q215 18 338 124.5t123 270.5zm-1089 0q0-164 121.5-270.5t336.5-124.5v790q-215-18-336.5-124.5t-121.5-270.5z" glyph-name="afii10038" horiz-adv-x="1650" unicode="Ф"/><glyph d="M1309 0h-205l-436 582-437-582h-206l532 700-502 666h207l406-547 403 547h207l-500-664z" glyph-name="afii10039" horiz-adv-x="1335" unicode="Х"/><glyph d="M1253-252v252h-1093v1366h170v-1214h798v1214h170v-1214h125v-404h-170z" glyph-name="afii10040" horiz-adv-x="1480" unicode="Ц"/><glyph d="M289 1366v-356q0-315 317-316 170 0 316 47v625h170v-1366h-170v590q-172-47-330-47-233 0-353 126t-120 343v354h170z" glyph-name="afii10041" horiz-adv-x="1251" unicode="Ч"/><glyph d="M1632 1366h170v-1366h-1642v1366h170v-1214h567v1214h170v-1214h565v1214z" glyph-name="afii10042" horiz-adv-x="1961" unicode="Ш"/><glyph d="M1645 1366h170v-1214h122v-404h-170v252h-1597v1366h170v-1214h567v1214h170v-1214h568v1214z" glyph-name="afii10043" horiz-adv-x="1996" unicode="Щ"/><glyph d="M1047 0h-549v1214h-432v152h602v-543h379q197 0 312.5-118.5t115.5-292.5-114.5-293-313.5-119zm-21 672h-358v-520h358q121 0 196.5 72.5t75.5 187-75.5 187.5-196.5 73z" glyph-name="afii10044" horiz-adv-x="1540" unicode="Ъ"/><glyph d="M160 1366h170v-543h379q197 0 312.5-118.5t115.5-292.5-115-293-313-119h-549v1366zm528-694h-358v-520h358q121 0 197 72.5t76 187-76 187.5-197 73zm766-672h-170v1366h170v-1366z" glyph-name="afii10045" horiz-adv-x="1613" unicode="Ы"/><glyph d="M160 1366h170v-543h379q197 0 312.5-118.5t115.5-292.5-115-293-313-119h-549v1366zm528-694h-358v-520h358q121 0 197 72.5t76 187-76 187.5-197 73z" glyph-name="afii10046" horiz-adv-x="1202" unicode="Ь"/><glyph d="M566-25q-310 0-509 271l146 80q59-90 159.5-144.5t215.5-54.5q211 0 357 138t165 358h-750v151h746q-29 207-172.5 335t-345.5 128q-115 0-215.5-55.5t-159.5-143.5l-144 80q190 270 504 270t515.5-197.5 201.5-508.5-202-509-512-198z" glyph-name="afii10047" horiz-adv-x="1384" unicode="Э"/><glyph d="M1253-25q-293 0-479 183.5t-203 468.5h-241v-627h-170v1366h170v-588h243q31 270 216 440.5t471 170.5 476.5-201 190.5-506-190.5-506-483.5-201zm-7 152q226 0 365.5 156.5t139.5 398.5-139.5 398.5-365.5 156.5-363.5-155.5-137.5-398.5 137.5-399.5 363.5-156.5z" glyph-name="afii10048" horiz-adv-x="2031" unicode="Ю"/><glyph d="M109 959q0 181 119.5 294t310.5 113h548v-1366h-169v543h-275l-348-543h-199l369 557q-150 12-253 116.5t-103 285.5zm448-267h361v522h-361q-121 0-196.5-72.5t-75.5-187 76.5-188.5 195.5-74z" glyph-name="afii10049" horiz-adv-x="1245" unicode="Я"/><glyph d="M926 0h-154v113q-125-137-328-138-137 0-241.5 88.5t-104.5 242.5 103.5 238.5 242.5 84.5q211 0 328-135v178q0 98-69.5 153.5t-180.5 55.5q-174 0-303-138l-72 107q158 164 396 164 170 0 276.5-82t106.5-252v-680zm-426 86q184 0 272 123v186q-88 123-272 123-106 0-175-60.5t-69-155.5 69-155.5 175-60.5z" glyph-name="afii10065" horiz-adv-x="1079" unicode="а"/><glyph d="M585.5 113q151.5 0 239.5 111.5t88 271.5-88 270.5-239.5 110.5-240.5-110.5-89-270.5 89-271.5 240.5-111.5zm-.5-138q-222 0-355.5 158t-133.5 408q0 352 127 521t391 204q158 25 218.5 47t60.5 53h149q0-115-124-162t-297-70q-173-24-264-108t-119-223q135 211 372 211 205 0 334-149.5t129-368.5-133-370-355-151z" glyph-name="afii10066" horiz-adv-x="1181" unicode="б"/><glyph d="M709 0h-555v989h544q129 0 204-69.5t75-169.5-46-160-114-80q76-18 128-88t52-154q0-121-76.5-194.5t-211.5-73.5zm-31 135q74 0 117 41.5t43 107.5-43 111-117 45h-371v-305h371zm-6 440q70 0 108.5 38t38.5 102-39 101.5-108 37.5h-365v-279h365z" glyph-name="afii10067" horiz-adv-x="1134" unicode="в"/><glyph d="M846 989v-135h-539v-854h-153v989h692z" glyph-name="afii10068" horiz-adv-x="892" unicode="г"/><glyph d="M37-252v379q76 14 119 91t69 284l64 487h688v-854h115v-387h-154v252h-748v-252h-153zm786 387v719h-399l-45-371q-35-260-143-348h587z" glyph-name="afii10069" horiz-adv-x="1148" unicode="д"/><glyph d="M610-25q-232 0-373 144.5t-141 368.5 139.5 375 353.5 151 342-150.5 128-380.5v-39h-801q10-145 107-243.5t265-98.5 290 125l73-100q-151-152-383-152zm-24 912q-151 0-236.5-100.5t-91.5-229.5h649q-2 127-86 228.5t-235 101.5z" glyph-name="afii10070" horiz-adv-x="1153" unicode="е"/><glyph d="M651 989h154v-434l426 434h194l-440-448 442-541h-196l-357 444-69-69v-375h-154v375l-69 69-357-444h-196l440 541-438 448h194l426-436v436z" glyph-name="afii10072" horiz-adv-x="1456" unicode="ж"/><glyph d="M504-25q-285 0-447 162l76 99q139-133 371-134 133 0 212 47.5t79 124.5q0 164-312 164h-221v125h221q129 0 211 42t82 118-82 120-207 44q-207 0-331-127l-80 94q154 158 405 158 203 2 329-69t126-184-83-177-183-76q104-8 195-69.5t91-180.5-121.5-200-330.5-81z" glyph-name="afii10073" horiz-adv-x="1052" unicode="з"/><glyph d="M154 0v989h153v-756l518 756h152v-989h-154v770l-522-770h-147z" glyph-name="afii10074" horiz-adv-x="1130" unicode="и"/><glyph d="M154 0v989h153v-756l518 756h152v-989h-154v770l-522-770h-147zm412 1102q-224 0-361 180l76 66q106-148 285-148t282 148l76-66q-134-180-358-180z" glyph-name="afii10075" horiz-adv-x="1130" unicode="й"/><glyph d="M307 0h-153v989h153v-526l520 526h195l-438-448 440-541h-197l-356 444-164-161v-283z" glyph-name="afii10076" horiz-adv-x="1052" unicode="к"/><glyph d="M37-25v127q70 0 115 92.5t73 307.5l64 487h688v-989h-154v854h-399l-45-371q-33-272-115-390t-227-118z" glyph-name="afii10077" horiz-adv-x="1130" unicode="л"/><glyph d="M1163 0h-153v776l-322-776h-57l-324 776v-776h-153v989h202l303-733 299 733h205v-989z" glyph-name="afii10078" horiz-adv-x="1316" unicode="м"/><glyph d="M307 0h-153v989h153v-411h516v411h154v-989h-154v442h-516v-442z" glyph-name="afii10079" horiz-adv-x="1130" unicode="н"/><glyph d="M586-25q-221 0-355.5 149.5t-134.5 371 134.5 370 355.5 148.5 355-148.5 134-370-134-371-355-149.5zm-.5 138q151.5 0 239.5 111.5t88 271-88 270.5-239.5 111-240.5-112.5-89-270.5 89-269.5 240.5-111.5z" glyph-name="afii10080" unicode="о"/><glyph d="M977 0h-154v854h-516v-854h-153v989h823v-989z" glyph-name="afii10081" horiz-adv-x="1130" unicode="п"/><glyph d="M635-25q-203 0-328 175v-527h-153v1366h153v-147q55 78 143.5 125t190.5 47q197 0 318.5-140.5t121.5-378-121.5-379-324.5-141.5zm-33 138q145 0 231.5 107.5t86.5 275.5-86 274.5-232 106.5q-88 0-171-46.5t-124-111.5v-447q41-68 124-113.5t171-45.5z" glyph-name="afii10082" unicode="р"/><glyph d="M595-25q-224 0-361.5 148.5t-137.5 372 137.5 371 361.5 147.5 357-172l-102-94q-94 129-251 129t-250-106.5-93-274.5 93-275.5 249-107.5 252 129l102-95q-133-172-357-172z" glyph-name="afii10083" horiz-adv-x="1013" unicode="с"/><glyph d="M487 0h-153v854h-287v135h729v-135h-289v-854z" glyph-name="afii10084" horiz-adv-x="823" unicode="т"/><glyph d="M210-264q50 0 85 22.5t59 81.5l66 150-414 999h166l330-811 327 811h168l-495-1190q-82-197-291-200-64 0-113 14l25 139q37-16 87-16z" glyph-name="afii10085" horiz-adv-x="1003" unicode="у"/><glyph d="M476 1014q163 0 265-174v526h154v-524q45 78 115.5 125t152.5 47q160 0 258.5-140.5t98.5-378-99.5-379-262.5-141.5-263 175v-527h-154v524q-45-78-116.5-125t-153.5-47q-160 0-258 140.5t-98 378 99 379 262 141.5zm38-137q-113 0-178.5-107.5t-65.5-275.5 65.5-274.5 178.5-106.5q70 0 133.5 45t93.5 112v447q-33 68-96 114t-131 46zm606-764q113 0 178.5 107.5t65.5 275.5-65.5 274.5-178.5 106.5q-68 0-131-46.5t-94-111.5v-447q33-68 95-113.5t130-45.5z" glyph-name="afii10086" horiz-adv-x="1634" unicode="ф"/><glyph d="M973 0h-178l-297 406-297-406h-176l378 508-358 481h178l275-377 274 377h178l-358-481z" glyph-name="afii10087" horiz-adv-x="995" unicode="х"/><glyph d="M938-252v252h-784v989h153v-854h516v854h154v-854h115v-387h-154z" glyph-name="afii10088" horiz-adv-x="1148" unicode="ц"/><glyph d="M133 989h154v-278q0-133 61.5-184.5t205.5-51.5 247 53v461h153v-989h-153v403q-131-65-313-65t-268.5 78-86.5 248v325z" glyph-name="afii10089" horiz-adv-x="1107" unicode="ч"/><glyph d="M1296 989h154v-989h-1296v989h153v-854h418v854h154v-854h417v854z" glyph-name="afii10090" horiz-adv-x="1603" unicode="ш"/><glyph d="M1296 989h154v-854h127v-387h-154v252h-1269v989h153v-854h418v854h154v-854h417v854z" glyph-name="afii10091" horiz-adv-x="1634" unicode="щ"/><glyph d="M858 0h-524v854h-287v135h440v-383h371q147 0 229-87t82-216-83-216-228-87zm-16 471h-355v-336h355q82 0 126 46t44 122-44 122-126 46z" glyph-name="afii10092" horiz-adv-x="1249" unicode="ъ"/><glyph d="M154 989h153v-383h371q147 0 229-87t82-216-83-216-228-87h-524v989zm508-518h-355v-336h355q82 0 125.5 46t43.5 122-43.5 122-125.5 46zm643-471h-154v989h154v-989z" glyph-name="afii10093" horiz-adv-x="1458" unicode="ы"/><glyph d="M154 989h153v-383h371q147 0 229-87t82-216-83-216-228-87h-524v989zm508-518h-355v-336h355q82 0 125.5 46t43.5 122-43.5 122-125.5 46z" glyph-name="afii10094" horiz-adv-x="1069" unicode="ь"/><glyph d="M419-25q-224 0-358 172l99 91q100-136 250-136t238.5 90.5 105.5 241.5h-498v133h496q-18 145-108 232.5t-238 87.5-246-135l-99 90q133 172 357 172t363-147.5 139-371-138.5-372-362.5-148.5z" glyph-name="afii10095" horiz-adv-x="1013" unicode="э"/><glyph d="M991-25q-213 0-345 132.5t-148 334.5h-191v-442h-153v989h153v-411h193q25 190 154.5 313t339.5 123 345.5-148.5 135.5-370-135.5-371-348.5-149.5zm-7 138q153 0 241 111.5t88 271-88 270.5-240 111-241-112.5-89-270.5 88-269.5 241-111.5z" glyph-name="afii10096" horiz-adv-x="1570" unicode="ю"/><glyph d="M131 690q0 127 84 213t229 86h523v-989h-154v383h-270l-242-383h-180l264 389q-113 14-183.5 94t-70.5 207zm330-172h352v336h-352q-80 0-126-46t-46-122 45-122 127-46z" glyph-name="afii10097" horiz-adv-x="1120" unicode="я"/><glyph d="M891 1237q0-39-28.5-67.5t-67.5-28.5-68 28.5-29 67.5 29 66.5 68 27.5 67.5-27.5 28.5-66.5zm-424 0q0-39-27.5-67.5t-67.5-28.5-68 27.5-28 67.5 29 67.5 68 27.5 66.5-27.5 27.5-66.5zm143-1262q-232 0-373 144.5t-141 368.5 139.5 375 353.5 151 342-150.5 128-380.5v-39h-801q10-145 107-243.5t265-98.5 290 125l73-100q-151-152-383-152zm-24 912q-151 0-236.5-100.5t-91.5-229.5h649q-2 127-86 228.5t-235 101.5z" glyph-name="afii10071" horiz-adv-x="1153" unicode="ё"/><glyph d="M827 651q-1 226-211 226-96 0-177-45.5t-128-108.5v-723h-153v1096h-140v98h140v172h153v-172h322v-98h-322v-250q57 68 153.5 118t201.5 50q315 0 315-316v-794q0-145-76-225t-209-80-225 73l53 117q64-63 140-63t119.5 44 43.5 134v747z" glyph-name="afii10099" horiz-adv-x="1134" unicode="ђ"/><glyph d="M848 1434l-346-295h-117l303 295h160zm-2-445v-135h-539v-854h-153v989h692z" glyph-name="afii10100" horiz-adv-x="892" unicode="ѓ"/><glyph d="M595-25q-224 0-361.5 148.5t-137.5 372 137.5 371 361.5 147.5 357-172l-98-90q-98 135-246 135t-238.5-87-109.5-233h498v-133h-500q16-152 106-242t240-90 250 136l98-91q-133-172-357-172z" glyph-name="afii10101" horiz-adv-x="1013" unicode="є"/><glyph d="M467-25q-252 0-399 156l79 111q51-59 140-100.5t193-41.5 165.5 48 61.5 118-63.5 108-153 57.5-179.5 45-153.5 87.5-63.5 174 99.5 194 269.5 82q223 0 366-144l-71-106q-104 125-295 125-100 0-159.5-43.5t-59.5-107.5 63.5-98 153.5-53.5 179-46 152.5-93 63.5-185.5-102.5-203-286.5-84z" glyph-name="afii10102" horiz-adv-x="952" unicode="ѕ"/><glyph d="M230 1130q-42 0-72.5 30t-30.5 73 30.5 73.5 72.5 30.5 73-30.5 31-73.5-31-73-73-30zm77-1130h-153v989h153v-989z" glyph-name="afii10103" horiz-adv-x="460" unicode="і"/><glyph d="M539 1237q0-39-29-67.5t-68-28.5-67.5 28.5-28.5 67.5 28.5 66.5 67.5 27.5 68-27.5 29-66.5zm-424 0q0-39-28-67.5t-68-28.5-67.5 27.5-27.5 67.5 29 67.5 67.5 27.5 66.5-27.5 28-66.5zm192-1237h-153v989h153v-989z" glyph-name="afii10104" horiz-adv-x="460" unicode="ї"/><glyph d="M230 1130q-42 0-72.5 30t-30.5 73 30.5 73.5 72.5 30.5 73-30.5 31-73.5-31-73-73-30zm-206-1531q-131 0-227 73l56 117q63-63 139-63t119 44 43 134v1085h153v-1085q0-145-76-225t-207-80z" glyph-name="afii10105" horiz-adv-x="460" unicode="ј"/><glyph d="M37-25v127q70 0 115 92.5t73 307.5l64 487h688v-383h369q147 0 230-87t83-216-83-216-230-87h-523v854h-399l-45-371q-33-272-115-390t-227-118zm1294 496h-354v-336h354q82 0 126 46t44 121-45 122-125 47z" glyph-name="afii10106" horiz-adv-x="1738" unicode="љ"/><glyph d="M307 0h-153v989h153v-411h516v411h154v-411h385q139 0 218-83t79-206-79-206-218-83h-539v442h-516v-442zm1039 442h-369v-307h369q74 0 114.5 42t40.5 111-40.5 111.5-114.5 42.5z" glyph-name="afii10107" horiz-adv-x="1738" unicode="њ"/><glyph d="M827 651q-1 226-211 226-96 0-177-45.5t-128-108.5v-723h-153v1096h-140v98h140v172h153v-172h320v-98h-320v-250q57 68 153.5 118t201.5 50q315 0 315-316v-698h-154v651z" glyph-name="afii10108" horiz-adv-x="1134" unicode="ћ"/><glyph d="M877 1434l-347-295h-116l303 295h160zm-570-1434h-153v989h153v-526l520 526h195l-438-448 440-541h-197l-356 444-164-161v-283z" glyph-name="afii10109" horiz-adv-x="1052" unicode="ќ"/><glyph d="M210-264q50 0 85 22.5t59 81.5l66 150-414 999h166l330-811 327 811h168l-495-1190q-82-197-291-200-64 0-113 14l25 139q37-16 87-16zm295 1366q-224 0-362 180l76 66q105-148 285-148t282 148l76-66q-133-180-357-180z" glyph-name="afii10110" horiz-adv-x="1003" unicode="ў"/><glyph d="M489-258v258h-335v989h153v-854h516v854h154v-989h-334v-258h-154z" glyph-name="afii10193" horiz-adv-x="1130" unicode="џ"/><glyph d="M330 1214v-1214h-170v1366h725v252h170v-404h-725z" glyph-name="afii10050" horiz-adv-x="1126" unicode="Ґ"/><glyph d="M307 854v-854h-153v989h538v258h154v-393h-539z" glyph-name="afii10098" horiz-adv-x="892" unicode="ґ"/><glyph d="M782 0h-622v1366h608q176 0 279.5-96t103.5-236-69.5-224.5-170.5-104.5q109-16 188-114.5t79-221.5q0-166-106-267.5t-290-101.5zm-43 774q113 0 174.5 61.5t61.5 158-62.5 158.5-173.5 62h-409v-440h409zm9-622q119 0 186 63.5t67 167.5-66.5 172-186.5 68h-418v-471h418zm-105 1327q-39 0-67.5 28.5t-28.5 67.5 28.5 67.5 67.5 28.5 66.5-27.5 27.5-68.5-27.5-68.5-66.5-27.5z" glyph-name="uni1E02" horiz-adv-x="1288" unicode="Ḃ"/><glyph d="M602 113q147 0 233.5 106.5t86.5 274.5-86 275.5-234 107.5q-88 0-171-46.5t-124-113.5v-449q41-66 124-110.5t171-44.5zm-295-113h-153v1366h153v-526q129 174 329 174t322.5-143 122.5-379-121.5-376.5-323.5-140.5-329 172v-147zm295 1479q-39 0-67.5 28.5t-28.5 67.5 28.5 67.5 67.5 28.5 66.5-27.5 27.5-68.5-27.5-68.5-66.5-27.5z" glyph-name="uni1E03" horiz-adv-x="1177" unicode="ḃ"/><glyph d="M627 0h-467v1366h467q313 0 506.5-194.5t193.5-490.5-193.5-488.5-506.5-192.5zm0 152q242 0 383 151.5t141 379.5-139.5 379.5-384.5 151.5h-297v-1062h297zm90 1327q-39 0-67.5 28.5t-28.5 67.5 28.5 67.5 67.5 28.5 66.5-27.5 27.5-68.5-27.5-68.5-66.5-27.5z" glyph-name="uni1E0A" horiz-adv-x="1433" unicode="Ḋ"/><glyph d="M1024 0h-154v147q-126-172-328-172t-324 140.5-122 377.5 122 379 323 142 329-174v526h154v-1366zm-451 113q90 0 172 45t125 110v449q-43 68-125.5 114t-171.5 46q-145 0-231-107.5t-86-275.5 86-274.5 231-106.5zm4.5 1366q-38.5 0-67.5 28.5t-29 67.5 29 67.5 67.5 28.5 66.5-27.5 28-68.5-28-68.5-66.5-27.5z" glyph-name="uni1E0B" horiz-adv-x="1177" unicode="ḋ"/><glyph d="M608 1479q-39 0-67.5 28.5t-28.5 67.5 28.5 67.5 67.5 28.5 66.5-27.5 27.5-68.5-27.5-68.5-66.5-27.5zm-278-1479h-170v1366h895v-152h-725v-440h710v-151h-710v-623z" glyph-name="uni1E1E" horiz-adv-x="1126" unicode="Ḟ"/><glyph d="M485 1479q-39 0-67.5 28.5t-28.5 67.5 28.5 67.5 67.5 28.5 67-27.5 28-68.5-28-68.5-67-27.5zm-135-1479h-153v854h-164v135h164v76q0 152 76.5 236.5t206.5 84.5 212-75l-63-101q-55 50-127 50t-112-50.5-40-144.5v-76h201v-135h-201v-854z" glyph-name="uni1E1F" horiz-adv-x="579" unicode="ḟ"/><glyph d="M1298 0h-170v627h-798v-627h-170v1366h170v-588h798v588h170v-1366zm-571 1479q-39 0-67.5 28.5t-28.5 67.5 28.5 67.5 67.5 28.5 66.5-27.5 27.5-68.5-27.5-68.5-66.5-27.5z" glyph-name="uni1E22" horiz-adv-x="1458" unicode="Ḣ"/><glyph d="M823 651q-1 226-211 226-96 0-177-45.5t-128-108.5v-723h-153v1366h153v-520q57 68 153.5 118t201.5 50q315 0 315-316v-698h-154v651zm-258 828q-39 0-67.5 28.5t-28.5 67.5 28.5 67.5 67.5 28.5 66.5-27.5 27.5-68.5-27.5-68.5-66.5-27.5z" glyph-name="uni1E23" horiz-adv-x="1130" unicode="ḣ"/><glyph d="M330 0h-170v1366h549q199 0 313.5-119t114.5-293-116-292.5-312-118.5h-379v-543zm358 694q121 0 197 73t76 187.5-76 187-197 72.5h-358v-520h358zm-88 785q-39 0-67.5 28.5t-28.5 67.5 28.5 67.5 67.5 28.5 66.5-27.5 27.5-68.5-27.5-68.5-66.5-27.5z" glyph-name="uni1E56" horiz-adv-x="1202" unicode="Ṗ"/><glyph d="M635-25q-203 0-328 175v-527h-153v1366h153v-147q55 78 143.5 125t190.5 47q197 0 318.5-140.5t121.5-378-121.5-379-324.5-141.5zm-33 138q145 0 231.5 107.5t86.5 275.5-86 274.5-232 106.5q-88 0-171-46.5t-124-111.5v-447q41-68 124-113.5t171-45.5zm-2 1024q-39 0-67.5 28.5t-28.5 67.5 28.5 67.5 67.5 28.5 66.5-27.5 27.5-68.5-27.5-68.5-66.5-27.5z" glyph-name="uni1E57" unicode="ṗ"/><glyph d="M602-25q-332 0-524 218l100 129q174-195 430-195 166 0 244 70.5t78 153.5-45 132-116 77-157 50.5-173 50-157.5 66.5-115.5 110.5-45 170.5q0 168 133 273t336 105q305 0 485-190l-102-125q-150 164-395 164-123 0-202-60.5t-79-144.5 60.5-131 149.5-69.5 194.5-56.5 194.5-71.5 149.5-121.5 60.5-203q0-168-124-285t-380-117zm-2 1504q-39 0-67.5 28.5t-28.5 67.5 28.5 67.5 67.5 28.5 66.5-27.5 27.5-68.5-27.5-68.5-66.5-27.5z" glyph-name="uni1E60" horiz-adv-x="1200" unicode="Ṡ"/><glyph d="M467-25q-252 0-399 156l79 111q51-59 140-100.5t193-41.5 165.5 48 61.5 118-63.5 108-153 57.5-179.5 45-153.5 87.5-63.5 174 99.5 194 269.5 82q223 0 366-144l-71-106q-104 125-295 125-100 0-159.5-43.5t-59.5-107.5 63.5-98 153.5-53.5 179-46 152.5-93 63.5-185.5-102.5-203-286.5-84zm8 1162q-39 0-67.5 28.5t-28.5 67.5 28.5 67.5 67.5 28.5 66.5-27.5 27.5-68.5-27.5-68.5-66.5-27.5z" glyph-name="uni1E61" horiz-adv-x="952" unicode="ṡ"/><glyph d="M668 0h-170v1214h-432v152h1036v-152h-434v-1214zm-86 1479q-39 0-68 28.5t-29 67.5 29 67.5 68 28.5 66.5-27.5 27.5-68.5-27.5-68.5-66.5-27.5z" glyph-name="uni1E6A" horiz-adv-x="1167" unicode="Ṫ"/><glyph d="M338 240q0-127 110-127 58 0 95 41l45-115q-68-64-185-64-219 0-219 232v647h-164v135h164v271h154v-271h201v-135h-201v-614zm-63.5 1239q-38.5 0-67.5 28.5t-29 67.5 29 67.5 67.5 28.5 66.5-27.5 28-68.5-28-68.5-66.5-27.5z" glyph-name="uni1E6B" horiz-adv-x="602" unicode="ṫ"/><glyph d="M1389 0h-185l-301 1102-301-1102h-184l-389 1366h188l303-1139 314 1139h141l313-1139 301 1139h189zm-369 1481h-117l-346 295h160z" glyph-name="Wgrave" horiz-adv-x="1808" unicode="Ẁ"/><glyph d="M1163 0h-153l-258 795-258-795h-154l-315 989h159l242-788 260 788h131l260-788 242 788h160zm-295 1139h-116l-346 295h159z" glyph-name="wgrave" horiz-adv-x="1503" unicode="ẁ"/><glyph d="M1249 1776l-346-295h-117l304 295h159zm140-1776h-185l-301 1102-301-1102h-184l-389 1366h188l303-1139 314 1139h141l313-1139 301 1139h189z" glyph-name="Wacute" horiz-adv-x="1808" unicode="Ẃ"/><glyph d="M1098 1434l-346-295h-117l303 295h160zm65-1434h-153l-258 795-258-795h-154l-315 989h159l242-788 260 788h131l260-788 242 788h160z" glyph-name="wacute" horiz-adv-x="1503" unicode="ẃ"/><glyph d="M1210 1579q0-39-28.5-67.5t-67.5-28.5-67.5 28.5-28.5 67.5 28.5 66.5 67.5 27.5 67.5-27.5 28.5-66.5zm-424 0q0-39-27.5-67.5t-67.5-28.5-67.5 28.5-27.5 67.5 28.5 66.5 67.5 27.5 66.5-27.5 27.5-66.5zm603-1579h-185l-301 1102-301-1102h-184l-389 1366h188l303-1139 314 1139h141l313-1139 301 1139h189z" glyph-name="Wdieresis" horiz-adv-x="1808" unicode="Ẅ"/><glyph d="M1059 1237q0-39-29-67.5t-67.5-28.5-67.5 28.5-29 67.5 29 66.5 67.5 27.5 67.5-27.5 29-66.5zm-424 0q0-39-27.5-67.5t-67.5-28.5-68 27.5-28 67.5 29 67.5 68 27.5 66.5-27.5 27.5-66.5zm528-1237h-153l-258 795-258-795h-154l-315 989h159l242-788 260 788h131l260-788 242 788h160z" glyph-name="wdieresis" horiz-adv-x="1503" unicode="ẅ"/><glyph d="M1329 0h-194l-121 303h-680l-121-303h-195l549 1366h211zm-366 455l-289 735-291-735h580zm-289-832q-39 0-67.5 29t-28.5 67.5 28.5 67.5 67.5 29 66.5-28 27.5-69-27.5-68.5-66.5-27.5z" glyph-name="uni1EA0" horiz-adv-x="1347" unicode="Ạ"/><glyph d="M926 0h-154v113q-125-137-328-138-137 0-241.5 88.5t-104.5 242.5 103.5 238.5 242.5 84.5q211 0 328-135v178q0 98-69.5 153.5t-180.5 55.5q-174 0-303-138l-72 107q158 164 396 164 170 0 276.5-82t106.5-252v-680zm-426 86q184 0 272 123v186q-88 123-272 123-106 0-175-60.5t-69-155.5 69-155.5 175-60.5zm41-463q-39 0-68 29t-29 67.5 29 67.5 68 29 66.5-28 27.5-69-27.5-68.5-66.5-27.5z" glyph-name="uni1EA1" horiz-adv-x="1079" unicode="ạ"/><glyph d="M1329 0h-194l-121 303h-680l-121-303h-195l549 1366h211zm-366 455l-289 735-291-735h580zm-142 1089q0-64-39-117h-82q47 47 48 107 0 80-74 80-59 0-82-66l-68 19q37 113 150 112 63 0 105-35.5t42-99.5z" glyph-name="uni1EA2" horiz-adv-x="1347" unicode="Ả"/><glyph d="M926 0h-154v113q-125-137-328-138-137 0-241.5 88.5t-104.5 242.5 103.5 238.5 242.5 84.5q211 0 328-135v178q0 98-69.5 153.5t-180.5 55.5q-174 0-303-138l-72 107q158 164 396 164 170 0 276.5-82t106.5-252v-680zm-426 86q184 0 272 123v186q-88 123-272 123-106 0-175-60.5t-69-155.5 69-155.5 175-60.5zm188 1110q0-64-39-117h-82q47 47 47 107 0 80-73 80-59 0-82-66l-68 19q37 113 150 112 63 0 105-35.5t42-99.5z" glyph-name="uni1EA3" horiz-adv-x="1079" unicode="ả"/><glyph d="M948 1397h-104l-170 162-164-162h-104l194 221h148zm381-1397h-194l-121 303h-680l-121-303h-195l549 1366h211zm-366 455l-289 735-291-735h580zm383 1274l-347-222h-116l303 222h160z" glyph-name="uni1EA4" horiz-adv-x="1347" unicode="Ấ"/><glyph d="M926 0h-154v113q-125-137-328-138-137 0-241.5 88.5t-104.5 242.5 103.5 238.5 242.5 84.5q211 0 328-135v178q0 98-69.5 153.5t-180.5 55.5q-174 0-303-138l-72 107q158 164 396 164 170 0 276.5-82t106.5-252v-680zm-426 86q184 0 272 123v186q-88 123-272 123-106 0-175-60.5t-69-155.5 69-155.5 175-60.5zm315 1053h-104l-170 217-164-217h-105l195 295h147zm387 438l-346-295h-117l303 295h160z" glyph-name="uni1EA5" horiz-adv-x="1079" unicode="ấ"/><glyph d="M948 1397h-104l-170 162-164-162h-104l194 221h148zm381-1397h-194l-121 303h-680l-121-303h-195l549 1366h211zm-366 455l-289 735-291-735h580zm-494 1052h-117l-346 222h160z" glyph-name="uni1EA6" horiz-adv-x="1347" unicode="Ầ"/><glyph d="M926 0h-154v113q-125-137-328-138-137 0-241.5 88.5t-104.5 242.5 103.5 238.5 242.5 84.5q211 0 328-135v178q0 98-69.5 153.5t-180.5 55.5q-174 0-303-138l-72 107q158 164 396 164 170 0 276.5-82t106.5-252v-680zm-426 86q184 0 272 123v186q-88 123-272 123-106 0-175-60.5t-69-155.5 69-155.5 175-60.5zm315 1053h-104l-170 217-164-217h-105l195 295h147zm-469 143h-117l-346 295h160z" glyph-name="uni1EA7" horiz-adv-x="1079" unicode="ầ"/><glyph d="M948 1397h-104l-170 162-164-162h-104l194 221h148zm381-1397h-194l-121 303h-680l-121-303h-195l549 1366h211zm-366 455l-289 735-291-735h580zm-5 1257q63 0 105.5-26.5t42.5-73.5-39-88h-82q47 37 47 80 0 59-66 59t-89-49l-68 14q37 84 149 84z" glyph-name="uni1EA8" horiz-adv-x="1347" unicode="Ẩ"/><glyph d="M926 0h-154v113q-125-137-328-138-137 0-241.5 88.5t-104.5 242.5 103.5 238.5 242.5 84.5q211 0 328-135v178q0 98-69.5 153.5t-180.5 55.5q-174 0-303-138l-72 107q158 164 396 164 170 0 276.5-82t106.5-252v-680zm-426 86q184 0 272 123v186q-88 123-272 123-106 0-175-60.5t-69-155.5 69-155.5 175-60.5zm315 1053h-104l-170 217-164-217h-105l195 295h147zm-88 479q63 0 105-36t42-99-38-117h-82q47 47 47 107 0 80-74 79-59 1-82-65l-67 18q37 113 149 113z" glyph-name="uni1EA9" horiz-adv-x="1079" unicode="ẩ"/><glyph d="M948 1389h-104l-170 108-164-108h-104l194 147h148zm381-1389h-194l-121 303h-680l-121-303h-195l549 1366h211zm-366 455l-289 735-291-735h580zm-162 1095q-88 0-151.5 47.5t-106.5 47.5q-98 0-99-89h-92q0 61 52.5 99.5t139.5 38.5 151.5-47.5 107.5-47.5q98 0 98 89h92q0-61-52-99.5t-140-38.5z" glyph-name="uni1EAA" horiz-adv-x="1347" unicode="Ẫ"/><glyph d="M926 0h-154v113q-125-137-328-138-137 0-241.5 88.5t-104.5 242.5 103.5 238.5 242.5 84.5q211 0 328-135v178q0 98-69.5 153.5t-180.5 55.5q-174 0-303-138l-72 107q158 164 396 164 170 0 276.5-82t106.5-252v-680zm-426 86q184 0 272 123v186q-88 123-272 123-106 0-175-60.5t-69-155.5 69-155.5 175-60.5zm315 985h-104l-170 217-164-217h-105l195 295h147zm-153 326q-51 0-89 29.5t-72 94-84 64.5q-106 0-106-176h-92q0 123 52.5 198.5t146.5 75.5q49 0 87-29.5t74-94 85-64.5q104 0 104 176h92q0-123-52-198.5t-146-75.5z" glyph-name="uni1EAB" horiz-adv-x="1079" unicode="ẫ"/><glyph d="M1329 0h-194l-121 303h-680l-121-303h-195l549 1366h211zm-366 455l-289 735-291-735h580zm-17 1026h-104l-170 217-164-217h-105l195 295h147zm-272-1858q-39 0-67.5 29t-28.5 67.5 28.5 67.5 67.5 29 66.5-28 27.5-69-27.5-68.5-66.5-27.5z" glyph-name="uni1EAC" horiz-adv-x="1347" unicode="Ậ"/><glyph d="M926 0h-154v113q-125-137-328-138-137 0-241.5 88.5t-104.5 242.5 103.5 238.5 242.5 84.5q211 0 328-135v178q0 98-69.5 153.5t-180.5 55.5q-174 0-303-138l-72 107q158 164 396 164 170 0 276.5-82t106.5-252v-680zm-426 86q184 0 272 123v186q-88 123-272 123-106 0-175-60.5t-69-155.5 69-155.5 175-60.5zm311 1053h-104l-170 217-164-217h-105l195 295h147zm-270-1516q-39 0-68 29t-29 67.5 29 67.5 68 29 66.5-28 27.5-69-27.5-68.5-66.5-27.5z" glyph-name="uni1EAD" horiz-adv-x="1079" unicode="ậ"/><glyph d="M1329 0h-194l-121 303h-680l-121-303h-195l549 1366h211zm-366 455l-289 735-291-735h580zm55 1263l-346-200h-117l303 200h160zm-342-231q178 0 280 125l76-56q-133-154-357-154t-362 154l76 56q109-125 287-125z" glyph-name="uni1EAE" horiz-adv-x="1347" unicode="Ắ"/><glyph d="M926 0h-154v113q-125-137-328-138-137 0-241.5 88.5t-104.5 242.5 103.5 238.5 242.5 84.5q211 0 328-135v178q0 98-69.5 153.5t-180.5 55.5q-174 0-303-138l-72 107q158 164 396 164 170 0 276.5-82t106.5-252v-680zm-426 86q184 0 272 123v186q-88 123-272 123-106 0-175-60.5t-69-155.5 69-155.5 175-60.5zm391 1483l-346-295h-117l303 295h160zm-347-502q-224 0-362 180l76 66q106-147 286-147t281 147l76-66q-133-180-357-180z" glyph-name="uni1EAF" horiz-adv-x="1079" unicode="ắ"/><glyph d="M1329 0h-194l-121 303h-680l-121-303h-195l549 1366h211zm-366 455l-289 735-291-735h580zm-168 1063h-117l-346 200h160zm-119-37q178 0 280 125l76-56q-133-154-357-154t-362 154l76 56q109-125 287-125z" glyph-name="uni1EB0" horiz-adv-x="1347" unicode="Ằ"/><glyph d="M926 0h-154v113q-125-137-328-138-137 0-241.5 88.5t-104.5 242.5 103.5 238.5 242.5 84.5q211 0 328-135v178q0 98-69.5 153.5t-180.5 55.5q-174 0-303-138l-72 107q158 164 396 164 170 0 276.5-82t106.5-252v-680zm-426 86q184 0 272 123v186q-88 123-272 123-106 0-175-60.5t-69-155.5 69-155.5 175-60.5zm153 1188h-116l-347 295h160zm-109-199q-224 0-362 180l76 66q106-147 286-147t281 147l76-66q-133-180-357-180z" glyph-name="uni1EB1" horiz-adv-x="1079" unicode="ằ"/><glyph d="M1329 0h-194l-121 303h-680l-121-303h-195l549 1366h211zm-366 455l-289 735-291-735h580zm-289 1239q63 0 105-23t42-67-39-80h-82q47 33 48 71 0 55-66 55t-90-44l-68 12q37 76 150 76zm2-209q178 0 280 125l76-56q-133-154-357-154t-362 154l76 56q109-125 287-125z" glyph-name="uni1EB2" horiz-adv-x="1347" unicode="Ẳ"/><glyph d="M926 0h-154v113q-125-137-328-138-137 0-241.5 88.5t-104.5 242.5 103.5 238.5 242.5 84.5q211 0 328-135v178q0 98-69.5 153.5t-180.5 55.5q-174 0-303-138l-72 107q158 164 396 164 170 0 276.5-82t106.5-252v-680zm-426 86q184 0 272 123v186q-88 123-272 123-106 0-175-60.5t-69-155.5 69-155.5 175-60.5zm41 1440q63 0 105-36t42-100-39-116h-82q47 47 47 106 0 80-73 80-59 1-82-65l-68 18q37 113 150 113zm3-451q-224 0-362 180l76 66q106-147 286-147t281 147l76-66q-133-180-357-180z" glyph-name="uni1EB3" horiz-adv-x="1079" unicode="ẳ"/><glyph d="M1329 0h-194l-121 303h-680l-121-303h-195l549 1366h211zm-366 455l-289 735-291-735h580zm-285 997q180 0 280 90l76-41q-133-111-357-111t-362 111l76 41q107-90 287-90zm123 98q-88 0-151.5 47.5t-106.5 47.5q-98 0-99-89h-92q0 61 52.5 99.5t139.5 38.5 151.5-47.5 107.5-47.5q98 0 98 89h92q0-61-52-99.5t-140-38.5z" glyph-name="uni1EB4" horiz-adv-x="1347" unicode="Ẵ"/><glyph d="M926 0h-154v113q-125-137-328-138-137 0-241.5 88.5t-104.5 242.5 103.5 238.5 242.5 84.5q211 0 328-135v178q0 98-69.5 153.5t-180.5 55.5q-174 0-303-138l-72 107q158 164 396 164 170 0 276.5-82t106.5-252v-680zm-426 86q184 0 272 123v186q-88 123-272 123-106 0-175-60.5t-69-155.5 69-155.5 175-60.5zm44 989q-224 0-362 180l76 66q106-147 286-147t281 147l76-66q-133-180-357-180zm118 271q-51 0-89 29.5t-72 94-84 64.5q-106 0-106-176h-92q0 123 52.5 198.5t146.5 75.5q49 0 87-29.5t74-94 85-64.5q104 0 104 176h92q0-123-52-198.5t-146-75.5z" glyph-name="uni1EB5" horiz-adv-x="1079" unicode="ẵ"/><glyph d="M1329 0h-194l-121 303h-680l-121-303h-195l549 1366h211zm-366 455l-289 735-291-735h580zm-289-832q-39 0-67.5 29t-28.5 67.5 28.5 67.5 67.5 29 66.5-28 27.5-69-27.5-68.5-66.5-27.5zm1 1821q-224 0-362 180l76 66q105-148 285-148t282 148l76-66q-133-180-357-180z" glyph-name="uni1EB6" horiz-adv-x="1347" unicode="Ặ"/><glyph d="M926 0h-154v113q-125-137-328-138-137 0-241.5 88.5t-104.5 242.5 103.5 238.5 242.5 84.5q211 0 328-135v178q0 98-69.5 153.5t-180.5 55.5q-174 0-303-138l-72 107q158 164 396 164 170 0 276.5-82t106.5-252v-680zm-426 86q184 0 272 123v186q-88 123-272 123-106 0-175-60.5t-69-155.5 69-155.5 175-60.5zm41-463q-39 0-68 29t-29 67.5 29 67.5 68 29 66.5-28 27.5-69-27.5-68.5-66.5-27.5zm-3 1479q-224 0-362 180l76 66q106-148 286-148t281 148l76-66q-133-180-357-180z" glyph-name="uni1EB7" horiz-adv-x="1079" unicode="ặ"/><glyph d="M1055 0h-895v1366h895v-152h-725v-440h710v-151h-710v-471h725v-152zm-441-377q-39 0-67.5 29t-28.5 67.5 28.5 67.5 67.5 29 67-28 28-69-28-68.5-67-27.5z" glyph-name="uni1EB8" horiz-adv-x="1165" unicode="Ẹ"/><glyph d="M610-25q-232 0-373 144.5t-141 368.5 139.5 375 353.5 151 342-150.5 128-380.5v-39h-801q10-145 107-243.5t265-98.5 290 125l73-100q-151-152-383-152zm-24 912q-151 0-236.5-100.5t-91.5-229.5h649q-2 127-86 228.5t-235 101.5zm0-1264q-39 0-68 29t-29 67.5 29 67.5 68 29 66.5-28 27.5-69-27.5-68.5-66.5-27.5z" glyph-name="uni1EB9" horiz-adv-x="1153" unicode="ẹ"/><glyph d="M1055 0h-895v1366h895v-152h-725v-440h710v-151h-710v-471h725v-152zm-310 1544q0-64-38-117h-82q47 47 47 107 0 80-74 80-59 0-82-66l-67 19q37 113 149 112 63 0 105-35.5t42-99.5z" glyph-name="uni1EBA" horiz-adv-x="1165" unicode="Ẻ"/><glyph d="M610-25q-232 0-373 144.5t-141 368.5 139.5 375 353.5 151 342-150.5 128-380.5v-39h-801q10-145 107-243.5t265-98.5 290 125l73-100q-151-152-383-152zm-24 912q-151 0-236.5-100.5t-91.5-229.5h649q-2 127-86 228.5t-235 101.5zm143 309q0-64-39-117h-82q47 47 47 107 0 80-73 80-59 0-82-66l-68 19q37 113 150 112 63 0 105-35.5t42-99.5z" glyph-name="uni1EBB" horiz-adv-x="1153" unicode="ẻ"/><glyph d="M1055 0h-895v1366h895v-152h-725v-440h710v-151h-710v-471h725v-152zm-324 1477q-51 0-89 29.5t-72 94-84 64.5q-105 0-105-176h-92q0 123 52 198.5t146 75.5q49 0 87-29.5t74-94 85-64.5 77 44 28 132h92q0-123-52.5-198.5t-146.5-75.5z" glyph-name="uni1EBC" horiz-adv-x="1165" unicode="Ẽ"/><glyph d="M610-25q-232 0-373 144.5t-141 368.5 139.5 375 353.5 151 342-150.5 128-380.5v-39h-801q10-145 107-243.5t265-98.5 290 125l73-100q-151-152-383-152zm-24 912q-151 0-236.5-100.5t-91.5-229.5h649q-2 127-86 228.5t-235 101.5zm119 248q-51 0-89 29.5t-72 94-84 64.5q-106 0-106-176h-92q0 123 52.5 198.5t146.5 75.5q49 0 87-29.5t74-94 85-64.5q104 0 104 176h92q0-123-52-198.5t-146-75.5z" glyph-name="uni1EBD" horiz-adv-x="1153" unicode="ẽ"/><glyph d="M889 1397h-105l-170 162-163-162h-105l195 221h147zm397 332l-346-222h-117l303 222h160zm-231-1729h-895v1366h895v-152h-725v-440h710v-151h-710v-471h725v-152z" glyph-name="uni1EBE" horiz-adv-x="1165" unicode="Ế"/><glyph d="M856 1139h-104l-170 217-164-217h-105l195 295h147zm381 438l-346-295h-117l303 295h160zm-627-1602q-232 0-373 144.5t-141 368.5 139.5 375 353.5 151 342-150.5 128-380.5v-39h-801q10-145 107-243.5t265-98.5 290 125l73-100q-151-152-383-152zm-24 912q-151 0-236.5-100.5t-91.5-229.5h649q-2 127-86 228.5t-235 101.5z" glyph-name="uni1EBF" horiz-adv-x="1153" unicode="ế"/><glyph d="M887 1397h-105l-170 162-163-162h-105l195 221h147zm168-1397h-895v1366h895v-152h-725v-440h710v-151h-710v-471h725v-152zm-647 1507h-117l-346 222h159z" glyph-name="uni1EC0" horiz-adv-x="1165" unicode="Ề"/><glyph d="M854 1139h-104l-170 217-164-217h-105l195 295h147zm-244-1164q-232 0-373 144.5t-141 368.5 139.5 375 353.5 151 342-150.5 128-380.5v-39h-801q10-145 107-243.5t265-98.5 290 125l73-100q-151-152-383-152zm-24 912q-151 0-236.5-100.5t-91.5-229.5h649q-2 127-86 228.5t-235 101.5zm-201 395h-117l-346 295h160z" glyph-name="uni1EC1" horiz-adv-x="1153" unicode="ề"/><glyph d="M889 1397h-105l-170 162-163-162h-105l195 221h147zm166-1397h-895v1366h895v-152h-725v-440h710v-151h-710v-471h725v-152zm-156 1712q63 0 105.5-26.5t42.5-73.5-39-88h-82q47 37 47 80-1 59-67 59t-89-49l-67 14q37 84 149 84z" glyph-name="uni1EC2" horiz-adv-x="1165" unicode="Ể"/><glyph d="M852 1139h-104l-170 217-164-217h-105l195 295h147zm-242-1164q-232 0-373 144.5t-141 368.5 139.5 375 353.5 151 342-150.5 128-380.5v-39h-801q10-145 107-243.5t265-98.5 290 125l73-100q-151-152-383-152zm-24 912q-151 0-236.5-100.5t-91.5-229.5h649q-2 127-86 228.5t-235 101.5zm178 731q63 0 105-36t42-99-39-117h-81q47 47 47 107 0 80-74 79-59 1-82-65l-68 18q37 113 150 113z" glyph-name="uni1EC3" horiz-adv-x="1153" unicode="ể"/><glyph d="M889 1389h-105l-170 108-163-108h-105l195 147h147zm166-1389h-895v1366h895v-152h-725v-440h710v-151h-710v-471h725v-152zm-314 1550q-88 0-151.5 47.5t-106.5 47.5q-98 0-98-89h-92q0 61 51.5 99.5t139.5 38.5 152-47.5 107-47.5q98 0 99 89h92q0-61-52.5-99.5t-140.5-38.5z" glyph-name="uni1EC4" horiz-adv-x="1165" unicode="Ễ"/><glyph d="M852 1071h-104l-170 217-164-217h-105l195 295h147zm-242-1096q-232 0-373 144.5t-141 368.5 139.5 375 353.5 151 342-150.5 128-380.5v-39h-801q10-145 107-243.5t265-98.5 290 125l73-100q-151-152-383-152zm-24 912q-151 0-236.5-100.5t-91.5-229.5h649q-2 127-86 228.5t-235 101.5zm110 510q-51 0-89 29.5t-72 94-84 64.5q-105 0-105-176h-92q0 123 52 198.5t147 75.5q49 0 87-29.5t73-94 85-64.5q105 0 105 176h92q0-123-52.5-198.5t-146.5-75.5z" glyph-name="uni1EC5" horiz-adv-x="1153" unicode="ễ"/><glyph d="M877 1481h-105l-170 217-164-217h-104l194 295h148zm178-1481h-895v1366h895v-152h-725v-440h710v-151h-710v-471h725v-152zm-441-377q-39 0-67.5 29t-28.5 67.5 28.5 67.5 67.5 29 67-28 28-69-28-68.5-67-27.5z" glyph-name="uni1EC6" horiz-adv-x="1165" unicode="Ệ"/><glyph d="M858 1139h-104l-170 217-164-217h-105l195 295h147zm-248-1164q-232 0-373 144.5t-141 368.5 139.5 375 353.5 151 342-150.5 128-380.5v-39h-801q10-145 107-243.5t265-98.5 290 125l73-100q-151-152-383-152zm-24 912q-151 0-236.5-100.5t-91.5-229.5h649q-2 127-86 228.5t-235 101.5zm0-1264q-39 0-68 29t-29 67.5 29 67.5 68 29 66.5-28 27.5-69-27.5-68.5-66.5-27.5z" glyph-name="uni1EC7" horiz-adv-x="1153" unicode="ệ"/><glyph d="M330 0h-170v1366h170v-1366zm63 1544q0-64-39-117h-82q47 47 47 107 0 80-73 80-59 0-82-66l-68 19q37 113 150 112 63 0 105-35.5t42-99.5z" glyph-name="uni1EC8" horiz-adv-x="489" unicode="Ỉ"/><glyph d="M307 0h-153v989h153v-989zm72 1196q0-64-39-117h-82q47 47 47 107 0 80-74 80-58 0-81-66l-68 19q37 113 149 112 63 0 105.5-35.5t42.5-99.5z" glyph-name="uni1EC9" horiz-adv-x="460" unicode="ỉ"/><glyph d="M330 0h-170v1366h170v-1366zm-84-377q-39 0-67.5 29t-28.5 67.5 28.5 67.5 67.5 29 66.5-28 27.5-69-27.5-68.5-66.5-27.5z" glyph-name="uni1ECA" horiz-adv-x="489" unicode="Ị"/><glyph d="M230 1130q-42 0-72.5 30t-30.5 73 30.5 73.5 72.5 30.5 73-30.5 31-73.5-31-73-73-30zm77-1130h-153v989h153v-989zm-75.5-377q-38.5 0-67.5 29t-29 67.5 29 67.5 67.5 29 66.5-28 28-69-28-68.5-66.5-27.5z" glyph-name="uni1ECB" horiz-adv-x="460" unicode="ị"/><glyph d="M781-25q-300 0-488.5 201t-188.5 506 188.5 506 488.5 201 489.5-201 189.5-506-189.5-506-489.5-201zm0 152q226 0 364.5 156.5t138.5 399.5-138 398.5-364 155.5-363.5-155.5-137.5-398.5 137-399.5 363-156.5zm5.5-504q-38.5 0-67.5 29t-29 67.5 29 67.5 67.5 29 66.5-28 28-69-28-68.5-66.5-27.5z" glyph-name="uni1ECC" horiz-adv-x="1566" unicode="Ọ"/><glyph d="M586-25q-221 0-355.5 149.5t-134.5 371 134.5 370 355.5 148.5 355-148.5 134-370-134-371-355-149.5zm-.5 138q151.5 0 239.5 111.5t88 271-88 270.5-239.5 111-240.5-112.5-89-270.5 89-269.5 240.5-111.5zm.5-490q-39 0-68 29t-29 67.5 29 67.5 68 29 66.5-28 27.5-69-27.5-68.5-66.5-27.5z" glyph-name="uni1ECD" unicode="ọ"/><glyph d="M781-25q-300 0-488.5 201t-188.5 506 188.5 506 488.5 201 489.5-201 189.5-506-189.5-506-489.5-201zm0 152q226 0 364.5 156.5t138.5 399.5-138 398.5-364 155.5-363.5-155.5-137.5-398.5 137-399.5 363-156.5zm147 1417q0-64-39-117h-82q47 47 47 107 0 80-74 80-59 0-82-66l-67 19q37 113 149 112 63 0 105.5-35.5t42.5-99.5z" glyph-name="uni1ECE" horiz-adv-x="1566" unicode="Ỏ"/><glyph d="M586-25q-221 0-355.5 149.5t-134.5 371 134.5 370 355.5 148.5 355-148.5 134-370-134-371-355-149.5zm-.5 138q151.5 0 239.5 111.5t88 271-88 270.5-239.5 111-240.5-112.5-89-270.5 89-269.5 240.5-111.5zm147.5 1083q0-64-39-117h-82q47 47 47 107 0 80-73 80-59 0-82-66l-68 19q37 113 150 112 63 0 105-35.5t42-99.5z" glyph-name="uni1ECF" unicode="ỏ"/><glyph d="M1051 1397h-105l-170 162-164-162h-104l194 221h148zm397 332l-346-222h-117l303 222h160zm-667-1754q-300 0-488.5 201t-188.5 506 188.5 506 488.5 201 489.5-201 189.5-506-189.5-506-489.5-201zm0 152q226 0 364.5 156.5t138.5 399.5-138 398.5-364 155.5-363.5-155.5-137.5-398.5 137-399.5 363-156.5z" glyph-name="uni1ED0" horiz-adv-x="1566" unicode="Ố"/><glyph d="M858 1139h-104l-170 217-164-217h-105l195 295h147zm383 438l-346-295h-117l303 295h160zm-655-1602q-221 0-355.5 149.5t-134.5 371 134.5 370 355.5 148.5 355-148.5 134-370-134-371-355-149.5zm-.5 138q151.5 0 239.5 111.5t88 271-88 270.5-239.5 111-240.5-112.5-89-270.5 89-269.5 240.5-111.5z" glyph-name="uni1ED1" unicode="ố"/><glyph d="M1049 1397h-105l-170 162-164-162h-104l194 221h148zm-268-1422q-300 0-488.5 201t-188.5 506 188.5 506 488.5 201 489.5-201 189.5-506-189.5-506-489.5-201zm0 152q226 0 364.5 156.5t138.5 399.5-138 398.5-364 155.5-363.5-155.5-137.5-398.5 137-399.5 363-156.5zm-212 1380h-116l-347 222h160z" glyph-name="uni1ED2" horiz-adv-x="1566" unicode="Ồ"/><glyph d="M858 1139h-104l-170 217-164-217h-105l195 295h147zm-272-1164q-221 0-355.5 149.5t-134.5 371 134.5 370 355.5 148.5 355-148.5 134-370-134-371-355-149.5zm-.5 138q151.5 0 239.5 111.5t88 271-88 270.5-239.5 111-240.5-112.5-89-270.5 89-269.5 240.5-111.5zm-196.5 1169h-117l-346 295h160z" glyph-name="uni1ED3" unicode="ồ"/><glyph d="M1049 1397h-105l-170 162-164-162h-104l194 221h148zm-268-1422q-300 0-488.5 201t-188.5 506 188.5 506 488.5 201 489.5-201 189.5-506-189.5-506-489.5-201zm0 152q226 0 364.5 156.5t138.5 399.5-138 398.5-364 155.5-363.5-155.5-137.5-398.5 137-399.5 363-156.5zm278 1585q63 0 105-26.5t42-73.5-39-88h-82q47 37 48 80-1 59-67 59t-89-49l-68 14q37 84 150 84z" glyph-name="uni1ED4" horiz-adv-x="1566" unicode="Ổ"/><glyph d="M858 1139h-104l-170 217-164-217h-105l195 295h147zm-272-1164q-221 0-355.5 149.5t-134.5 371 134.5 370 355.5 148.5 355-148.5 134-370-134-371-355-149.5zm-.5 138q151.5 0 239.5 111.5t88 271-88 270.5-239.5 111-240.5-112.5-89-270.5 89-269.5 240.5-111.5zm182.5 1505q63 0 105-36t42-99-38-117h-82q47 47 47 107 0 80-74 79-59 1-82-65l-68 18q37 113 150 113z" glyph-name="uni1ED5" unicode="ổ"/><glyph d="M1053 1389h-105l-170 108-164-108h-104l195 147h147zm-272-1414q-300 0-488.5 201t-188.5 506 188.5 506 488.5 201 489.5-201 189.5-506-189.5-506-489.5-201zm0 152q226 0 364.5 156.5t138.5 399.5-138 398.5-364 155.5-363.5-155.5-137.5-398.5 137-399.5 363-156.5zm124 1423q-88 0-151.5 47.5t-106.5 47.5q-98 0-98-89h-92q0 61 52 99.5t139 38.5 151.5-47.5 107.5-47.5q98 0 99 89h92q0-61-52.5-99.5t-140.5-38.5z" glyph-name="uni1ED6" horiz-adv-x="1566" unicode="Ỗ"/><glyph d="M854 1071h-104l-170 217-164-217h-105l195 295h147zm-268-1096q-221 0-355.5 149.5t-134.5 371 134.5 370 355.5 148.5 355-148.5 134-370-134-371-355-149.5zm-.5 138q151.5 0 239.5 111.5t88 271-88 270.5-239.5 111-240.5-112.5-89-270.5 89-269.5 240.5-111.5zm114.5 1284q-51 0-89 29.5t-56 64.5-45.5 64.5-65.5 29.5-66-44-28-132h-92q0 123 52 198.5t147 75.5q49 0 87-29.5t74-94 85-64.5q104 0 104 176h92q0-123-52.5-198.5t-146.5-75.5z" glyph-name="uni1ED7" unicode="ỗ"/><glyph d="M1059 1481h-105l-170 217-163-217h-105l195 295h147zm-278-1506q-300 0-488.5 201t-188.5 506 188.5 506 488.5 201 489.5-201 189.5-506-189.5-506-489.5-201zm0 152q226 0 364.5 156.5t138.5 399.5-138 398.5-364 155.5-363.5-155.5-137.5-398.5 137-399.5 363-156.5zm7.5-504q-38.5 0-67.5 29t-29 67.5 29 67.5 67.5 29 66.5-28 28-69-28-68.5-66.5-27.5z" glyph-name="uni1ED8" horiz-adv-x="1566" unicode="Ộ"/><glyph d="M856 1139h-104l-170 217-164-217h-105l195 295h147zm-270-1164q-221 0-355.5 149.5t-134.5 371 134.5 370 355.5 148.5 355-148.5 134-370-134-371-355-149.5zm-.5 138q151.5 0 239.5 111.5t88 271-88 270.5-239.5 111-240.5-112.5-89-270.5 89-269.5 240.5-111.5zm.5-490q-39 0-68 29t-29 67.5 29 67.5 68 29 66.5-28 27.5-69-27.5-68.5-66.5-27.5z" glyph-name="uni1ED9" unicode="ộ"/><glyph d="M1130 1776l-346-295h-116l303 295h159zm-349-1801q-300 0-488.5 201t-188.5 506 188.5 506 496.5 201 503-226q84 70 94 156-4-4-30-4t-49 24.5-23 60.5 24.5 62.5 64.5 26.5 70-34.5 30-102.5-38-137.5-96-112.5q121-186 121-420 0-305-189.5-506t-489.5-201zm0 152q226 0 364.5 156.5t138.5 399.5-138 398.5-364 155.5-363.5-155.5-137.5-398.5 137-399.5 363-156.5z" glyph-name="uni1EDA" horiz-adv-x="1566" unicode="Ớ"/><glyph d="M932 1434l-346-295h-117l303 295h160zm-43-308q0 36 25.5 62t65.5 26 69.5-35 29.5-94q0-145-118-245 115-139 115-352t-134.5-363-355.5-150-355.5 149.5-134.5 371 135 370 339 148.5 337-117q76 66 86 147l-22-2q-35 0-58.5 24t-23.5 60zm-303.5-1013q151.5 0 239.5 111.5t88 271-88 270.5-239.5 111-240.5-112.5-89-270.5 89-269.5 240.5-111.5z" glyph-name="uni1EDB" unicode="ớ"/><glyph d="M781-25q-300 0-488.5 201t-188.5 506 188.5 506 496.5 201 503-226q84 70 94 156-4-4-30-4t-49 24.5-23 60.5 24.5 62.5 64.5 26.5 70-34.5 30-102.5-38-137.5-96-112.5q121-186 121-420 0-305-189.5-506t-489.5-201zm0 152q226 0 364.5 156.5t138.5 399.5-138 398.5-364 155.5-363.5-155.5-137.5-398.5 137-399.5 363-156.5zm120 1354h-117l-346 295h160z" glyph-name="uni1EDC" horiz-adv-x="1566" unicode="Ờ"/><glyph d="M889 1126q0 36 25.5 62t65.5 26 69.5-35 29.5-94q0-145-118-245 115-139 115-352t-134.5-363-355.5-150-355.5 149.5-134.5 371 135 370 339 148.5 337-117q76 66 86 147l-22-2q-35 0-58.5 24t-23.5 60zm-303.5-1013q151.5 0 239.5 111.5t88 271-88 270.5-239.5 111-240.5-112.5-89-270.5 89-269.5 240.5-111.5zm116.5 1026h-116l-346 295h159z" glyph-name="uni1EDD" unicode="ờ"/><glyph d="M781-25q-300 0-488.5 201t-188.5 506 188.5 506 496.5 201 503-226q84 70 94 156-4-4-30-4t-49 24.5-23 60.5 24.5 62.5 64.5 26.5 70-34.5 30-102.5-38-137.5-96-112.5q121-186 121-420 0-305-189.5-506t-489.5-201zm0 152q226 0 364.5 156.5t138.5 399.5-138 398.5-364 155.5-363.5-155.5-137.5-398.5 137-399.5 363-156.5zm149 1417q0-64-39-117h-82q47 47 47 107 0 80-74 80-59 0-82-66l-67 19q37 113 149 112 63 0 105.5-35.5t42.5-99.5z" glyph-name="uni1EDE" horiz-adv-x="1566" unicode="Ở"/><glyph d="M889 1126q0 36 25.5 62t65.5 26 69.5-35 29.5-94q0-145-118-245 115-139 115-352t-134.5-363-355.5-150-355.5 149.5-134.5 371 135 370 339 148.5 337-117q76 66 86 147l-22-2q-35 0-58.5 24t-23.5 60zm-303.5-1013q151.5 0 239.5 111.5t88 271-88 270.5-239.5 111-240.5-112.5-89-270.5 89-269.5 240.5-111.5zm147.5 1083q0-64-39-117h-82q47 47 47 107 0 80-73 80-59 0-82-66l-68 19q37 113 150 112 63 0 105-35.5t42-99.5z" glyph-name="uni1EDF" unicode="ở"/><glyph d="M781-25q-300 0-488.5 201t-188.5 506 188.5 506 496.5 201 503-226q84 70 94 156-4-4-30-4t-49 24.5-23 60.5 24.5 62.5 64.5 26.5 70-34.5 30-102.5-38-137.5-96-112.5q121-186 121-420 0-305-189.5-506t-489.5-201zm0 152q226 0 364.5 156.5t138.5 399.5-138 398.5-364 155.5-363.5-155.5-137.5-398.5 137-399.5 363-156.5zm124 1350q-51 0-89 29.5t-72 94-84 64.5q-105 0-105-176h-92q0 123 52 198.5t147 75.5q49 0 86.5-29.5t73.5-94 85-64.5 77 44 28 132h92q0-123-52.5-198.5t-146.5-75.5z" glyph-name="uni1EE0" horiz-adv-x="1566" unicode="Ỡ"/><glyph d="M889 1126q0 36 25.5 62t65.5 26 69.5-35 29.5-94q0-145-118-245 115-139 115-352t-134.5-363-355.5-150-355.5 149.5-134.5 371 135 370 339 148.5 337-117q76 66 86 147l-22-2q-35 0-58.5 24t-23.5 60zm-303.5-1013q151.5 0 239.5 111.5t88 271-88 270.5-239.5 111-240.5-112.5-89-270.5 89-269.5 240.5-111.5zm121.5 1022q-51 0-89 29.5t-72 94-84 64.5q-106 0-106-176h-92q0 123 52.5 198.5t146.5 75.5q49 0 87-29.5t74-94 85-64.5q104 0 104 176h92q0-123-52-198.5t-146-75.5z" glyph-name="uni1EE1" unicode="ỡ"/><glyph d="M781-25q-300 0-488.5 201t-188.5 506 188.5 506 496.5 201 503-226q84 70 94 156-4-4-30-4t-49 24.5-23 60.5 24.5 62.5 64.5 26.5 70-34.5 30-102.5-38-137.5-96-112.5q121-186 121-420 0-305-189.5-506t-489.5-201zm0 152q226 0 364.5 156.5t138.5 399.5-138 398.5-364 155.5-363.5-155.5-137.5-398.5 137-399.5 363-156.5zm5.5-504q-38.5 0-67.5 29t-29 67.5 29 67.5 67.5 29 66.5-28 28-69-28-68.5-66.5-27.5z" glyph-name="uni1EE2" horiz-adv-x="1566" unicode="Ợ"/><glyph d="M889 1126q0 36 25.5 62t65.5 26 69.5-35 29.5-94q0-145-118-245 115-139 115-352t-134.5-363-355.5-150-355.5 149.5-134.5 371 135 370 339 148.5 337-117q76 66 86 147l-22-2q-35 0-58.5 24t-23.5 60zm-303.5-1013q151.5 0 239.5 111.5t88 271-88 270.5-239.5 111-240.5-112.5-89-270.5 89-269.5 240.5-111.5zm.5-490q-39 0-68 29t-29 67.5 29 67.5 68 29 66.5-28 27.5-69-27.5-68.5-66.5-27.5z" glyph-name="uni1EE3" unicode="ợ"/><glyph d="M716.5-25q-272.5 0-414.5 148.5t-142 406.5v836h170v-831q0-190 100-299t286.5-109 287 108.5 100.5 299.5v831h170v-834q0-260-142.5-408.5t-415-148.5zm8.5-352q-39 0-67.5 29t-28.5 67.5 28.5 67.5 67.5 29 66.5-28 27.5-69-27.5-68.5-66.5-27.5z" glyph-name="uni1EE4" horiz-adv-x="1433" unicode="Ụ"/><glyph d="M307 338q0-225 210-225 97 0 178 43t126 106v727h154v-989h-154v139q-61-70-154.5-117t-197.5-47q-315 0-315 316v698h153v-651zm262-715q-39 0-67.5 29t-28.5 67.5 28.5 67.5 67.5 29 67-28 28-69-28-68.5-67-27.5z" glyph-name="uni1EE5" horiz-adv-x="1128" unicode="ụ"/><glyph d="M716.5-25q-272.5 0-414.5 148.5t-142 406.5v836h170v-831q0-190 100-299t286.5-109 287 108.5 100.5 299.5v831h170v-834q0-260-142.5-408.5t-415-148.5zm149.5 1569q0-64-39-117h-82q47 47 48 107 0 80-74 80-59 0-82-66l-68 19q37 113 150 112 63 0 105-35.5t42-99.5z" glyph-name="uni1EE6" horiz-adv-x="1433" unicode="Ủ"/><glyph d="M307 338q0-225 210-225 97 0 178 43t126 106v727h154v-989h-154v139q-61-70-154.5-117t-197.5-47q-315 0-315 316v698h153v-651zm406 858q0-64-39-117h-82q47 47 47 107 0 80-74 80-59 0-82-66l-67 19q37 113 149 112 63 0 105.5-35.5t42.5-99.5z" glyph-name="uni1EE7" horiz-adv-x="1128" unicode="ủ"/><glyph d="M1063 1776l-346-295h-117l303 295h160zm448-285q0-98-63.5-184t-173.5-131v-644q0-260-142.5-408.5t-415-148.5-414.5 148.5-142 406.5v836h170v-831q0-190 100-299t286.5-109 287 108.5 100.5 299.5v831h170v-111q59 31 102 85.5t47 109.5h-10q-8-2-12-2-35 0-57.5 23.5t-22.5 60.5 25.5 62.5 65.5 25.5 69.5-35 29.5-94z" glyph-name="uni1EE8" horiz-adv-x="1433" unicode="Ứ"/><glyph d="M909 1434l-346-295h-117l304 295h159zm-602-1096q0-225 210-225 97 0 178 43t126 106v727h154v-98q98 74 104 166h-10q-8-2-12-2-35 0-58.5 23.5t-23.5 59.5 25.5 62.5 65.5 26.5 70.5-34.5 30.5-108.5-52-154-140-127v-803h-154v139q-61-70-154.5-117t-197.5-47q-315 0-315 316v698h153v-651z" glyph-name="uni1EE9" horiz-adv-x="1128" unicode="ứ"/><glyph d="M834 1481h-117l-346 295h159zm677 10q0-98-63.5-184t-173.5-131v-644q0-260-142.5-408.5t-415-148.5-414.5 148.5-142 406.5v836h170v-831q0-190 100-299t286.5-109 287 108.5 100.5 299.5v831h170v-111q59 31 102 85.5t47 109.5h-10q-8-2-12-2-35 0-57.5 23.5t-22.5 60.5 25.5 62.5 65.5 25.5 69.5-35 29.5-94z" glyph-name="uni1EEA" horiz-adv-x="1433" unicode="Ừ"/><glyph d="M680 1139h-117l-346 295h160zm-373-801q0-225 210-225 97 0 178 43t126 106v727h154v-98q98 74 104 166h-10q-8-2-12-2-35 0-58.5 23.5t-23.5 59.5 25.5 62.5 65.5 26.5 70.5-34.5 30.5-108.5-52-154-140-127v-803h-154v139q-61-70-154.5-117t-197.5-47q-315 0-315 316v698h153v-651z" glyph-name="uni1EEB" horiz-adv-x="1128" unicode="ừ"/><glyph d="M866 1544q0-64-39-117h-82q47 47 48 107 0 80-74 80-59 0-82-66l-68 19q37 113 150 112 63 0 105-35.5t42-99.5zm645-53q0-98-63.5-184t-173.5-131v-644q0-260-142.5-408.5t-415-148.5-414.5 148.5-142 406.5v836h170v-831q0-190 100-299t286.5-109 287 108.5 100.5 299.5v831h170v-111q59 31 102 85.5t47 109.5h-10q-8-2-12-2-35 0-57.5 23.5t-22.5 60.5 25.5 62.5 65.5 25.5 69.5-35 29.5-94z" glyph-name="uni1EEC" horiz-adv-x="1433" unicode="Ử"/><glyph d="M713 1196q0-64-39-117h-82q47 47 47 107 0 80-74 80-59 0-82-66l-67 19q37 113 149 112 63 0 105.5-35.5t42.5-99.5zm-406-858q0-225 210-225 97 0 178 43t126 106v727h154v-98q98 74 104 166h-10q-8-2-12-2-35 0-58.5 23.5t-23.5 59.5 25.5 62.5 65.5 26.5 70.5-34.5 30.5-108.5-52-154-140-127v-803h-154v139q-61-70-154.5-117t-197.5-47q-315 0-315 316v698h153v-651z" glyph-name="uni1EED" horiz-adv-x="1128" unicode="ử"/><glyph d="M1511 1491q0-98-63.5-184t-173.5-131v-644q0-260-142.5-408.5t-415-148.5-414.5 148.5-142 406.5v836h170v-831q0-190 100-299t286.5-109 287 108.5 100.5 299.5v831h170v-111q59 31 102 85.5t47 109.5h-10q-8-2-12-2-35 0-57.5 23.5t-22.5 60.5 25.5 62.5 65.5 25.5 69.5-35 29.5-94zm-671-14q-51 0-89 29.5t-72 94-84 64.5q-106 0-106-176h-92q0 123 52.5 198.5t146.5 75.5q49 0 87-29.5t74-94 85-64.5q104 0 104 176h92q0-123-52-198.5t-146-75.5z" glyph-name="uni1EEE" horiz-adv-x="1433" unicode="Ữ"/><glyph d="M307 338q0-225 210-225 97 0 178 43t126 106v727h154v-98q98 74 104 166h-10q-8-2-12-2-35 0-58.5 23.5t-23.5 59.5 25.5 62.5 65.5 26.5 70.5-34.5 30.5-108.5-52-154-140-127v-803h-154v139q-61-70-154.5-117t-197.5-47q-315 0-315 316v698h153v-651zm379 797q-51 0-89 29.5t-72 94-84 64.5q-105 0-105-176h-92q0 123 52 198.5t146 75.5q49 0 87-29.5t74-94 85-64.5 77 44 28 132h92q0-123-52.5-198.5t-146.5-75.5z" glyph-name="uni1EEF" horiz-adv-x="1128" unicode="ữ"/><glyph d="M725-377q-39 0-67.5 29t-28.5 67.5 28.5 67.5 67.5 29 66.5-28 27.5-69-27.5-68.5-66.5-27.5zm786 1868q0-98-63.5-184t-173.5-131v-644q0-260-142.5-408.5t-415-148.5-414.5 148.5-142 406.5v836h170v-831q0-190 100-299t286.5-109 287 108.5 100.5 299.5v831h170v-111q59 31 102 85.5t47 109.5h-10q-8-2-12-2-35 0-57.5 23.5t-22.5 60.5 25.5 62.5 65.5 25.5 69.5-35 29.5-94z" glyph-name="uni1EF0" horiz-adv-x="1433" unicode="Ự"/><glyph d="M569-377q-39 0-67.5 29t-28.5 67.5 28.5 67.5 67.5 29 67-28 28-69-28-68.5-67-27.5zm-262 715q0-225 210-225 97 0 178 43t126 106v727h154v-98q98 74 104 166h-10q-8-2-12-2-35 0-58.5 23.5t-23.5 59.5 25.5 62.5 65.5 26.5 70.5-34.5 30.5-108.5-52-154-140-127v-803h-154v139q-61-70-154.5-117t-197.5-47q-315 0-315 316v698h153v-651z" glyph-name="uni1EF1" horiz-adv-x="1128" unicode="ự"/><glyph d="M727 0h-170v578l-539 788h199l424-635 424 635h199l-537-788v-578zm31 1481h-117l-346 295h160z" glyph-name="Ygrave" horiz-adv-x="1282" unicode="Ỳ"/><glyph d="M210-264q50 0 85 22.5t59 81.5l66 150-414 999h166l330-811 327 811h168l-495-1190q-82-197-291-200-64 0-113 14l25 139q37-16 87-16zm408 1403h-116l-346 295h159z" glyph-name="ygrave" horiz-adv-x="1003" unicode="ỳ"/><glyph glyph-name="uni2009" horiz-adv-x="104"/><glyph d="M1153 428h-1092v135h1092v-135z" glyph-name="endash" horiz-adv-x="1214" unicode="–"/><glyph d="M1645 428h-1584v135h1584v-135z" glyph-name="emdash" horiz-adv-x="1705" unicode="—"/><glyph d="M1153 428h-1092v135h1092v-135z" glyph-name="afii00208" horiz-adv-x="1214" unicode="―"/><glyph d="M334 1032q0-45-32-76.5t-81-31.5-87 41.5-38 122.5 46 163 120 135l76-61q-49-33-87-87t-44-103l26 2q43 0 72-30t29-75z" glyph-name="quoteleft" horiz-adv-x="471" unicode="‘"/><glyph d="M360 1222q0-81-47-164t-120-136l-76 63q49 33 88 87t45 104q-8-4-40-4t-59.5 29.5-27.5 74.5 31.5 77.5 80.5 32.5 87-41.5 38-122.5z" glyph-name="quoteright" horiz-adv-x="471" unicode="’"/><glyph d="M360 40q0-81-47-164t-120-136l-76 63q51 33 89 87.5t44 103.5q-8-4-40-4t-59.5 29.5-27.5 74.5 31.5 78 80.5 33 87-42 38-123z" glyph-name="quotesinglbase" horiz-adv-x="471" unicode="‚"/><glyph d="M111 1222q0 81 36.5 122.5t86.5 41.5 82-32.5 32-77.5-29-75-59-30-39 5q6-49 44-103.5t87-87.5l-76-63q-74 53-119.5 136t-45.5 164z" glyph-name="quotereversed" horiz-adv-x="471" unicode="‛"/><glyph d="M111 1088q0 81 46 163t119 135l76-61q-49-33-88-87t-43-103h10q10 2 17 2 43 0 70.5-30t27.5-75-31.5-76.5-80.5-31.5-86 41.5-37 122.5zm327 0q0 81 46 163t120 135l76-61q-49-33-87-87t-44-103h10q10 2 16 2 43 0 72-30t29-75-33-76.5-82-31.5-86 41.5-37 122.5z" glyph-name="quotedblleft" horiz-adv-x="798" unicode="“"/><glyph d="M688 1222q0-81-47-164t-119-136l-76 63q49 33 87 87t45 104q-8-4-39-4t-59.5 29.5-28.5 74.5 31.5 77.5 80.5 32.5 87-41.5 38-122.5zm-328 0q0-81-47-164t-120-136l-76 63q49 33 88 87t45 104q-8-4-40-4t-59.5 29.5-27.5 74.5 31.5 77.5 80.5 32.5 87-41.5 38-122.5z" glyph-name="quotedblright" horiz-adv-x="798" unicode="”"/><glyph d="M360 40q0-81-47-164t-120-136l-76 63q51 33 89 87.5t44 103.5q-8-4-40-4t-59.5 29.5-27.5 74.5 31.5 78 80.5 33 87-42 38-123zm328 0q0-81-47-164t-119-136l-76 63q49 33 87 87.5t45 103.5q-8-4-39-4t-59.5 29.5-28.5 74.5 31.5 78 80.5 33 87-42 38-123z" glyph-name="quotedblbase" horiz-adv-x="798" unicode="„"/><glyph d="M492 1087l-183 9 8-426h-98l10 426-182-9v89l182-7-10 217h98l-8-217 183 7v-89z" glyph-name="dagger" horiz-adv-x="538" unicode="†"/><glyph d="M492 1176v-89l-183 9v-437l183 9v-88l-183 6 8-217h-98l8 217-180-6v88l180-9v437l-180-9v89l180-7-8 217h98l-8-217z" glyph-name="daggerdbl" horiz-adv-x="538" unicode="‡"/><glyph d="M590 496q0-90-65.5-155t-155.5-65-156 65-66 155 66 155.5 156 65.5 155.5-65.5 65.5-155.5z" glyph-name="bullet" horiz-adv-x="733" unicode="•"/><glyph d="M346 93q0-46-33.5-79.5t-79-33.5-78 33.5-32.5 79.5 32.5 79 78 33 79-33 33.5-79zm473-1q0-45-34.5-78.5t-80-33.5-78 33.5-32.5 79.5 33 79 79 33 79.5-34 33.5-79zm471 1q0-46-33.5-79.5t-78.5-33.5-79 33.5-34 79.5 32.5 79 80 33 80-33 32.5-79z" glyph-name="ellipsis" horiz-adv-x="1413" unicode="…"/><glyph d="M723 1048q0-144-93-239.5t-238.5-95.5-237 95.5-91.5 239.5 92.5 241 236.5 97 237.5-97 93.5-241zm524 318l-874-1366h-111l873 1366h112zm187-1056q0-144-92.5-239.5t-238-95.5-236.5 95.5-91 239.5 92.5 241.5 236.5 97.5 236.5-97.5 92.5-241.5zm-834 738q0 103-58.5 172.5t-149.5 69.5-148.5-69.5-57.5-172.5 57.5-171 148.5-68 149.5 68 58.5 171zm713-738q0 103-58.5 173t-150.5 70-149.5-69.5-57.5-173.5 57.5-171 149.5-67 150.5 67.5 58.5 170.5zm841 0q0-144-92-239.5t-237.5-95.5-236.5 95.5-91 239.5 92.5 241.5 236.5 97.5 236-97.5 92-241.5zm-120 0q0 103-58.5 173t-150.5 70-148.5-68.5-56.5-172.5 57.5-172 148.5-68 149.5 67.5 58.5 170.5z" glyph-name="perthousand" horiz-adv-x="2217" unicode="‰"/><glyph d="M543 129h-154l-328 369 328 362h154l-328-362z" glyph-name="guilsinglleft" horiz-adv-x="604" unicode="‹"/><glyph d="M543 498l-328-369h-154l328 369-328 362h154z" glyph-name="guilsinglright" horiz-adv-x="604" unicode="›"/><glyph d="M743 1171h-743v99h743v-99z" glyph-name="uni203E" horiz-adv-x="743" unicode="‾"/><glyph d="M635 1366l-875-1366h-112l872 1366h115z" glyph-name="fraction" horiz-adv-x="282" unicode="⁄"/><glyph d="M727 1272q0-170-84-297t-247-127-245.5 126-82.5 298 82.5 297 245.5 125 247-126 84-296zm-127 0q0 139-49 230t-155 91-154.5-91-48.5-230 49-231.5 154-92.5 154.5 92.5 49.5 231.5z" glyph-name="uni2070" horiz-adv-x="794" unicode="⁰"/><glyph d="M721 1067h-119v-205h-121v205h-401v90l352 524h170v-514h119v-100zm-240 100v406l-278-406h278z" glyph-name="uni2074" horiz-adv-x="794" unicode="⁴"/><glyph d="M705 1120q0-123-88.5-197.5t-223.5-74.5q-203 0-303 133l72 80q86-113 231-113 84 0 136.5 48t52.5 122-50 121-150 47-179-80l-88 31v444h534v-100h-411v-274q78 73 194 73t194.5-68.5 78.5-191.5z" glyph-name="uni2075" horiz-adv-x="794" unicode="⁵"/><glyph d="M717 1123q0-120-83-197.5t-218-77.5q-172 0-255 117t-83 303 92 306 248 120 256-95l-60-86q-74 80-184 80t-169.5-88-59.5-211v-34q37 49 100.5 86.5t134.5 37.5q121 0 201-70.5t80-190.5zm-123 1q0 74-53.5 118t-122.5 44q-138 0-213-115 6-92 57.5-157.5t141.5-65.5 140 51 50 125z" glyph-name="uni2076" horiz-adv-x="794" unicode="⁶"/><glyph d="M68 1581v100h594v-86l-340-733h-138l340 719h-456z" glyph-name="uni2077" horiz-adv-x="741" unicode="⁷"/><glyph d="M711 1071q0-106-91.5-164.5t-223.5-58.5-222 58.5-90 164.5q0 78 59.5 135.5t147.5 77.5q-84 20-138.5 69.5t-54.5 125.5q0 106 89 160.5t210 54.5 210-54.5 89-160.5q0-76-54-125t-138-70q88-20 147.5-77.5t59.5-135.5zm-138 393q0 61-50 96t-127 35-127-34.5-50-96.5q0-104 178-139 176 33 176 139zm15-378q0 66-65.5 105.5t-125.5 47.5q-59-8-125.5-46.5t-66.5-106.5 55-105 136-37 136.5 38 55.5 104z" glyph-name="uni2078" horiz-adv-x="794" unicode="⁸"/><glyph d="M78 1416q0 120 84 199t219 79q170 0 253-119t83-303-92.5-304-252.5-120-249 94l57 86q74-80 184-80t169 87 61 214v33q-35-49-98.5-87t-135.5-38q-121 0-201.5 69.5t-80.5 189.5zm123 0q0-74 53-117.5t135-43.5q129 0 201 115-8 90-57.5 156.5t-140.5 66.5-141-51.5-50-125.5z" glyph-name="uni2079" horiz-adv-x="794" unicode="⁹"/><glyph d="M180 1271q0-257 129-509l-71-33q-184 227-184 541t184 545l71-33q-129-254-129-511z" glyph-name="uni207D" horiz-adv-x="329" unicode="⁽"/><glyph d="M303 1272q0-311-186-543l-70 33q129 252 129 510t-129 510l70 33q88-109 137-252.5t49-290.5z" glyph-name="uni207E" horiz-adv-x="329" unicode="⁾"/><glyph d="M692 668h-119v409q0 152-143 152-115 0-188-94v-467h-119v643h119v-92q92 109 235 108 215 0 215-219v-440z" glyph-name="uni207F" horiz-adv-x="815" unicode="ⁿ"/><glyph d="M727 111q0-170-84-297t-247-127-245.5 126-82.5 298 82.5 296.5 245.5 124.5 247-125.5 84-295.5zm-127-.5q0 139.5-49 230.5t-155 91-154.5-91-48.5-230.5 49-231.5 154-92 154.5 92 49.5 231.5z" glyph-name="uni2080" horiz-adv-x="794" unicode="₀"/><glyph d="M358-299h-122v659l-136-141-71 76 221 225h108v-819z" glyph-name="uni2081" horiz-adv-x="481" unicode="₁"/><glyph d="M698-299h-596v92q254 180 361.5 287.5t107.5 191.5-51 122-123 38q-150 0-229-106l-68 77q100 129 301 129 123 0 208-62t85-178-102.5-229.5-308.5-261.5h415v-100z" glyph-name="uni2082" horiz-adv-x="794" unicode="₂"/><glyph d="M702-84q0-98-83.5-163.5t-225.5-65.5q-211 0-307 133l66 78q90-111 237-111 88 0 139.5 39t51.5 104q0 141-213 142-70 0-82-2v102q14-2 80-2 201 0 200 131 0 61-52 96t-130 35q-131 0-223-100l-64 74q113 127 297 126 131 0 213-59t82-151-55-139.5-127-59.5q70-6 133-57.5t63-149.5z" glyph-name="uni2083" horiz-adv-x="794" unicode="₃"/><glyph d="M721-94h-119v-205h-121v205h-401v90l352 524h170v-514h119v-100zm-240 100v406l-278-406h278z" glyph-name="uni2084" horiz-adv-x="794" unicode="₄"/><glyph d="M705-41q0-123-88.5-197.5t-223.5-74.5q-203 0-303 133l72 80q86-113 231-113 84 0 136.5 48t52.5 122-50 121-150 47-179-80l-88 31v444h534v-100h-411v-275q78 74 194 74t194.5-68.5 78.5-191.5z" glyph-name="uni2085" horiz-adv-x="794" unicode="₅"/><glyph d="M717-38q0-120-83-197.5t-218-77.5q-172 0-255 117.5t-83 303.5 92 305 248 119 256-94l-60-86q-74 80-184 80t-169.5-88-59.5-211v-35q37 49 100.5 87t134.5 38q121 0 201-70.5t80-190.5zm-123 2q0 74-53.5 117.5t-122.5 43.5q-137 0-213-115 6-92 57.5-157.5t141.5-65.5 140 51.5 50 125.5z" glyph-name="uni2086" horiz-adv-x="794" unicode="₆"/><glyph d="M68 420v100h594v-86l-340-733h-138l340 719h-456z" glyph-name="uni2087" horiz-adv-x="741" unicode="₇"/><glyph d="M711-90q0-106-91.5-164.5t-223.5-58.5-222 58-90 165q0 78 59.5 135t147.5 78q-84 20-138.5 69.5t-54.5 124.5q0 106 89 160.5t210 54.5 210-54 89-161q0-76-54-125t-138-69q88-20 147.5-77.5t59.5-135.5zm-138 393q0 61-50 96t-127 35-127-34.5-50-96.5q0-104 178-139 176 33 176 139zm15-377q0 66-65.5 105t-125.5 47q-59-8-125.5-47t-66.5-107 55-104.5 136-36.5 136.5 38.5 55.5 104.5z" glyph-name="uni2088" horiz-adv-x="794" unicode="₈"/><glyph d="M78 255q0 120 84 198.5t219 78.5q170 0 253-118.5t83-302.5-92.5-304-252.5-120-249 94l57 86q74-80 184-80t169 87 61 214v33q-35-49-98.5-87t-135.5-38q-121 0-201.5 69.5t-80.5 189.5zm123 1q0-74 53-118t135-44q129 0 201 115-8 90-57.5 156.5t-140.5 66.5-141-51-50-125z" glyph-name="uni2089" horiz-adv-x="794" unicode="₉"/><glyph d="M180 110q0-257 129-509l-71-33q-184 228-184 542t184 543l71-32q-129-254-129-511z" glyph-name="uni208D" horiz-adv-x="329" unicode="₍"/><glyph d="M303 111q0-311-186-543l-70 33q129 252 129 510t-129 510l70 32q88-109 137-252t49-290z" glyph-name="uni208E" horiz-adv-x="329" unicode="₎"/><glyph d="M113 682q0 311 201.5 509t500.5 198l45-3 62 187h102l-66-199q82-18 156-59l86 258h103l-105-311q70-53 135-144l-143-80q-25 35-47 58l-322-969q113 2 211 56.5t158 142.5l145-80q-198-271-520-271l-45 2-61-182h-103l66 195q-92 16-162 47l-80-242h-102l96 289q-145 92-228 247.5t-83 350.5zm176 0q0-279 190-436l330 991q-225-4-372.5-158.5t-147.5-396.5zm274-494q72-37 156-53l344 1026q-74 47-154 66z" glyph-name="colonmonetary" horiz-adv-x="1392" unicode="₡"/><glyph d="M350 0h-170v281h-160v98h160v987h895v-152h-725v-440h711v-151h-711v-244h414v-98h-414v-281z" glyph-name="franc" horiz-adv-x="1148" unicode="₣"/><glyph d="M39 672v94h131q-72 100-72 217 0 168 135.5 285.5t323.5 117.5q139 0 247.5-60t166.5-169l-137-82q-29 70-99.5 119t-176.5 49-191.5-71.5-85.5-185.5 79-220h394v-94h-318q59-78 74-144h244v-94h-238q-10-141-154-244 51 18 113 18t151-41.5 149-41.5 113.5 25.5 78.5 56.5l73-137q-100-96-276-97-96 0-194.5 47.5t-178.5 47.5-235-82l-62 127q131 59 202 140t71 173v8h-328v94h307q-18 45-100 144h-207z" glyph-name="lira" horiz-adv-x="1060" unicode="₤"/><glyph d="M1311 0h-164l-363 494h-434v-494h-170v494h-160v98h160v194h-160v99h160v481h174l355-481h432v481h170v-481h159v-99h-159v-194h159v-98h-159v-494zm-961 786v-194h363l-142 194h-221zm791-194v194h-361l144-194h217zm-791 293h150l-150 205v-205zm791-391h-144l144-195v195z" glyph-name="uni20A6" horiz-adv-x="1492" unicode="₦"/><glyph d="M1300 899h-147q-18-156-131-256t-293-100h-379v-543h-170v899h-160v107h160v360h549q182 0 295-102.5t129-257.5h147v-107zm-950 315v-208h627q-16 94-89 151t-179 57h-359zm359-520q104 0 176.5 56.5t89.5 148.5h-625v-205h359z" glyph-name="peseta" horiz-adv-x="1310" unicode="₧"/><glyph d="M1602-25q-252 0-400 156l80 111q51-59 140-100.5t193-41.5 165 48 61 118-63.5 108-152.5 57.5-179 45-153.5 87.5-63.5 174 99 194 269 82q223 0 367-144l-72-106q-104 125-295 125-100 0-159.5-43.5t-59.5-107.5 63.5-98 152.5-53.5 179.5-46 154-93 63.5-185.5-102.5-203-286.5-84zm-1272 568v-543h-170v1366h549q190 0 309-112t119-294-102.5-286.5-252.5-116.5l369-557h-201l-348 543h-272zm358 149q121 0 197 74t76 188.5-76 187-197 72.5h-358v-522h358z" glyph-name="uni20A8" horiz-adv-x="2086" unicode="₨"/><glyph d="M41 494v98h209l-55 194h-154v99h125l-137 481h188l127-481h356l134 481h141l131-481h354l129 481h189l-140-481h129v-99h-155l-56-194h211v-98h-239l-139-494h-185l-135 494h-332l-135-494h-184l-142 494h-235zm330 292l51-194h199l53 194h-303zm762 0l55-194h196l52 194h-303zm-316 0l-53-194h278l-53 194h-172zm397-292l74-267 70 267h-144zm-765 0l71-267 74 267h-145zm454 608l-59-217h119z" glyph-name="uni20A9" horiz-adv-x="1808" unicode="₩"/><glyph d="M1067 0h-508v793h150v-658h358q309 0 309 309v682h150v-692q0-434-459-434zm-405 1126q461 0 460-434v-360h-149v348q0 311-311 311h-359v-991h-149v1126h508z" glyph-name="afii57636" horiz-adv-x="1679" unicode="₪"/><glyph d="M989-293h-743v98h743v-98zm35 293h-154v147q-126-172-328-172t-324 140.5-122 377.5 122 379 323 142 329-174v256h-321v98h321v172h154v-172h139v-98h-139v-1096zm-451 113q90 0 172 45t125 110v449q-43 68-125.5 114t-171.5 46q-145 0-231-107.5t-86-275.5 86-274.5 231-106.5z" glyph-name="dong" horiz-adv-x="1185" unicode="₫"/><glyph d="M63 776v107h109q61 229 246.5 367.5t431.5 138.5q328 0 518-271l-143-80q-59 88-159.5 143.5t-215.5 55.5q-174 0-307-96.5t-189-257.5h621v-107h-645q-6-45-6-93t6-91h645v-107h-621q53-164 187.5-261t308.5-97q115 0 215 54.5t160 144.5l145-80q-198-271-520-271-248 0-433.5 138.5t-244.5 371.5h-109v107h89q-7 99 0 184h-89z" glyph-name="Euro" horiz-adv-x="1423" unicode="€"/><glyph d="M307 227q1-127 105-127 54 0 100 43l45-104q-63-63-173-63-230-1-230 231v827q0 150 109.5 251t272.5 101 266-73 103-175-64.5-175.5-183.5-153.5l-350-234v-348zm451 901q0 60-64.5 102t-157.5 42-161-65.5-68-174.5v-305l291 197q84 57 122 100.5t38 103.5z" glyph-name="afii61289" horiz-adv-x="972" unicode="ℓ"/><glyph d="M1865 717q-151 0-242 97t-91 240.5 91 241 242 97.5 242-97.5 91-241-91-240.5-242-97zm0 98q97 0 154.5 67.5t57.5 171.5-57.5 170-154.5 66-153.5-66.5-56.5-169.5 56.5-171 153.5-68zm-575-815h-164l-796 1090v-1090h-170v1366h174l786-1067v1067h170v-1366z" glyph-name="afii61352" horiz-adv-x="2279" unicode="№"/><glyph d="M1503 684q0-291-206.5-499t-499.5-208-500 208-207 499 207 499 500 208 499.5-208 206.5-499zm-63-1q0 265-189.5 454.5t-454.5 189.5-453.5-189.5-188.5-454.5 188-453.5 454-188.5 455 188.5 189 453.5zm-316 177q0-108-73.5-171.5t-182.5-63.5h-229v-357h-76v830h305q106 0 181-65t75-173zm-75-1q0 75-51.5 121t-129.5 46h-229v-332h229q78 0 129.5 45t51.5 120z" glyph-name="uni2117" horiz-adv-x="1593" unicode="℗"/><glyph d="M899 915h-57v373l-154-373h-16l-154 373v-373h-57v451h88l131-328 131 328h88v-451zm-514 119q0-61-45.5-98t-145.5-37-163 74l37 43q57-66 137-66 113 0 112 80 0 39-44 61.5t-95 30.5-95 40-44 88 46 92 118 36q113 0 168-65l-37-39q-47 55-129 55-43 0-71-20.5t-28-54.5 43.5-54 96.5-29.5 96-42.5 43-94z" glyph-name="uni2120" horiz-adv-x="974" unicode="℠"/><glyph d="M858 915h-57v373l-154-373h-16l-154 373v-373h-57v451h88l131-328 131 328h88v-451zm-512 398h-127v-398h-57v398h-127v53h311v-53z" glyph-name="trademark" horiz-adv-x="929" unicode="™"/><glyph d="M141 152h277q-313 188-314 561 0 297 188.5 486.5t490.5 189.5 489.5-189.5 187.5-486.5q0-373-309-561h274v-152h-491v152q145 37 247.5 178.5t102.5 365.5-133 381.5-368.5 157.5-368.5-157.5-133-381.5 103-366 249-178v-152h-492v152z" glyph-name="uni2126" horiz-adv-x="1566" unicode="Ω"/><glyph d="M1661 664h-1294q-10 0-11-11v-389q0-29 19-47 201-211 501-211t502 236h117q-111-129-276.5-204t-356.5-75q-330 0-564.5 211t-234.5 508 234.5 508 564.5 211 564.5-211 234.5-508v-18zm-293 51v391q0 29-20 49-199 203-484 203t-487-209q-20-20-21-49v-385q0-12 11-13h993q8 1 8 13z" glyph-name="estimated" horiz-adv-x="1724" unicode="℮"/><glyph d="M358 547h-122v659l-136-141-71 76 221 225h108v-819zm850 819l-874-1366h-113l873 1366h114zm351-1151q0-98-84-163.5t-226-65.5q-211 0-307 133l66 78q90-111 237-111 88 0 139.5 39t51.5 104q0 141-213 142-70 0-82-2v102q14-2 80-2 201 0 200 131 0 61-52 96t-130 35q-131 0-223-100l-64 74q113 127 297 126 131 0 213-58.5t82-150.5-55-140-127-60q70-6 133.5-57.5t63.5-149.5z" glyph-name="onethird" horiz-adv-x="1652" unicode="⅓"/><glyph d="M698 547h-596v92q254 180 361.5 287.5t107.5 191.5-51 122-123 38q-150 0-229-107l-68 78q102 129 301 129 123 0 208-62t85-178-102.5-229.5-308.5-261.5h415v-100zm732 819l-875-1366h-113l873 1366h115zm352-1151q0-98-84-163.5t-225-65.5q-211 0-308 133l66 78q90-111 237-111 88 0 139.5 39t51.5 104q0 141-213 142-70 0-82-2v102q14-2 80-2 201 0 201 131 0 61-52.5 96t-130.5 35q-131 0-223-100l-63 74q113 127 297 126 131 0 212.5-58.5t81.5-150.5-55-140-127-60q70-6 133.5-57.5t63.5-149.5z" glyph-name="twothirds" horiz-adv-x="1873" unicode="⅔"/><glyph d="M358 547h-122v659l-136-141-71 76 221 225h108v-819zm1209-338q0-106-91.5-164.5t-223.5-58.5-222 58-90 165q0 78 59.5 135t147.5 78q-84 20-138.5 69.5t-54.5 124.5q0 106 89.5 160.5t210 54.5 209.5-54 89-161q0-76-54-125t-138-69q88-20 147.5-77.5t59.5-135.5zm-137 393q0 61-50.5 96t-127.5 35-127-34.5-50-96.5q0-104 178-139 177 33 177 139zm14-378q0 66-65.5 105.5t-125.5 47.5q-59-8-125.5-46.5t-66.5-106.5 55-105 136-37 136.5 38 55.5 104zm-236 1142l-874-1366h-113l873 1366h114z" glyph-name="oneeighth" horiz-adv-x="1652" unicode="⅛"/><glyph d="M1790 209q0-106-91-164.5t-223-58.5-222.5 58-90.5 165q0 78 59.5 135t147.5 78q-84 20-138 69.5t-54 124.5q0 106 89 160.5t209.5 54.5 210-54 89.5-161q0-76-54.5-125t-138.5-69q88-20 147.5-77.5t59.5-135.5zm-137 393q0 61-50.5 96t-126.5 35-127-34.5-51-96.5q0-104 179-139 176 33 176 139zm14-378q0 66-65.5 105.5t-124.5 47.5q-59-8-126-46.5t-67-106.5 55.5-105 136.5-37 136 38 55 104zm-237 1142l-875-1366h-113l873 1366h115zm-728-604q0-98-83.5-164t-225.5-66q-211 0-307 134l66 77q90-111 237-110 88 0 139.5 39t51.5 104q0 141-213 142-70 0-82-3v103q14-2 80-2 201 0 200 131 0 61-52 96t-130 35q-131 0-223-100l-64 73q113 127 297 127 131 0 213-59t82-151-55-139.5-127-59.5q70-6 133-57.5t63-149.5z" glyph-name="threeeighths" horiz-adv-x="1873" unicode="⅜"/><glyph d="M1784 209q0-106-91-164.5t-223-58.5-222.5 58-90.5 165q0 78 59.5 135t147.5 78q-84 20-138.5 69.5t-54.5 124.5q0 106 89.5 160.5t210 54.5 209.5-54 89-161q0-76-54-125t-138-69q88-20 147.5-77.5t59.5-135.5zm-137 393q0 61-50.5 96t-127.5 35-127-34.5-50-96.5q0-104 178-139 177 33 177 139zm14-378q0 66-65.5 105.5t-125.5 47.5q-59-8-125.5-46.5t-66.5-106.5 56-105 136-37 135.5 38 55.5 104zm-956 581q0-123-88.5-198t-223.5-75q-203 0-303 134l72 79q86-113 231-112 84 0 136.5 48t52.5 122-50 121-150 47-179-80l-88 31v444h534v-100h-411v-275q78 74 194 74t194.5-68.5 78.5-191.5zm718 561l-874-1366h-113l873 1366h114z" glyph-name="fiveeighths" horiz-adv-x="1867" unicode="⅝"/><glyph d="M1616 209q0-106-91-164.5t-223-58.5-222.5 58-90.5 165q0 78 59.5 135t147.5 78q-84 20-138 69.5t-54 124.5q0 106 89 160.5t209.5 54.5 210-54 89.5-161q0-76-54.5-125t-138.5-69q88-20 147.5-77.5t59.5-135.5zm-137 393q0 61-50.5 96t-126.5 35-127-34.5-51-96.5q0-104 179-139 176 33 176 139zm14-378q0 66-65.5 105.5t-124.5 47.5q-59-8-126-46.5t-67-106.5 55.5-105 136.5-37 136 38 55 104zm-1425 1042v100h594v-86l-340-733h-138l340 719h-456zm1187 100l-874-1366h-113l873 1366h114z" glyph-name="seveneighths" horiz-adv-x="1699" unicode="⅞"/><glyph d="M1102 432h-551l24-266-575 420 575 418-24-265h551v-307z" glyph-name="arrowleft" horiz-adv-x="1191" unicode="←"/><glyph d="M442 35v551l-266-25 420 576 418-576-264 25v-551h-308z" glyph-name="arrowup" horiz-adv-x="1191" unicode="↑"/><glyph d="M96 432v307h549l-24 265 575-418-575-420 24 266h-549z" glyph-name="arrowright" horiz-adv-x="1191" unicode="→"/><glyph d="M750 1137v-551l266 24-420-575-418 575 264-24v551h308z" glyph-name="arrowdown" horiz-adv-x="1191" unicode="↓"/><glyph d="M587-25q-222 0-356.5 144.5t-134.5 358.5 127 358.5 327 144.5 314-168q-61 137-194 266t-316 219l115 95q252-131 429-364.5t177-518.5q0-236-133-385.5t-355-149.5zm-1.5 138q151.5 0 239.5 105.5t88 259.5-88 260-239.5 106-240.5-106.5-89-259.5 89-259 240.5-106z" glyph-name="partialdiff" unicode="∂"/><glyph d="M1329 0h-1311l549 1366h211zm-244 152l-411 1038-412-1038h823z" glyph-name="uni2206" horiz-adv-x="1347" unicode="∆"/><glyph d="M1159-184h-170v1398h-530v-1398h-170v1398h-223v152h1316v-152h-223v-1398z" glyph-name="product" horiz-adv-x="1447" unicode="∏"/><glyph d="M1067-33v-151h-956v151l473 641-471 606v152h954v-152h-745l469-604-476-643h752z" glyph-name="summation" horiz-adv-x="1177" unicode="∑"/><glyph d="M963 637h-904v106h904v-106z" glyph-name="minus" horiz-adv-x="1021" unicode="−"/><glyph d="M635 1366l-875-1366h-112l872 1366h115z" glyph-name="uni2215" horiz-adv-x="282" unicode="∕"/><glyph d="M348 500q0-45-33.5-78t-79-33-79 33-33.5 78 32.5 78.5 80 33.5 80-33.5 32.5-78.5z" glyph-name="uni2219" horiz-adv-x="471" unicode="∙"/><glyph d="M874 0h-118l-267 670-317-125-37 102 422 162 260-649 481 1206h121z" glyph-name="radical" horiz-adv-x="1484" unicode="√"/><glyph d="M375 348q-154 0-235 101.5t-81 237.5 80 236.5 236 100.5q98 0 175-63.5t120-159.5q47 98 123.5 160.5t175.5 62.5q154 0 234.5-100.5t80.5-236.5-81-237.5-234-101.5q-98 0-175 62.5t-124 160.5q-43-96-120-159.5t-175-63.5zm592 109q89 0 145.5 63.5t56.5 165.5-55.5 167-145.5 65-150-68-95-164q35-96 95-162.5t149-66.5zm-580-2q147 0 236 231-88 231-236 232-98 0-155.5-65t-57.5-166 57.5-166.5 155.5-65.5z" glyph-name="infinity" horiz-adv-x="1343" unicode="∞"/><glyph d="M160-205h-125v113h125q55 0 95 47t40 117v1224q0 123 77 200t179 77h127v-113h-127q-55 0-95-46t-40-118v-1226q0-121-77-198t-179-77z" glyph-name="integral" horiz-adv-x="712" unicode="∫"/><glyph d="M267 485q112 0 231.5 59.5t239.5 59.5 225-55v-121q-100 70-212 70t-231-60.5-242-60.5-219 55v121q96-68 208-68zm3 385q109 0 228.5 60.5t239.5 60.5 225-55v-121q-96 68-210 68t-233-59.5-240-59.5-221 55v119q102-68 211-68z" glyph-name="approxequal" horiz-adv-x="1021" unicode="≈"/><glyph d="M59 432v107h303l185 288h-488v109h557l152 240h113l-154-240h236v-109h-304l-184-288h488v-107h-557l-154-242h-111l154 242h-236z" glyph-name="notequal" horiz-adv-x="1021" unicode="≠"/><glyph d="M963 203l-904 446v109l904 448v-129l-773-375 773-372v-127zm0-203h-904v106h904v-106z" glyph-name="lessequal" horiz-adv-x="1021" unicode="≤"/><glyph d="M961 649l-904-446v127l772 372-772 375v129l904-448v-109zm0-649h-904v106h904v-106z" glyph-name="greaterequal" horiz-adv-x="1021" unicode="≥"/><glyph d="M1206 586l-1095-633v1266z" glyph-name="uni22B2" horiz-adv-x="1202" unicode="⊲"/><glyph d="M1096 1219v-1266l-1096 633z" glyph-name="uni22B3" horiz-adv-x="1202" unicode="⊳"/><glyph d="M348 500q0-45-33.5-78t-79-33-79 33-33.5 78 32.5 78.5 80 33.5 80-33.5 32.5-78.5z" glyph-name="dotmath" horiz-adv-x="471" unicode="⋅"/><glyph d="M463 315v152h-152q-63 0-105-44t-42-107.5 43-108.5 106.5-45 106.5 45 43 108zm0 584v154q0 63-42 107t-105.5 44-107.5-44-44-107.5 44-108.5 107-45h148zm80-356h280v280h-280v-280zm657-227.5q0 63.5-42 107.5t-105 44h-150v-152q0-63 43.5-108t105.5-45 105 45 43 108.5zm0 737q0 63.5-42 107.5t-105.5 44-106.5-44-43-107v-154h150q61 0 104 45t43 108.5zm80-737q0-94.5-66.5-162t-161-67.5-162 67.5-67.5 161.5v152h-280v-152q0-94-67.5-161.5t-162-67.5-161 67.5-66.5 162 66.5 161 160.5 66.5h150v280h-148q-94 0-161.5 67.5t-67.5 162 67.5 161 162 66.5 161-66.5 66.5-160.5v-154h280v154q0 94 67.5 160.5t162 66.5 161-66.5 66.5-161-66.5-162-160.5-67.5h-150v-280h150q94 0 160.5-66.5t66.5-161z" glyph-name="uni2318" horiz-adv-x="1366" unicode="⌘"/><glyph d="M1266 0h-1170v1171h1170v-1171z" glyph-name="filledbox" horiz-adv-x="1353" unicode="■"/><glyph d="M1264 59l-1268 2 633 1096z" glyph-name="triagup" horiz-adv-x="1261" unicode="▲"/><glyph d="M1264 1044l-635-1095-633 1095h1268z" glyph-name="triagdn" horiz-adv-x="1261" unicode="▼"/><glyph d="M406 0h-44l-323 684 323 682h44l323-682zm-21 84l270 600-272 598-270-598z" glyph-name="lozenge" horiz-adv-x="768" unicode="◊"/><glyph d="M1319 584q0-252-178-430.5t-430-178.5-430.5 178.5-178.5 430.5 178.5 430 430.5 178 430-178 178-430z" glyph-name="H18533" horiz-adv-x="1423" unicode="●"/><glyph d="M1554 862l-481-350 184-563-481 348-479-348 182 563-479 350h594l182 565 185-565h593z" glyph-name="uni2605" horiz-adv-x="1554" unicode="★"/><glyph d="M1262 0h-1170v1171h1170v-1171zm-117 106v957h-938v-957h938z" glyph-name="uni2610" horiz-adv-x="1353" unicode="☐"/><glyph d="M1262 1171v-1171h-1170v1171h1028l172 318 94-59-141-259h17zm-117-1065v877l-432-797-414 504 86 80 311-385 365 678h-854v-957h938z" glyph-name="uni2611" horiz-adv-x="1353" unicode="☑"/><glyph d="M1026 584l-514-512-512 512 512 514z" glyph-name="diamond" horiz-adv-x="1026" unicode="♦"/><glyph d="M1087 1430l-673-1244-414 504 86 80 311-385 596 1104z" glyph-name="uni2713" horiz-adv-x="1087" unicode="✓"/><glyph d="M590 870.5q0-118.5-76-198.5t-194-80-192.5 80-74.5 198.5 74.5 199.5 192.5 81 194-81 76-199.5zm569-613.5q0-120-75.5-200t-192.5-80-192.5 80-75.5 200 75.5 200 192.5 80 192.5-80 75.5-200zm-106 869l-787-1126h-106l782 1126h111zm-570-256q0 82-46 136.5t-117 54.5-116.5-55.5-45.5-135 46-134 118-54.5 116.5 53 44.5 135zm570-613q0 81-45 135t-118 54-118-54-45-135 46-135 118-54 117 54 45 135zm692 0q0-120-76-200t-192.5-80-191.5 82-75 200 75 198 191.5 80 192.5-80 76-200zm-105 0q0 81-45 135t-117 54-117.5-54-45.5-135 45-135 116.5-54 117.5 54 46 135z" glyph-name="uniF628" horiz-adv-x="1798" unicode=""/><glyph d="M692 668h-119v413q0 147-145 148-111 0-188-94v-467h-117v888h117v-337q96 109 237 108 215 0 215-219v-440z" glyph-name="uniF637" horiz-adv-x="815" unicode=""/><glyph d="M612-25q-180 0-305 113l-55-88h-133l110 176q-139 195-139 485t90 445.5 193.5 217.5 238.5 62q174 0 301-110l58 90h133l-111-178q141-197 141-486t-90-445.5-194.5-219-237.5-62.5zm-5 152q128 0 210 85t113 204 31 297-64 319l-504-807q86-98 214-98zm-343 525q0-177 62-320l503 807q-86 96-213 96t-208.5-84-112.5-203-31-296z" glyph-name="uniF638" horiz-adv-x="1224" unicode=""/><glyph d="M611-25q-134 0-237.5 62.5t-163.5 167-90 225.5-30 252 30 252 90 224.5 163.5 165.5 237.5 62 238.5-62 165-165.5 90.5-224.5 30-252-30-252-90.5-225.5-165-167-238.5-62.5zm1 152q123 0 205 85t113 204 31 266-31 266-113 203-205 84-204.5-84-112.5-203-31-266 31-266 112.5-204 204.5-85z" glyph-name="uniF639" horiz-adv-x="1224" unicode=""/><glyph d="M139 1171q163 215 495 215 166 0 302.5-104t136.5-296-164-381-499-453h669v-152h-938v135q213 168 331 267.5t227.5 211 154.5 198.5 45 173q0 123-84 186.5t-201 63.5q-236 0-370-172z" glyph-name="uniF63A" horiz-adv-x="1224" unicode=""/><glyph d="M610-25q-164 0-290.5 63.5t-194.5 162.5l100 106q61-82 162-131t235-49 219 68.5 85 189.5-91.5 180.5-230.5 59.5-160-2v155q23-2 152-2t218 57 89 167-87 172.5-218 62.5q-207 0-360-166l-95 107q174 211 467 210 203 0 333-97t130-267q0-135-90-216t-205-101q113-10 214.5-98.5t101.5-250.5-131.5-271.5-352.5-109.5z" glyph-name="uniF63B" horiz-adv-x="1224" unicode=""/><glyph d="M924 0h-170v346h-650v141l586 879h234v-870h192v-150h-192v-346zm-170 496v712l-480-712h480z" glyph-name="uniF63C" horiz-adv-x="1224" unicode=""/><glyph d="M623-25q-315 0-482 220l105 112q141-180 377-180 139 0 227 84t88 213-87 210-226 81q-184 0-316-129l-125 43v737h836v-152h-666v-475q124 123 312 123t315-117.5 127-320.5-137-326-348-123z" glyph-name="uniF63D" horiz-adv-x="1224" unicode=""/><glyph d="M645-25q-137 0-241.5 57.5t-194.5 205.5-90 442q0 414 185 560t370 146q236 0 379-163l-86-127q-119 139-293 139-127 0-256-116t-129-421q0-35 2-53 51 82 158.5 147.5t228.5 65.5q195 0 320.5-113t125.5-311-131-328.5-348-130.5zm-13 152q154 0 237 89t83 216-88 203-208 76-212-56.5-149-148.5q14-152 98.5-265.5t238.5-113.5z" glyph-name="uniF63E" horiz-adv-x="1224" unicode=""/><glyph d="M147 1214v152h932v-117l-559-1249h-188l551 1214h-736z" glyph-name="uniF63F" horiz-adv-x="1224" unicode=""/><glyph d="M612-25q-209 0-349 100.5t-140 270.5q0 129 93 223.5t233 135.5q-131 37-217.5 119.5t-86.5 207.5q0 172 139.5 263t328 91 328.5-91 140-263q0-125-86-208t-219-119q139-41 232.5-135.5t93.5-223.5q0-168-140.5-269.5t-349.5-101.5zm297 1035q0 102-85 163.5t-213 61.5-212-61.5-84-163.5q0-57 50-127.5t247-108.5q74 11 153 48.5t111.5 83.5 32.5 104zm-298-883q132 0 225.5 65.5t93.5 159.5-86.5 177.5-231.5 99.5q-144-16-231.5-99.5t-87.5-177.5 93-159.5 225-65.5z" glyph-name="uniF640" horiz-adv-x="1224" unicode=""/><glyph d="M551-23q-236 0-379 164l86 127q119-139 293-139 131 0 258 115.5t127 419.5q0 37-2 55-51-82-157.5-147.5t-227.5-65.5q-195 0-322 114t-127 310 131 327.5 347 131.5q139 0 243.5-57.5t194.5-207 90-442.5q0-411-185.5-558t-369.5-147zm17 676q120 0 213 55.5t147 147.5q-12 152-96 266.5t-238 114.5-238-90-84-216 88-202 208-76z" glyph-name="uniF641" horiz-adv-x="1224" unicode=""/><glyph d="M590 870.5q0-118.5-76-198.5t-194-80-192.5 80-74.5 198.5 74.5 199.5 192.5 81 194-81 76-199.5zm569-613.5q0-120-75.5-200t-192.5-80-192.5 80-75.5 200 75.5 200 192.5 80 192.5-80 75.5-200zm-106 869l-787-1126h-106l782 1126h111zm-570-256q0 82-46 136.5t-117 54.5-116.5-55.5-45.5-135 46-134 118-54.5 116.5 53 44.5 135zm570-613q0 81-45 135t-118 54-118-54-45-136 45-135 118-53 118 54 45 135z" glyph-name="uniF642" horiz-adv-x="1212" unicode=""/><glyph d="M1135 544q0-134-52.5-263t-174.5-217.5-296-88.5-348 126.5-174 461.5q0 235 92 361.5t195.5 176.5 234.5 50 234.5-50 165-134 92.5-186.5 31-236.5zm-174 19q0 182-88.5 309t-260.5 127-260-127-88-309 88-309 260-127 260.5 127 88.5 309z" glyph-name="uniF643" horiz-adv-x="1224" unicode=""/><glyph d="M809 0h-170v901l-219-231-103 104 342 352h150v-1126z" glyph-name="uniF644" horiz-adv-x="1224" unicode=""/><glyph d="M1042 0h-882v137q369 152 551 311.5t182 311.5q0 104-81 171.5t-199 67.5-217-46-163-126l-104 109q78 100 210 157.5t279 57.5q195 0 321-101.5t126-274.5-166-342-426-281h569v-152z" glyph-name="uniF645" horiz-adv-x="1224" unicode=""/><glyph d="M610-268q-164 0-290.5 63.5t-194.5 161.5l100 106q61-82 162-131t235-49 219 68.5 85 189.5-91.5 180.5-230.5 59.5-160-2v156q23-3 152-3t218 56.5 89 167.5-87 173-218 62q-207 0-360-166l-95 107q174 211 467 211 203 0 333-97.5t130-267.5q0-135-90-216t-205-101q113-10 214.5-98.5t101.5-250.5-131.5-271-352.5-109z" glyph-name="uniF646" horiz-adv-x="1224" unicode=""/><glyph d="M1116 113h-192v-353h-170v353h-650v141l586 872h234v-864h192v-149zm-362 149v707l-480-707h480z" glyph-name="uniF647" horiz-adv-x="1224" unicode=""/><glyph d="M623-264q-315 0-482 219l105 113q141-180 377-181 139 0 227 84t88 213-87 210-226 81q-184 0-316-129l-125 43v737h836v-151h-666v-475q124 123 312 123t315-118 127-321-137-325.5-348-122.5z" glyph-name="uniF648" horiz-adv-x="1224" unicode=""/><glyph d="M645-25q-137 0-241.5 57.5t-194.5 205.5-90 442q0 414 185 560t370 146q236 0 379-163l-86-127q-119 139-293 139-127 0-256-116t-129-421q0-35 2-53 51 82 158.5 147.5t228.5 65.5q195 0 320.5-113t125.5-311-131-328.5-348-130.5zm-13 152q154 0 237 89t83 216-88 203-208 76-212-56.5-149-148.5q14-152 98.5-265.5t238.5-113.5z" glyph-name="uniF649" horiz-adv-x="1224" unicode=""/><glyph d="M147 975v151h932v-116l-559-1250h-188l551 1215h-736z" glyph-name="uniF64A" horiz-adv-x="1224" unicode=""/><glyph d="M612-25q-209 0-349 100.5t-140 270.5q0 129 93 223.5t233 135.5q-131 37-217.5 119.5t-86.5 207.5q0 172 139.5 263t328 91 328.5-91 140-263q0-125-86-208t-219-119q139-41 232.5-135.5t93.5-223.5q0-168-140.5-269.5t-349.5-101.5zm297 1035q0 102-85 163.5t-213 61.5-212-61.5-84-163.5q0-57 50-127.5t247-108.5q74 11 153 48.5t111.5 83.5 32.5 104zm-298-883q132 0 225.5 65.5t93.5 159.5-86.5 177.5-231.5 99.5q-144-16-231.5-99.5t-87.5-177.5 93-159.5 225-65.5z" glyph-name="uniF64B" horiz-adv-x="1224" unicode=""/><glyph d="M551-260q-236 0-379 164l86 127q119-139 293-140 131 0 258 115.5t127 419.5q0 37-2 55-51-82-157.5-147.5t-227.5-65.5q-195 0-322 114t-127 310 131 327.5 347 131.5q139 0 243.5-57.5t194.5-206.5 90-443q0-410-185.5-557t-369.5-147zm17 676q120 0 213 55t147 147q-12 152-96 266.5t-238 114.5-238-89.5-84-215.5 88-202 208-76z" glyph-name="uniF64C" horiz-adv-x="1224" unicode=""/><glyph d="M96 563q0 258 171 423t429 165h11l26 76h88l-28-84q59-8 118-35l41 119h88l-53-158q92-57 158-149l-129-72q-31 45-78 80l-272-811h30q98 0 184.5 44t135.5 118l131-72q-170-231-451-232-25 0-78 5l-28-89h-88l33 103q-55 14-117 41l-47-144h-88l63 187q-117 78-183.5 204t-66.5 281zm164-9q0-192 137-323l262 777q-174-12-286.5-137t-112.5-317zm207-376q66-37 117-49l282 844q-61 27-121 33z" glyph-name="uniF64D" horiz-adv-x="1191" unicode=""/><glyph d="M1073 848q-113 162-341 162-120 0-229.5-75t-156.5-204h494v-90h-518q-12-83 2-158h516v-90h-492q47-127 155.5-201.5t228.5-74.5q234 0 341 162l131-72q-170-231-450-232-211 0-369 114t-209 304h-113v90h95q-4 25-4 78t4 80h-95v90h111q53 190 211 305t369 115q285 0 448-231z" glyph-name="uniF64E" horiz-adv-x="1249" unicode=""/><glyph d="M94 440v117h127l64 277q70 315 311 315 109 0 176-66l-67-122q-29 37-87 36-121 0-163-184l-58-256h217v-117h-243l-154-684h-172l154 684h-105z" glyph-name="uniF64F" horiz-adv-x="751" unicode=""/><glyph d="M973 807l-29-96h-180l-96-289h182l-31-96h-184l-111-326h-116l110 326h-184l-109-326h-116l108 326h-172l29 96h178l96 289h-178l29 96h180l108 319h117l-110-319h184l110 319h117l-110-319h178zm-328-96h-180l-98-289h184z" glyph-name="uniF650" horiz-adv-x="1015" unicode=""/><glyph d="M29 459v98h145q-98 137-98 268t109.5 227.5 267.5 96.5q113 0 205-49t137-135l-121-66q-61 131-209 131-96 0-164-60.5t-68-158.5q0-59 19.5-99t23-48.5 15.5-29 16-25.5 18.5-27.5 16.5-24.5h276v-98h-217q25-55 25-105 0-125-111-196 18 8 61 8t124.5-30 126.5-30 90 18.5 65 45.5l70-113q-80-80-236-80-76 0-153.5 34t-144.5 34-193-61l-53 110q217 92 217 232 0 57-47 133h-213z" glyph-name="uniF651" horiz-adv-x="870" unicode=""/><glyph d="M643 0h-160v231h-436v99h436v145h-436v96h369l-402 555h187l362-512 357 512h186l-395-555h358v-96h-426v-145h426v-99h-426v-231z" glyph-name="uniF652" horiz-adv-x="1120" unicode=""/><glyph d="M633-188v168q-236 20-386.5 181t-150.5 402.5 150.5 402 386.5 181.5v121h119v-121q246-20 393-227l-129-72q-94 133-264 158v-885q176 23 264 158l131-72q-154-207-395-227v-168h-119zm-373 752q0-175 105.5-298t267.5-145v885q-164-23-268.5-145t-104.5-297z" glyph-name="uniF654" horiz-adv-x="1191" unicode=""/><glyph d="M727 410q0-170-84-297t-247-127-245.5 126-82.5 298 82.5 296.5 245.5 124.5 247-125.5 84-295.5zm-127-.5q0 139.5-49 230.5t-155 91-154.5-91-48.5-230.5 49-231.5 154-92 154.5 92 49.5 231.5z" glyph-name="uniF655" horiz-adv-x="794" unicode=""/><glyph d="M358 0h-122v659l-136-141-71 76 221 225h108v-819z" glyph-name="uniF656" horiz-adv-x="481" unicode=""/><glyph d="M698 0h-596v92q254 180 361.5 288t107.5 192-51 121.5-123 37.5q-150 0-229-106l-68 77q102 129 301 129 123 0 208-62t85-178-102.5-229.5-308.5-261.5h415v-100z" glyph-name="uniF657" horiz-adv-x="794" unicode=""/><glyph d="M702 215q0-98-83.5-163.5t-225.5-65.5q-211 0-307 133l66 78q90-111 237-111 88 0 139.5 39t51.5 104q0 141-213 142-70 0-82-2v102q14-2 80-2 201 0 200 131 0 61-52 96t-130 35q-131 0-223-100l-64 74q113 127 297 126 131 0 213-58.5t82-150.5-55-140-127-60q70-6 133-57.5t63-149.5z" glyph-name="uniF658" horiz-adv-x="794" unicode=""/><glyph d="M721 205h-119v-205h-121v205h-401v90l352 524h170v-514h119v-100zm-240 100v406l-278-406h278z" glyph-name="uniF659" horiz-adv-x="794" unicode=""/><glyph d="M705 258q0-123-88.5-197.5t-223.5-74.5q-203 0-303 133l72 80q86-113 231-113 84 0 136.5 48t52.5 122-50 121-150 47-179-80l-88 31v444h534v-100h-411v-275q78 74 194 74t194.5-68.5 78.5-191.5z" glyph-name="uniF65A" horiz-adv-x="794" unicode=""/><glyph d="M717 261q0-120-83-197.5t-218-77.5q-172 0-255 117t-83 303 92 305.5 248 119.5 256-94l-60-86q-74 80-184 80t-169.5-88-59.5-211v-35q37 49 100.5 87t134.5 38q121 0 201-70.5t80-190.5zm-123 1q0 74-53.5 118t-122.5 44q-137 0-213-115 6-92 57.5-157.5t141.5-65.5 140 51 50 125z" glyph-name="uniF65B" horiz-adv-x="794" unicode=""/><glyph d="M68 719v100h594v-86l-340-733h-138l340 719h-456z" glyph-name="uniF65C" horiz-adv-x="741" unicode=""/><glyph d="M711 209q0-106-91.5-164.5t-223.5-58.5-222 58-90 165q0 78 59.5 135t147.5 78q-84 20-138.5 69.5t-54.5 124.5q0 106 89 160.5t210 54.5 210-54 89-161q0-76-54-125t-138-69q88-20 147.5-77.5t59.5-135.5zm-138 393q0 61-50 96t-127 35-127-34.5-50-96.5q0-104 178-139 176 33 176 139zm15-378q0 66-65.5 105.5t-125.5 47.5q-59-8-125.5-46.5t-66.5-106.5 55-105 136-37 136.5 38 55.5 104z" glyph-name="uniF65D" horiz-adv-x="794" unicode=""/></font>
</defs>
</svg>
